<?xml version="1.0" encoding="utf-8" standalone="no"?>
<!DOCTYPE svg PUBLIC "-//W3C//DTD SVG 1.1//EN"
  "http://www.w3.org/Graphics/SVG/1.1/DTD/svg11.dtd">
<svg xmlns:xlink="http://www.w3.org/1999/xlink" width="567.74125pt" height="567.034375pt" viewBox="0 0 567.74125 567.034375" xmlns="http://www.w3.org/2000/svg" version="1.1">
 <metadata>
  <rdf:RDF xmlns:dc="http://purl.org/dc/elements/1.1/" xmlns:cc="http://creativecommons.org/ns#" xmlns:rdf="http://www.w3.org/1999/02/22-rdf-syntax-ns#">
   <cc:Work>
    <dc:type rdf:resource="http://purl.org/dc/dcmitype/StillImage"/>
    <dc:date>2025-02-08T21:55:15.549453</dc:date>
    <dc:format>image/svg+xml</dc:format>
    <dc:creator>
     <cc:Agent>
      <dc:title>Matplotlib v3.9.3, https://matplotlib.org/</dc:title>
     </cc:Agent>
    </dc:creator>
   </cc:Work>
  </rdf:RDF>
 </metadata>
 <defs>
  <style type="text/css">*{stroke-linejoin: round; stroke-linecap: butt}</style>
 </defs>
 <g id="figure_1">
  <g id="patch_1">
   <path d="M 0 567.034375 
L 567.74125 567.034375 
L 567.74125 0 
L 0 0 
z
" style="fill: #ffffff"/>
  </g>
  <g id="axes_1">
   <g id="patch_2">
    <path d="M 43.78125 529.478125 
L 560.54125 529.478125 
L 560.54125 22.318125 
L 43.78125 22.318125 
z
" style="fill: #ffffff"/>
   </g>
   <g id="matplotlib.axis_1">
    <g id="xtick_1">
     <g id="line2d_1">
      <defs>
       <path id="mb4a8c7ea44" d="M 0 0 
L 0 3.5 
" style="stroke: #000000; stroke-width: 0.8"/>
      </defs>
      <g>
       <use xlink:href="#mb4a8c7ea44" x="67.270341" y="529.478125" style="stroke: #000000; stroke-width: 0.8"/>
      </g>
     </g>
     <g id="text_1">
      <!-- 0 -->
      <g transform="translate(64.089091 544.076562) scale(0.1 -0.1)">
       <defs>
        <path id="DejaVuSans-30" d="M 2034 4250 
Q 1547 4250 1301 3770 
Q 1056 3291 1056 2328 
Q 1056 1369 1301 889 
Q 1547 409 2034 409 
Q 2525 409 2770 889 
Q 3016 1369 3016 2328 
Q 3016 3291 2770 3770 
Q 2525 4250 2034 4250 
z
M 2034 4750 
Q 2819 4750 3233 4129 
Q 3647 3509 3647 2328 
Q 3647 1150 3233 529 
Q 2819 -91 2034 -91 
Q 1250 -91 836 529 
Q 422 1150 422 2328 
Q 422 3509 836 4129 
Q 1250 4750 2034 4750 
z
" transform="scale(0.015625)"/>
       </defs>
       <use xlink:href="#DejaVuSans-30"/>
      </g>
     </g>
    </g>
    <g id="xtick_2">
     <g id="line2d_2">
      <g>
       <use xlink:href="#mb4a8c7ea44" x="161.226705" y="529.478125" style="stroke: #000000; stroke-width: 0.8"/>
      </g>
     </g>
     <g id="text_2">
      <!-- 20 -->
      <g transform="translate(154.864205 544.076562) scale(0.1 -0.1)">
       <defs>
        <path id="DejaVuSans-32" d="M 1228 531 
L 3431 531 
L 3431 0 
L 469 0 
L 469 531 
Q 828 903 1448 1529 
Q 2069 2156 2228 2338 
Q 2531 2678 2651 2914 
Q 2772 3150 2772 3378 
Q 2772 3750 2511 3984 
Q 2250 4219 1831 4219 
Q 1534 4219 1204 4116 
Q 875 4013 500 3803 
L 500 4441 
Q 881 4594 1212 4672 
Q 1544 4750 1819 4750 
Q 2544 4750 2975 4387 
Q 3406 4025 3406 3419 
Q 3406 3131 3298 2873 
Q 3191 2616 2906 2266 
Q 2828 2175 2409 1742 
Q 1991 1309 1228 531 
z
" transform="scale(0.015625)"/>
       </defs>
       <use xlink:href="#DejaVuSans-32"/>
       <use xlink:href="#DejaVuSans-30" x="63.623047"/>
      </g>
     </g>
    </g>
    <g id="xtick_3">
     <g id="line2d_3">
      <g>
       <use xlink:href="#mb4a8c7ea44" x="255.183068" y="529.478125" style="stroke: #000000; stroke-width: 0.8"/>
      </g>
     </g>
     <g id="text_3">
      <!-- 40 -->
      <g transform="translate(248.820568 544.076562) scale(0.1 -0.1)">
       <defs>
        <path id="DejaVuSans-34" d="M 2419 4116 
L 825 1625 
L 2419 1625 
L 2419 4116 
z
M 2253 4666 
L 3047 4666 
L 3047 1625 
L 3713 1625 
L 3713 1100 
L 3047 1100 
L 3047 0 
L 2419 0 
L 2419 1100 
L 313 1100 
L 313 1709 
L 2253 4666 
z
" transform="scale(0.015625)"/>
       </defs>
       <use xlink:href="#DejaVuSans-34"/>
       <use xlink:href="#DejaVuSans-30" x="63.623047"/>
      </g>
     </g>
    </g>
    <g id="xtick_4">
     <g id="line2d_4">
      <g>
       <use xlink:href="#mb4a8c7ea44" x="349.139432" y="529.478125" style="stroke: #000000; stroke-width: 0.8"/>
      </g>
     </g>
     <g id="text_4">
      <!-- 60 -->
      <g transform="translate(342.776932 544.076562) scale(0.1 -0.1)">
       <defs>
        <path id="DejaVuSans-36" d="M 2113 2584 
Q 1688 2584 1439 2293 
Q 1191 2003 1191 1497 
Q 1191 994 1439 701 
Q 1688 409 2113 409 
Q 2538 409 2786 701 
Q 3034 994 3034 1497 
Q 3034 2003 2786 2293 
Q 2538 2584 2113 2584 
z
M 3366 4563 
L 3366 3988 
Q 3128 4100 2886 4159 
Q 2644 4219 2406 4219 
Q 1781 4219 1451 3797 
Q 1122 3375 1075 2522 
Q 1259 2794 1537 2939 
Q 1816 3084 2150 3084 
Q 2853 3084 3261 2657 
Q 3669 2231 3669 1497 
Q 3669 778 3244 343 
Q 2819 -91 2113 -91 
Q 1303 -91 875 529 
Q 447 1150 447 2328 
Q 447 3434 972 4092 
Q 1497 4750 2381 4750 
Q 2619 4750 2861 4703 
Q 3103 4656 3366 4563 
z
" transform="scale(0.015625)"/>
       </defs>
       <use xlink:href="#DejaVuSans-36"/>
       <use xlink:href="#DejaVuSans-30" x="63.623047"/>
      </g>
     </g>
    </g>
    <g id="xtick_5">
     <g id="line2d_5">
      <g>
       <use xlink:href="#mb4a8c7ea44" x="443.095795" y="529.478125" style="stroke: #000000; stroke-width: 0.8"/>
      </g>
     </g>
     <g id="text_5">
      <!-- 80 -->
      <g transform="translate(436.733295 544.076562) scale(0.1 -0.1)">
       <defs>
        <path id="DejaVuSans-38" d="M 2034 2216 
Q 1584 2216 1326 1975 
Q 1069 1734 1069 1313 
Q 1069 891 1326 650 
Q 1584 409 2034 409 
Q 2484 409 2743 651 
Q 3003 894 3003 1313 
Q 3003 1734 2745 1975 
Q 2488 2216 2034 2216 
z
M 1403 2484 
Q 997 2584 770 2862 
Q 544 3141 544 3541 
Q 544 4100 942 4425 
Q 1341 4750 2034 4750 
Q 2731 4750 3128 4425 
Q 3525 4100 3525 3541 
Q 3525 3141 3298 2862 
Q 3072 2584 2669 2484 
Q 3125 2378 3379 2068 
Q 3634 1759 3634 1313 
Q 3634 634 3220 271 
Q 2806 -91 2034 -91 
Q 1263 -91 848 271 
Q 434 634 434 1313 
Q 434 1759 690 2068 
Q 947 2378 1403 2484 
z
M 1172 3481 
Q 1172 3119 1398 2916 
Q 1625 2713 2034 2713 
Q 2441 2713 2670 2916 
Q 2900 3119 2900 3481 
Q 2900 3844 2670 4047 
Q 2441 4250 2034 4250 
Q 1625 4250 1398 4047 
Q 1172 3844 1172 3481 
z
" transform="scale(0.015625)"/>
       </defs>
       <use xlink:href="#DejaVuSans-38"/>
       <use xlink:href="#DejaVuSans-30" x="63.623047"/>
      </g>
     </g>
    </g>
    <g id="xtick_6">
     <g id="line2d_6">
      <g>
       <use xlink:href="#mb4a8c7ea44" x="537.052159" y="529.478125" style="stroke: #000000; stroke-width: 0.8"/>
      </g>
     </g>
     <g id="text_6">
      <!-- 100 -->
      <g transform="translate(527.508409 544.076562) scale(0.1 -0.1)">
       <defs>
        <path id="DejaVuSans-31" d="M 794 531 
L 1825 531 
L 1825 4091 
L 703 3866 
L 703 4441 
L 1819 4666 
L 2450 4666 
L 2450 531 
L 3481 531 
L 3481 0 
L 794 0 
L 794 531 
z
" transform="scale(0.015625)"/>
       </defs>
       <use xlink:href="#DejaVuSans-31"/>
       <use xlink:href="#DejaVuSans-30" x="63.623047"/>
       <use xlink:href="#DejaVuSans-30" x="127.246094"/>
      </g>
     </g>
    </g>
    <g id="text_7">
     <!-- Distance -->
     <g transform="translate(280.29875 557.754687) scale(0.1 -0.1)">
      <defs>
       <path id="DejaVuSans-44" d="M 1259 4147 
L 1259 519 
L 2022 519 
Q 2988 519 3436 956 
Q 3884 1394 3884 2338 
Q 3884 3275 3436 3711 
Q 2988 4147 2022 4147 
L 1259 4147 
z
M 628 4666 
L 1925 4666 
Q 3281 4666 3915 4102 
Q 4550 3538 4550 2338 
Q 4550 1131 3912 565 
Q 3275 0 1925 0 
L 628 0 
L 628 4666 
z
" transform="scale(0.015625)"/>
       <path id="DejaVuSans-69" d="M 603 3500 
L 1178 3500 
L 1178 0 
L 603 0 
L 603 3500 
z
M 603 4863 
L 1178 4863 
L 1178 4134 
L 603 4134 
L 603 4863 
z
" transform="scale(0.015625)"/>
       <path id="DejaVuSans-73" d="M 2834 3397 
L 2834 2853 
Q 2591 2978 2328 3040 
Q 2066 3103 1784 3103 
Q 1356 3103 1142 2972 
Q 928 2841 928 2578 
Q 928 2378 1081 2264 
Q 1234 2150 1697 2047 
L 1894 2003 
Q 2506 1872 2764 1633 
Q 3022 1394 3022 966 
Q 3022 478 2636 193 
Q 2250 -91 1575 -91 
Q 1294 -91 989 -36 
Q 684 19 347 128 
L 347 722 
Q 666 556 975 473 
Q 1284 391 1588 391 
Q 1994 391 2212 530 
Q 2431 669 2431 922 
Q 2431 1156 2273 1281 
Q 2116 1406 1581 1522 
L 1381 1569 
Q 847 1681 609 1914 
Q 372 2147 372 2553 
Q 372 3047 722 3315 
Q 1072 3584 1716 3584 
Q 2034 3584 2315 3537 
Q 2597 3491 2834 3397 
z
" transform="scale(0.015625)"/>
       <path id="DejaVuSans-74" d="M 1172 4494 
L 1172 3500 
L 2356 3500 
L 2356 3053 
L 1172 3053 
L 1172 1153 
Q 1172 725 1289 603 
Q 1406 481 1766 481 
L 2356 481 
L 2356 0 
L 1766 0 
Q 1100 0 847 248 
Q 594 497 594 1153 
L 594 3053 
L 172 3053 
L 172 3500 
L 594 3500 
L 594 4494 
L 1172 4494 
z
" transform="scale(0.015625)"/>
       <path id="DejaVuSans-61" d="M 2194 1759 
Q 1497 1759 1228 1600 
Q 959 1441 959 1056 
Q 959 750 1161 570 
Q 1363 391 1709 391 
Q 2188 391 2477 730 
Q 2766 1069 2766 1631 
L 2766 1759 
L 2194 1759 
z
M 3341 1997 
L 3341 0 
L 2766 0 
L 2766 531 
Q 2569 213 2275 61 
Q 1981 -91 1556 -91 
Q 1019 -91 701 211 
Q 384 513 384 1019 
Q 384 1609 779 1909 
Q 1175 2209 1959 2209 
L 2766 2209 
L 2766 2266 
Q 2766 2663 2505 2880 
Q 2244 3097 1772 3097 
Q 1472 3097 1187 3025 
Q 903 2953 641 2809 
L 641 3341 
Q 956 3463 1253 3523 
Q 1550 3584 1831 3584 
Q 2591 3584 2966 3190 
Q 3341 2797 3341 1997 
z
" transform="scale(0.015625)"/>
       <path id="DejaVuSans-6e" d="M 3513 2113 
L 3513 0 
L 2938 0 
L 2938 2094 
Q 2938 2591 2744 2837 
Q 2550 3084 2163 3084 
Q 1697 3084 1428 2787 
Q 1159 2491 1159 1978 
L 1159 0 
L 581 0 
L 581 3500 
L 1159 3500 
L 1159 2956 
Q 1366 3272 1645 3428 
Q 1925 3584 2291 3584 
Q 2894 3584 3203 3211 
Q 3513 2838 3513 2113 
z
" transform="scale(0.015625)"/>
       <path id="DejaVuSans-63" d="M 3122 3366 
L 3122 2828 
Q 2878 2963 2633 3030 
Q 2388 3097 2138 3097 
Q 1578 3097 1268 2742 
Q 959 2388 959 1747 
Q 959 1106 1268 751 
Q 1578 397 2138 397 
Q 2388 397 2633 464 
Q 2878 531 3122 666 
L 3122 134 
Q 2881 22 2623 -34 
Q 2366 -91 2075 -91 
Q 1284 -91 818 406 
Q 353 903 353 1747 
Q 353 2603 823 3093 
Q 1294 3584 2113 3584 
Q 2378 3584 2631 3529 
Q 2884 3475 3122 3366 
z
" transform="scale(0.015625)"/>
       <path id="DejaVuSans-65" d="M 3597 1894 
L 3597 1613 
L 953 1613 
Q 991 1019 1311 708 
Q 1631 397 2203 397 
Q 2534 397 2845 478 
Q 3156 559 3463 722 
L 3463 178 
Q 3153 47 2828 -22 
Q 2503 -91 2169 -91 
Q 1331 -91 842 396 
Q 353 884 353 1716 
Q 353 2575 817 3079 
Q 1281 3584 2069 3584 
Q 2775 3584 3186 3129 
Q 3597 2675 3597 1894 
z
M 3022 2063 
Q 3016 2534 2758 2815 
Q 2500 3097 2075 3097 
Q 1594 3097 1305 2825 
Q 1016 2553 972 2059 
L 3022 2063 
z
" transform="scale(0.015625)"/>
      </defs>
      <use xlink:href="#DejaVuSans-44"/>
      <use xlink:href="#DejaVuSans-69" x="77.001953"/>
      <use xlink:href="#DejaVuSans-73" x="104.785156"/>
      <use xlink:href="#DejaVuSans-74" x="156.884766"/>
      <use xlink:href="#DejaVuSans-61" x="196.09375"/>
      <use xlink:href="#DejaVuSans-6e" x="257.373047"/>
      <use xlink:href="#DejaVuSans-63" x="320.751953"/>
      <use xlink:href="#DejaVuSans-65" x="375.732422"/>
     </g>
    </g>
   </g>
   <g id="matplotlib.axis_2">
    <g id="ytick_1">
     <g id="line2d_7">
      <defs>
       <path id="m92995ef325" d="M 0 0 
L -3.5 0 
" style="stroke: #000000; stroke-width: 0.8"/>
      </defs>
      <g>
       <use xlink:href="#m92995ef325" x="43.78125" y="506.425398" style="stroke: #000000; stroke-width: 0.8"/>
      </g>
     </g>
     <g id="text_8">
      <!-- 0.0 -->
      <g transform="translate(20.878125 510.224616) scale(0.1 -0.1)">
       <defs>
        <path id="DejaVuSans-2e" d="M 684 794 
L 1344 794 
L 1344 0 
L 684 0 
L 684 794 
z
" transform="scale(0.015625)"/>
       </defs>
       <use xlink:href="#DejaVuSans-30"/>
       <use xlink:href="#DejaVuSans-2e" x="63.623047"/>
       <use xlink:href="#DejaVuSans-30" x="95.410156"/>
      </g>
     </g>
    </g>
    <g id="ytick_2">
     <g id="line2d_8">
      <g>
       <use xlink:href="#m92995ef325" x="43.78125" y="444.491082" style="stroke: #000000; stroke-width: 0.8"/>
      </g>
     </g>
     <g id="text_9">
      <!-- 0.2 -->
      <g transform="translate(20.878125 448.290301) scale(0.1 -0.1)">
       <use xlink:href="#DejaVuSans-30"/>
       <use xlink:href="#DejaVuSans-2e" x="63.623047"/>
       <use xlink:href="#DejaVuSans-32" x="95.410156"/>
      </g>
     </g>
    </g>
    <g id="ytick_3">
     <g id="line2d_9">
      <g>
       <use xlink:href="#m92995ef325" x="43.78125" y="382.556767" style="stroke: #000000; stroke-width: 0.8"/>
      </g>
     </g>
     <g id="text_10">
      <!-- 0.4 -->
      <g transform="translate(20.878125 386.355986) scale(0.1 -0.1)">
       <use xlink:href="#DejaVuSans-30"/>
       <use xlink:href="#DejaVuSans-2e" x="63.623047"/>
       <use xlink:href="#DejaVuSans-34" x="95.410156"/>
      </g>
     </g>
    </g>
    <g id="ytick_4">
     <g id="line2d_10">
      <g>
       <use xlink:href="#m92995ef325" x="43.78125" y="320.622451" style="stroke: #000000; stroke-width: 0.8"/>
      </g>
     </g>
     <g id="text_11">
      <!-- 0.6 -->
      <g transform="translate(20.878125 324.42167) scale(0.1 -0.1)">
       <use xlink:href="#DejaVuSans-30"/>
       <use xlink:href="#DejaVuSans-2e" x="63.623047"/>
       <use xlink:href="#DejaVuSans-36" x="95.410156"/>
      </g>
     </g>
    </g>
    <g id="ytick_5">
     <g id="line2d_11">
      <g>
       <use xlink:href="#m92995ef325" x="43.78125" y="258.688136" style="stroke: #000000; stroke-width: 0.8"/>
      </g>
     </g>
     <g id="text_12">
      <!-- 0.8 -->
      <g transform="translate(20.878125 262.487355) scale(0.1 -0.1)">
       <use xlink:href="#DejaVuSans-30"/>
       <use xlink:href="#DejaVuSans-2e" x="63.623047"/>
       <use xlink:href="#DejaVuSans-38" x="95.410156"/>
      </g>
     </g>
    </g>
    <g id="ytick_6">
     <g id="line2d_12">
      <g>
       <use xlink:href="#m92995ef325" x="43.78125" y="196.75382" style="stroke: #000000; stroke-width: 0.8"/>
      </g>
     </g>
     <g id="text_13">
      <!-- 1.0 -->
      <g transform="translate(20.878125 200.553039) scale(0.1 -0.1)">
       <use xlink:href="#DejaVuSans-31"/>
       <use xlink:href="#DejaVuSans-2e" x="63.623047"/>
       <use xlink:href="#DejaVuSans-30" x="95.410156"/>
      </g>
     </g>
    </g>
    <g id="ytick_7">
     <g id="line2d_13">
      <g>
       <use xlink:href="#m92995ef325" x="43.78125" y="134.819505" style="stroke: #000000; stroke-width: 0.8"/>
      </g>
     </g>
     <g id="text_14">
      <!-- 1.2 -->
      <g transform="translate(20.878125 138.618724) scale(0.1 -0.1)">
       <use xlink:href="#DejaVuSans-31"/>
       <use xlink:href="#DejaVuSans-2e" x="63.623047"/>
       <use xlink:href="#DejaVuSans-32" x="95.410156"/>
      </g>
     </g>
    </g>
    <g id="ytick_8">
     <g id="line2d_14">
      <g>
       <use xlink:href="#m92995ef325" x="43.78125" y="72.88519" style="stroke: #000000; stroke-width: 0.8"/>
      </g>
     </g>
     <g id="text_15">
      <!-- 1.4 -->
      <g transform="translate(20.878125 76.684408) scale(0.1 -0.1)">
       <use xlink:href="#DejaVuSans-31"/>
       <use xlink:href="#DejaVuSans-2e" x="63.623047"/>
       <use xlink:href="#DejaVuSans-34" x="95.410156"/>
      </g>
     </g>
    </g>
    <g id="text_16">
     <!-- $\gamma$ -->
     <g transform="translate(14.778125 278.898125) rotate(-90) scale(0.1 -0.1)">
      <defs>
       <path id="DejaVuSans-Oblique-3b3" d="M 1491 2950 
L 1838 788 
L 3456 3500 
L 4066 3500 
L 1972 0 
L 1713 -1331 
L 1138 -1331 
L 1397 0 
L 988 2613 
Q 925 3006 628 3006 
L 475 3006 
L 569 3500 
L 788 3500 
Q 1403 3500 1491 2950 
z
" transform="scale(0.015625)"/>
      </defs>
      <use xlink:href="#DejaVuSans-Oblique-3b3" transform="translate(0 0.3125)"/>
     </g>
    </g>
   </g>
   <g id="line2d_15">
    <defs>
     <path id="mf1fe25687f" d="M 0 2 
C 0.530406 2 1.03916 1.789267 1.414214 1.414214 
C 1.789267 1.03916 2 0.530406 2 0 
C 2 -0.530406 1.789267 -1.03916 1.414214 -1.414214 
C 1.03916 -1.789267 0.530406 -2 0 -2 
C -0.530406 -2 -1.03916 -1.789267 -1.414214 -1.414214 
C -1.789267 -1.03916 -2 -0.530406 -2 0 
C -2 0.530406 -1.789267 1.03916 -1.414214 1.414214 
C -1.03916 1.789267 -0.530406 2 0 2 
z
" style="stroke: #000000"/>
    </defs>
    <g clip-path="url(#p493ec1aada)">
     <use xlink:href="#mf1fe25687f" x="69.642976" y="289.947539" style="stroke: #000000"/>
     <use xlink:href="#mf1fe25687f" x="74.388247" y="506.425398" style="stroke: #000000"/>
     <use xlink:href="#mf1fe25687f" x="79.133518" y="381.279169" style="stroke: #000000"/>
     <use xlink:href="#mf1fe25687f" x="83.878789" y="238.938162" style="stroke: #000000"/>
     <use xlink:href="#mf1fe25687f" x="88.62406" y="466.221491" style="stroke: #000000"/>
     <use xlink:href="#mf1fe25687f" x="93.369331" y="365.198025" style="stroke: #000000"/>
     <use xlink:href="#mf1fe25687f" x="98.114602" y="440.933761" style="stroke: #000000"/>
     <use xlink:href="#mf1fe25687f" x="102.859873" y="303.806322" style="stroke: #000000"/>
     <use xlink:href="#mf1fe25687f" x="107.605143" y="376.87446" style="stroke: #000000"/>
     <use xlink:href="#mf1fe25687f" x="112.350414" y="415.7952" style="stroke: #000000"/>
     <use xlink:href="#mf1fe25687f" x="117.095685" y="425.003464" style="stroke: #000000"/>
     <use xlink:href="#mf1fe25687f" x="121.840956" y="412.32199" style="stroke: #000000"/>
     <use xlink:href="#mf1fe25687f" x="126.586227" y="353.514218" style="stroke: #000000"/>
     <use xlink:href="#mf1fe25687f" x="131.331498" y="397.954782" style="stroke: #000000"/>
     <use xlink:href="#mf1fe25687f" x="136.076769" y="371.523541" style="stroke: #000000"/>
     <use xlink:href="#mf1fe25687f" x="140.82204" y="363.273465" style="stroke: #000000"/>
     <use xlink:href="#mf1fe25687f" x="145.567311" y="374.697397" style="stroke: #000000"/>
     <use xlink:href="#mf1fe25687f" x="150.312581" y="366.360525" style="stroke: #000000"/>
     <use xlink:href="#mf1fe25687f" x="155.057852" y="385.321332" style="stroke: #000000"/>
     <use xlink:href="#mf1fe25687f" x="159.803123" y="309.822082" style="stroke: #000000"/>
     <use xlink:href="#mf1fe25687f" x="164.548394" y="315.282458" style="stroke: #000000"/>
     <use xlink:href="#mf1fe25687f" x="169.293665" y="341.852728" style="stroke: #000000"/>
     <use xlink:href="#mf1fe25687f" x="174.038936" y="311.500456" style="stroke: #000000"/>
     <use xlink:href="#mf1fe25687f" x="178.784207" y="341.656713" style="stroke: #000000"/>
     <use xlink:href="#mf1fe25687f" x="183.529478" y="303.588993" style="stroke: #000000"/>
     <use xlink:href="#mf1fe25687f" x="188.274749" y="299.818312" style="stroke: #000000"/>
     <use xlink:href="#mf1fe25687f" x="193.02002" y="330.055752" style="stroke: #000000"/>
     <use xlink:href="#mf1fe25687f" x="197.76529" y="327.008178" style="stroke: #000000"/>
     <use xlink:href="#mf1fe25687f" x="202.510561" y="300.669357" style="stroke: #000000"/>
     <use xlink:href="#mf1fe25687f" x="207.255832" y="273.337163" style="stroke: #000000"/>
     <use xlink:href="#mf1fe25687f" x="212.001103" y="302.80901" style="stroke: #000000"/>
     <use xlink:href="#mf1fe25687f" x="216.746374" y="320.900869" style="stroke: #000000"/>
     <use xlink:href="#mf1fe25687f" x="221.491645" y="297.282802" style="stroke: #000000"/>
     <use xlink:href="#mf1fe25687f" x="226.236916" y="263.985122" style="stroke: #000000"/>
     <use xlink:href="#mf1fe25687f" x="230.982187" y="276.096327" style="stroke: #000000"/>
     <use xlink:href="#mf1fe25687f" x="235.727458" y="285.724806" style="stroke: #000000"/>
     <use xlink:href="#mf1fe25687f" x="240.472728" y="269.796246" style="stroke: #000000"/>
     <use xlink:href="#mf1fe25687f" x="245.217999" y="269.024565" style="stroke: #000000"/>
     <use xlink:href="#mf1fe25687f" x="249.96327" y="257.409262" style="stroke: #000000"/>
     <use xlink:href="#mf1fe25687f" x="254.708541" y="256.212321" style="stroke: #000000"/>
     <use xlink:href="#mf1fe25687f" x="259.453812" y="276.425101" style="stroke: #000000"/>
     <use xlink:href="#mf1fe25687f" x="264.199083" y="251.453206" style="stroke: #000000"/>
     <use xlink:href="#mf1fe25687f" x="268.944354" y="245.099396" style="stroke: #000000"/>
     <use xlink:href="#mf1fe25687f" x="273.689625" y="218.956926" style="stroke: #000000"/>
     <use xlink:href="#mf1fe25687f" x="278.434896" y="258.351734" style="stroke: #000000"/>
     <use xlink:href="#mf1fe25687f" x="283.180166" y="188.811249" style="stroke: #000000"/>
     <use xlink:href="#mf1fe25687f" x="287.925437" y="234.958659" style="stroke: #000000"/>
     <use xlink:href="#mf1fe25687f" x="292.670708" y="240.908741" style="stroke: #000000"/>
     <use xlink:href="#mf1fe25687f" x="297.415979" y="239.204118" style="stroke: #000000"/>
     <use xlink:href="#mf1fe25687f" x="302.16125" y="211.878256" style="stroke: #000000"/>
     <use xlink:href="#mf1fe25687f" x="306.906521" y="206.991893" style="stroke: #000000"/>
     <use xlink:href="#mf1fe25687f" x="311.651792" y="145.441071" style="stroke: #000000"/>
     <use xlink:href="#mf1fe25687f" x="316.397063" y="200.261128" style="stroke: #000000"/>
     <use xlink:href="#mf1fe25687f" x="321.142334" y="178.923947" style="stroke: #000000"/>
     <use xlink:href="#mf1fe25687f" x="325.887604" y="197.560944" style="stroke: #000000"/>
     <use xlink:href="#mf1fe25687f" x="330.632875" y="150.326941" style="stroke: #000000"/>
     <use xlink:href="#mf1fe25687f" x="335.378146" y="182.698961" style="stroke: #000000"/>
     <use xlink:href="#mf1fe25687f" x="340.123417" y="185.07489" style="stroke: #000000"/>
     <use xlink:href="#mf1fe25687f" x="344.868688" y="198.105746" style="stroke: #000000"/>
     <use xlink:href="#mf1fe25687f" x="349.613959" y="160.864132" style="stroke: #000000"/>
     <use xlink:href="#mf1fe25687f" x="354.35923" y="162.57894" style="stroke: #000000"/>
     <use xlink:href="#mf1fe25687f" x="359.104501" y="169.341188" style="stroke: #000000"/>
     <use xlink:href="#mf1fe25687f" x="363.849772" y="152.890048" style="stroke: #000000"/>
     <use xlink:href="#mf1fe25687f" x="368.595042" y="131.587654" style="stroke: #000000"/>
     <use xlink:href="#mf1fe25687f" x="373.340313" y="169.999187" style="stroke: #000000"/>
     <use xlink:href="#mf1fe25687f" x="378.085584" y="143.118268" style="stroke: #000000"/>
     <use xlink:href="#mf1fe25687f" x="382.830855" y="138.521656" style="stroke: #000000"/>
     <use xlink:href="#mf1fe25687f" x="387.576126" y="119.444156" style="stroke: #000000"/>
     <use xlink:href="#mf1fe25687f" x="392.321397" y="139.839667" style="stroke: #000000"/>
     <use xlink:href="#mf1fe25687f" x="397.066668" y="157.273945" style="stroke: #000000"/>
     <use xlink:href="#mf1fe25687f" x="401.811939" y="123.820053" style="stroke: #000000"/>
     <use xlink:href="#mf1fe25687f" x="406.55721" y="135.696673" style="stroke: #000000"/>
     <use xlink:href="#mf1fe25687f" x="411.30248" y="158.092187" style="stroke: #000000"/>
     <use xlink:href="#mf1fe25687f" x="416.047751" y="156.334651" style="stroke: #000000"/>
     <use xlink:href="#mf1fe25687f" x="420.793022" y="120.920751" style="stroke: #000000"/>
     <use xlink:href="#mf1fe25687f" x="425.538293" y="115.126743" style="stroke: #000000"/>
     <use xlink:href="#mf1fe25687f" x="430.283564" y="116.932373" style="stroke: #000000"/>
     <use xlink:href="#mf1fe25687f" x="435.028835" y="113.086344" style="stroke: #000000"/>
     <use xlink:href="#mf1fe25687f" x="439.774106" y="108.53862" style="stroke: #000000"/>
     <use xlink:href="#mf1fe25687f" x="444.519377" y="59.196822" style="stroke: #000000"/>
     <use xlink:href="#mf1fe25687f" x="449.264648" y="123.916541" style="stroke: #000000"/>
     <use xlink:href="#mf1fe25687f" x="454.009919" y="116.931943" style="stroke: #000000"/>
     <use xlink:href="#mf1fe25687f" x="458.755189" y="98.222132" style="stroke: #000000"/>
     <use xlink:href="#mf1fe25687f" x="463.50046" y="61.504239" style="stroke: #000000"/>
     <use xlink:href="#mf1fe25687f" x="468.245731" y="104.602961" style="stroke: #000000"/>
     <use xlink:href="#mf1fe25687f" x="472.991002" y="98.223544" style="stroke: #000000"/>
     <use xlink:href="#mf1fe25687f" x="477.736273" y="96.504149" style="stroke: #000000"/>
     <use xlink:href="#mf1fe25687f" x="482.481544" y="64.584807" style="stroke: #000000"/>
     <use xlink:href="#mf1fe25687f" x="487.226815" y="74.917492" style="stroke: #000000"/>
     <use xlink:href="#mf1fe25687f" x="491.972086" y="78.335432" style="stroke: #000000"/>
     <use xlink:href="#mf1fe25687f" x="496.717357" y="47.685642" style="stroke: #000000"/>
     <use xlink:href="#mf1fe25687f" x="501.462627" y="71.229058" style="stroke: #000000"/>
     <use xlink:href="#mf1fe25687f" x="506.207898" y="80.138973" style="stroke: #000000"/>
     <use xlink:href="#mf1fe25687f" x="510.953169" y="61.064451" style="stroke: #000000"/>
     <use xlink:href="#mf1fe25687f" x="515.69844" y="60.636882" style="stroke: #000000"/>
     <use xlink:href="#mf1fe25687f" x="520.443711" y="69.944905" style="stroke: #000000"/>
     <use xlink:href="#mf1fe25687f" x="525.188982" y="45.370852" style="stroke: #000000"/>
     <use xlink:href="#mf1fe25687f" x="529.934253" y="51.583544" style="stroke: #000000"/>
     <use xlink:href="#mf1fe25687f" x="534.679524" y="46.259772" style="stroke: #000000"/>
    </g>
   </g>
   <g id="line2d_16">
    <path d="M 67.270341 391.201849 
L 76.857725 390.676339 
L 86.445109 389.10759 
L 96.032493 386.518683 
L 105.619877 382.947217 
L 115.207261 378.444052 
L 124.794645 373.071655 
L 134.382029 366.902104 
L 143.969413 360.014895 
L 153.556797 352.494611 
L 163.144181 344.428593 
L 172.731565 335.904701 
L 182.318949 327.00924 
L 191.906333 317.825148 
L 201.493718 308.430466 
L 211.081102 298.89715 
L 220.668486 289.290203 
L 230.25587 279.66716 
L 239.843254 270.077854 
L 249.430638 260.564474 
L 259.018022 251.161839 
L 268.605406 241.897853 
L 278.19279 232.7941 
L 287.780174 223.866507 
L 297.367558 215.126071 
L 306.954942 206.579572 
L 316.542326 198.23028 
L 326.12971 190.078607 
L 335.717094 182.122706 
L 345.304478 174.358996 
L 354.891862 166.782618 
L 364.479246 159.387818 
L 374.06663 152.168261 
L 383.654014 145.117286 
L 393.241398 138.228097 
L 402.828782 131.493916 
L 412.416167 124.908094 
L 422.003551 118.46418 
L 431.590935 112.15598 
L 441.178319 105.97758 
L 450.765703 99.923367 
L 460.353087 93.988027 
L 469.940471 88.166545 
L 479.527855 82.454195 
L 489.115239 76.846525 
L 498.702623 71.339343 
L 508.290007 65.928702 
L 517.877391 60.610886 
L 527.464775 55.38239 
L 537.052159 50.239909 
" clip-path="url(#p493ec1aada)" style="fill: none; stroke-dasharray: 5.55,2.4; stroke-dashoffset: 0; stroke: #440154; stroke-width: 1.5"/>
   </g>
   <g id="patch_3">
    <path d="M 43.78125 529.478125 
L 43.78125 22.318125 
" style="fill: none; stroke: #000000; stroke-width: 0.8; stroke-linejoin: miter; stroke-linecap: square"/>
   </g>
   <g id="patch_4">
    <path d="M 560.54125 529.478125 
L 560.54125 22.318125 
" style="fill: none; stroke: #000000; stroke-width: 0.8; stroke-linejoin: miter; stroke-linecap: square"/>
   </g>
   <g id="patch_5">
    <path d="M 43.78125 529.478125 
L 560.54125 529.478125 
" style="fill: none; stroke: #000000; stroke-width: 0.8; stroke-linejoin: miter; stroke-linecap: square"/>
   </g>
   <g id="patch_6">
    <path d="M 43.78125 22.318125 
L 560.54125 22.318125 
" style="fill: none; stroke: #000000; stroke-width: 0.8; stroke-linejoin: miter; stroke-linecap: square"/>
   </g>
   <g id="text_17">
    <!-- Variogram: Isotropic -->
    <g transform="translate(241.618437 16.318125) scale(0.12 -0.12)">
     <defs>
      <path id="DejaVuSans-56" d="M 1831 0 
L 50 4666 
L 709 4666 
L 2188 738 
L 3669 4666 
L 4325 4666 
L 2547 0 
L 1831 0 
z
" transform="scale(0.015625)"/>
      <path id="DejaVuSans-72" d="M 2631 2963 
Q 2534 3019 2420 3045 
Q 2306 3072 2169 3072 
Q 1681 3072 1420 2755 
Q 1159 2438 1159 1844 
L 1159 0 
L 581 0 
L 581 3500 
L 1159 3500 
L 1159 2956 
Q 1341 3275 1631 3429 
Q 1922 3584 2338 3584 
Q 2397 3584 2469 3576 
Q 2541 3569 2628 3553 
L 2631 2963 
z
" transform="scale(0.015625)"/>
      <path id="DejaVuSans-6f" d="M 1959 3097 
Q 1497 3097 1228 2736 
Q 959 2375 959 1747 
Q 959 1119 1226 758 
Q 1494 397 1959 397 
Q 2419 397 2687 759 
Q 2956 1122 2956 1747 
Q 2956 2369 2687 2733 
Q 2419 3097 1959 3097 
z
M 1959 3584 
Q 2709 3584 3137 3096 
Q 3566 2609 3566 1747 
Q 3566 888 3137 398 
Q 2709 -91 1959 -91 
Q 1206 -91 779 398 
Q 353 888 353 1747 
Q 353 2609 779 3096 
Q 1206 3584 1959 3584 
z
" transform="scale(0.015625)"/>
      <path id="DejaVuSans-67" d="M 2906 1791 
Q 2906 2416 2648 2759 
Q 2391 3103 1925 3103 
Q 1463 3103 1205 2759 
Q 947 2416 947 1791 
Q 947 1169 1205 825 
Q 1463 481 1925 481 
Q 2391 481 2648 825 
Q 2906 1169 2906 1791 
z
M 3481 434 
Q 3481 -459 3084 -895 
Q 2688 -1331 1869 -1331 
Q 1566 -1331 1297 -1286 
Q 1028 -1241 775 -1147 
L 775 -588 
Q 1028 -725 1275 -790 
Q 1522 -856 1778 -856 
Q 2344 -856 2625 -561 
Q 2906 -266 2906 331 
L 2906 616 
Q 2728 306 2450 153 
Q 2172 0 1784 0 
Q 1141 0 747 490 
Q 353 981 353 1791 
Q 353 2603 747 3093 
Q 1141 3584 1784 3584 
Q 2172 3584 2450 3431 
Q 2728 3278 2906 2969 
L 2906 3500 
L 3481 3500 
L 3481 434 
z
" transform="scale(0.015625)"/>
      <path id="DejaVuSans-6d" d="M 3328 2828 
Q 3544 3216 3844 3400 
Q 4144 3584 4550 3584 
Q 5097 3584 5394 3201 
Q 5691 2819 5691 2113 
L 5691 0 
L 5113 0 
L 5113 2094 
Q 5113 2597 4934 2840 
Q 4756 3084 4391 3084 
Q 3944 3084 3684 2787 
Q 3425 2491 3425 1978 
L 3425 0 
L 2847 0 
L 2847 2094 
Q 2847 2600 2669 2842 
Q 2491 3084 2119 3084 
Q 1678 3084 1418 2786 
Q 1159 2488 1159 1978 
L 1159 0 
L 581 0 
L 581 3500 
L 1159 3500 
L 1159 2956 
Q 1356 3278 1631 3431 
Q 1906 3584 2284 3584 
Q 2666 3584 2933 3390 
Q 3200 3197 3328 2828 
z
" transform="scale(0.015625)"/>
      <path id="DejaVuSans-3a" d="M 750 794 
L 1409 794 
L 1409 0 
L 750 0 
L 750 794 
z
M 750 3309 
L 1409 3309 
L 1409 2516 
L 750 2516 
L 750 3309 
z
" transform="scale(0.015625)"/>
      <path id="DejaVuSans-20" transform="scale(0.015625)"/>
      <path id="DejaVuSans-49" d="M 628 4666 
L 1259 4666 
L 1259 0 
L 628 0 
L 628 4666 
z
" transform="scale(0.015625)"/>
      <path id="DejaVuSans-70" d="M 1159 525 
L 1159 -1331 
L 581 -1331 
L 581 3500 
L 1159 3500 
L 1159 2969 
Q 1341 3281 1617 3432 
Q 1894 3584 2278 3584 
Q 2916 3584 3314 3078 
Q 3713 2572 3713 1747 
Q 3713 922 3314 415 
Q 2916 -91 2278 -91 
Q 1894 -91 1617 61 
Q 1341 213 1159 525 
z
M 3116 1747 
Q 3116 2381 2855 2742 
Q 2594 3103 2138 3103 
Q 1681 3103 1420 2742 
Q 1159 2381 1159 1747 
Q 1159 1113 1420 752 
Q 1681 391 2138 391 
Q 2594 391 2855 752 
Q 3116 1113 3116 1747 
z
" transform="scale(0.015625)"/>
     </defs>
     <use xlink:href="#DejaVuSans-56"/>
     <use xlink:href="#DejaVuSans-61" x="60.658203"/>
     <use xlink:href="#DejaVuSans-72" x="121.9375"/>
     <use xlink:href="#DejaVuSans-69" x="163.050781"/>
     <use xlink:href="#DejaVuSans-6f" x="190.833984"/>
     <use xlink:href="#DejaVuSans-67" x="252.015625"/>
     <use xlink:href="#DejaVuSans-72" x="315.492188"/>
     <use xlink:href="#DejaVuSans-61" x="356.605469"/>
     <use xlink:href="#DejaVuSans-6d" x="417.884766"/>
     <use xlink:href="#DejaVuSans-3a" x="515.296875"/>
     <use xlink:href="#DejaVuSans-20" x="548.988281"/>
     <use xlink:href="#DejaVuSans-49" x="580.775391"/>
     <use xlink:href="#DejaVuSans-73" x="610.267578"/>
     <use xlink:href="#DejaVuSans-6f" x="662.367188"/>
     <use xlink:href="#DejaVuSans-74" x="723.548828"/>
     <use xlink:href="#DejaVuSans-72" x="762.757812"/>
     <use xlink:href="#DejaVuSans-6f" x="801.621094"/>
     <use xlink:href="#DejaVuSans-70" x="862.802734"/>
     <use xlink:href="#DejaVuSans-69" x="926.279297"/>
     <use xlink:href="#DejaVuSans-63" x="954.0625"/>
    </g>
   </g>
   <g id="legend_1">
    <g id="patch_7">
     <path d="M 49.61225 62.763659 
L 118.349067 62.763659 
Q 120.015067 62.763659 120.015067 61.097659 
L 120.015067 28.149125 
Q 120.015067 26.483125 118.349067 26.483125 
L 49.61225 26.483125 
Q 47.94625 26.483125 47.94625 28.149125 
L 47.94625 61.097659 
Q 47.94625 62.763659 49.61225 62.763659 
z
" style="fill: #ffffff; opacity: 0.8; stroke: #cccccc; stroke-linejoin: miter"/>
    </g>
    <g id="line2d_17">
     <g>
      <use xlink:href="#mf1fe25687f" x="59.60825" y="33.229123" style="stroke: #000000"/>
     </g>
    </g>
    <g id="text_18">
     <!-- Estimated -->
     <g transform="translate(74.60225 36.144623) scale(0.0833 -0.0833)">
      <defs>
       <path id="DejaVuSans-45" d="M 628 4666 
L 3578 4666 
L 3578 4134 
L 1259 4134 
L 1259 2753 
L 3481 2753 
L 3481 2222 
L 1259 2222 
L 1259 531 
L 3634 531 
L 3634 0 
L 628 0 
L 628 4666 
z
" transform="scale(0.015625)"/>
       <path id="DejaVuSans-64" d="M 2906 2969 
L 2906 4863 
L 3481 4863 
L 3481 0 
L 2906 0 
L 2906 525 
Q 2725 213 2448 61 
Q 2172 -91 1784 -91 
Q 1150 -91 751 415 
Q 353 922 353 1747 
Q 353 2572 751 3078 
Q 1150 3584 1784 3584 
Q 2172 3584 2448 3432 
Q 2725 3281 2906 2969 
z
M 947 1747 
Q 947 1113 1208 752 
Q 1469 391 1925 391 
Q 2381 391 2643 752 
Q 2906 1113 2906 1747 
Q 2906 2381 2643 2742 
Q 2381 3103 1925 3103 
Q 1469 3103 1208 2742 
Q 947 2381 947 1747 
z
" transform="scale(0.015625)"/>
      </defs>
      <use xlink:href="#DejaVuSans-45"/>
      <use xlink:href="#DejaVuSans-73" x="63.183594"/>
      <use xlink:href="#DejaVuSans-74" x="115.283203"/>
      <use xlink:href="#DejaVuSans-69" x="154.492188"/>
      <use xlink:href="#DejaVuSans-6d" x="182.275391"/>
      <use xlink:href="#DejaVuSans-61" x="279.6875"/>
      <use xlink:href="#DejaVuSans-74" x="340.966797"/>
      <use xlink:href="#DejaVuSans-65" x="380.175781"/>
      <use xlink:href="#DejaVuSans-64" x="441.699219"/>
     </g>
    </g>
    <g id="line2d_18">
     <path d="M 51.27825 50.98608 
L 59.60825 50.98608 
L 67.93825 50.98608 
" style="fill: none; stroke-dasharray: 5.55,2.4; stroke-dashoffset: 0; stroke: #440154; stroke-width: 1.5"/>
    </g>
    <g id="text_19">
     <!-- TLPSTable -->
     <g transform="translate(74.60225 48.371502) scale(0.0833 -0.0833)">
      <defs>
       <path id="DejaVuSans-54" d="M -19 4666 
L 3928 4666 
L 3928 4134 
L 2272 4134 
L 2272 0 
L 1638 0 
L 1638 4134 
L -19 4134 
L -19 4666 
z
" transform="scale(0.015625)"/>
       <path id="DejaVuSans-4c" d="M 628 4666 
L 1259 4666 
L 1259 531 
L 3531 531 
L 3531 0 
L 628 0 
L 628 4666 
z
" transform="scale(0.015625)"/>
       <path id="DejaVuSans-50" d="M 1259 4147 
L 1259 2394 
L 2053 2394 
Q 2494 2394 2734 2622 
Q 2975 2850 2975 3272 
Q 2975 3691 2734 3919 
Q 2494 4147 2053 4147 
L 1259 4147 
z
M 628 4666 
L 2053 4666 
Q 2838 4666 3239 4311 
Q 3641 3956 3641 3272 
Q 3641 2581 3239 2228 
Q 2838 1875 2053 1875 
L 1259 1875 
L 1259 0 
L 628 0 
L 628 4666 
z
" transform="scale(0.015625)"/>
       <path id="DejaVuSans-53" d="M 3425 4513 
L 3425 3897 
Q 3066 4069 2747 4153 
Q 2428 4238 2131 4238 
Q 1616 4238 1336 4038 
Q 1056 3838 1056 3469 
Q 1056 3159 1242 3001 
Q 1428 2844 1947 2747 
L 2328 2669 
Q 3034 2534 3370 2195 
Q 3706 1856 3706 1288 
Q 3706 609 3251 259 
Q 2797 -91 1919 -91 
Q 1588 -91 1214 -16 
Q 841 59 441 206 
L 441 856 
Q 825 641 1194 531 
Q 1563 422 1919 422 
Q 2459 422 2753 634 
Q 3047 847 3047 1241 
Q 3047 1584 2836 1778 
Q 2625 1972 2144 2069 
L 1759 2144 
Q 1053 2284 737 2584 
Q 422 2884 422 3419 
Q 422 4038 858 4394 
Q 1294 4750 2059 4750 
Q 2388 4750 2728 4690 
Q 3069 4631 3425 4513 
z
" transform="scale(0.015625)"/>
       <path id="DejaVuSans-62" d="M 3116 1747 
Q 3116 2381 2855 2742 
Q 2594 3103 2138 3103 
Q 1681 3103 1420 2742 
Q 1159 2381 1159 1747 
Q 1159 1113 1420 752 
Q 1681 391 2138 391 
Q 2594 391 2855 752 
Q 3116 1113 3116 1747 
z
M 1159 2969 
Q 1341 3281 1617 3432 
Q 1894 3584 2278 3584 
Q 2916 3584 3314 3078 
Q 3713 2572 3713 1747 
Q 3713 922 3314 415 
Q 2916 -91 2278 -91 
Q 1894 -91 1617 61 
Q 1341 213 1159 525 
L 1159 0 
L 581 0 
L 581 4863 
L 1159 4863 
L 1159 2969 
z
" transform="scale(0.015625)"/>
       <path id="DejaVuSans-6c" d="M 603 4863 
L 1178 4863 
L 1178 0 
L 603 0 
L 603 4863 
z
" transform="scale(0.015625)"/>
      </defs>
      <use xlink:href="#DejaVuSans-54"/>
      <use xlink:href="#DejaVuSans-4c" x="61.083984"/>
      <use xlink:href="#DejaVuSans-50" x="116.796875"/>
      <use xlink:href="#DejaVuSans-53" x="177.099609"/>
      <use xlink:href="#DejaVuSans-54" x="240.576172"/>
      <use xlink:href="#DejaVuSans-61" x="285.160156"/>
      <use xlink:href="#DejaVuSans-62" x="346.439453"/>
      <use xlink:href="#DejaVuSans-6c" x="409.916016"/>
      <use xlink:href="#DejaVuSans-65" x="437.699219"/>
     </g>
     <!-- $r^2$ = 0.92 -->
     <g transform="translate(74.60225 57.699279) scale(0.0833 -0.0833)">
      <defs>
       <path id="DejaVuSans-Oblique-72" d="M 2853 2969 
Q 2766 3016 2653 3041 
Q 2541 3066 2413 3066 
Q 1953 3066 1609 2717 
Q 1266 2369 1153 1784 
L 800 0 
L 225 0 
L 909 3500 
L 1484 3500 
L 1375 2956 
Q 1603 3259 1920 3421 
Q 2238 3584 2597 3584 
Q 2691 3584 2781 3573 
Q 2872 3563 2963 3538 
L 2853 2969 
z
" transform="scale(0.015625)"/>
       <path id="DejaVuSans-3d" d="M 678 2906 
L 4684 2906 
L 4684 2381 
L 678 2381 
L 678 2906 
z
M 678 1631 
L 4684 1631 
L 4684 1100 
L 678 1100 
L 678 1631 
z
" transform="scale(0.015625)"/>
       <path id="DejaVuSans-39" d="M 703 97 
L 703 672 
Q 941 559 1184 500 
Q 1428 441 1663 441 
Q 2288 441 2617 861 
Q 2947 1281 2994 2138 
Q 2813 1869 2534 1725 
Q 2256 1581 1919 1581 
Q 1219 1581 811 2004 
Q 403 2428 403 3163 
Q 403 3881 828 4315 
Q 1253 4750 1959 4750 
Q 2769 4750 3195 4129 
Q 3622 3509 3622 2328 
Q 3622 1225 3098 567 
Q 2575 -91 1691 -91 
Q 1453 -91 1209 -44 
Q 966 3 703 97 
z
M 1959 2075 
Q 2384 2075 2632 2365 
Q 2881 2656 2881 3163 
Q 2881 3666 2632 3958 
Q 2384 4250 1959 4250 
Q 1534 4250 1286 3958 
Q 1038 3666 1038 3163 
Q 1038 2656 1286 2365 
Q 1534 2075 1959 2075 
z
" transform="scale(0.015625)"/>
      </defs>
      <use xlink:href="#DejaVuSans-Oblique-72" transform="translate(0 0.765625)"/>
      <use xlink:href="#DejaVuSans-32" transform="translate(45.763177 39.046875) scale(0.7)"/>
      <use xlink:href="#DejaVuSans-20" transform="translate(93.033685 0.765625)"/>
      <use xlink:href="#DejaVuSans-3d" transform="translate(124.820794 0.765625)"/>
      <use xlink:href="#DejaVuSans-20" transform="translate(208.609857 0.765625)"/>
      <use xlink:href="#DejaVuSans-30" transform="translate(240.396966 0.765625)"/>
      <use xlink:href="#DejaVuSans-2e" transform="translate(304.020013 0.765625)"/>
      <use xlink:href="#DejaVuSans-39" transform="translate(335.807122 0.765625)"/>
      <use xlink:href="#DejaVuSans-32" transform="translate(397.680169 0.765625)"/>
     </g>
    </g>
   </g>
  </g>
 </g>
 <defs>
  <clipPath id="p493ec1aada">
   <rect x="43.78125" y="22.318125" width="516.76" height="507.16"/>
  </clipPath>
 </defs>
</svg>
