<?xml version="1.0" encoding="utf-8" standalone="no"?>
<!DOCTYPE svg PUBLIC "-//W3C//DTD SVG 1.1//EN"
  "http://www.w3.org/Graphics/SVG/1.1/DTD/svg11.dtd">
<svg xmlns:xlink="http://www.w3.org/1999/xlink" width="567.623125pt" height="566.125pt" viewBox="0 0 567.623125 566.125" xmlns="http://www.w3.org/2000/svg" version="1.1">
 <metadata>
  <rdf:RDF xmlns:dc="http://purl.org/dc/elements/1.1/" xmlns:cc="http://creativecommons.org/ns#" xmlns:rdf="http://www.w3.org/1999/02/22-rdf-syntax-ns#">
   <cc:Work>
    <dc:type rdf:resource="http://purl.org/dc/dcmitype/StillImage"/>
    <dc:date>2025-02-08T21:55:21.203257</dc:date>
    <dc:format>image/svg+xml</dc:format>
    <dc:creator>
     <cc:Agent>
      <dc:title>Matplotlib v3.9.3, https://matplotlib.org/</dc:title>
     </cc:Agent>
    </dc:creator>
   </cc:Work>
  </rdf:RDF>
 </metadata>
 <defs>
  <style type="text/css">*{stroke-linejoin: round; stroke-linecap: butt}</style>
 </defs>
 <g id="figure_1">
  <g id="patch_1">
   <path d="M 0 566.125 
L 567.623125 566.125 
L 567.623125 0 
L 0 0 
z
" style="fill: #ffffff"/>
  </g>
  <g id="axes_1">
   <g id="patch_2">
    <path d="M 40.603125 528.56875 
L 560.423125 528.56875 
L 560.423125 22.32 
L 40.603125 22.32 
z
" style="fill: #ffffff"/>
   </g>
   <g id="matplotlib.axis_1">
    <g id="xtick_1">
     <g id="line2d_1">
      <defs>
       <path id="m858cd87e5d" d="M 0 0 
L 0 3.5 
" style="stroke: #000000; stroke-width: 0.8"/>
      </defs>
      <g>
       <use xlink:href="#m858cd87e5d" x="64.231307" y="528.56875" style="stroke: #000000; stroke-width: 0.8"/>
      </g>
     </g>
     <g id="text_1">
      <!-- 0 -->
      <g transform="translate(61.050057 543.167187) scale(0.1 -0.1)">
       <defs>
        <path id="DejaVuSans-30" d="M 2034 4250 
Q 1547 4250 1301 3770 
Q 1056 3291 1056 2328 
Q 1056 1369 1301 889 
Q 1547 409 2034 409 
Q 2525 409 2770 889 
Q 3016 1369 3016 2328 
Q 3016 3291 2770 3770 
Q 2525 4250 2034 4250 
z
M 2034 4750 
Q 2819 4750 3233 4129 
Q 3647 3509 3647 2328 
Q 3647 1150 3233 529 
Q 2819 -91 2034 -91 
Q 1250 -91 836 529 
Q 422 1150 422 2328 
Q 422 3509 836 4129 
Q 1250 4750 2034 4750 
z
" transform="scale(0.015625)"/>
       </defs>
       <use xlink:href="#DejaVuSans-30"/>
      </g>
     </g>
    </g>
    <g id="xtick_2">
     <g id="line2d_2">
      <g>
       <use xlink:href="#m858cd87e5d" x="158.744034" y="528.56875" style="stroke: #000000; stroke-width: 0.8"/>
      </g>
     </g>
     <g id="text_2">
      <!-- 20 -->
      <g transform="translate(152.381534 543.167187) scale(0.1 -0.1)">
       <defs>
        <path id="DejaVuSans-32" d="M 1228 531 
L 3431 531 
L 3431 0 
L 469 0 
L 469 531 
Q 828 903 1448 1529 
Q 2069 2156 2228 2338 
Q 2531 2678 2651 2914 
Q 2772 3150 2772 3378 
Q 2772 3750 2511 3984 
Q 2250 4219 1831 4219 
Q 1534 4219 1204 4116 
Q 875 4013 500 3803 
L 500 4441 
Q 881 4594 1212 4672 
Q 1544 4750 1819 4750 
Q 2544 4750 2975 4387 
Q 3406 4025 3406 3419 
Q 3406 3131 3298 2873 
Q 3191 2616 2906 2266 
Q 2828 2175 2409 1742 
Q 1991 1309 1228 531 
z
" transform="scale(0.015625)"/>
       </defs>
       <use xlink:href="#DejaVuSans-32"/>
       <use xlink:href="#DejaVuSans-30" x="63.623047"/>
      </g>
     </g>
    </g>
    <g id="xtick_3">
     <g id="line2d_3">
      <g>
       <use xlink:href="#m858cd87e5d" x="253.256761" y="528.56875" style="stroke: #000000; stroke-width: 0.8"/>
      </g>
     </g>
     <g id="text_3">
      <!-- 40 -->
      <g transform="translate(246.894261 543.167187) scale(0.1 -0.1)">
       <defs>
        <path id="DejaVuSans-34" d="M 2419 4116 
L 825 1625 
L 2419 1625 
L 2419 4116 
z
M 2253 4666 
L 3047 4666 
L 3047 1625 
L 3713 1625 
L 3713 1100 
L 3047 1100 
L 3047 0 
L 2419 0 
L 2419 1100 
L 313 1100 
L 313 1709 
L 2253 4666 
z
" transform="scale(0.015625)"/>
       </defs>
       <use xlink:href="#DejaVuSans-34"/>
       <use xlink:href="#DejaVuSans-30" x="63.623047"/>
      </g>
     </g>
    </g>
    <g id="xtick_4">
     <g id="line2d_4">
      <g>
       <use xlink:href="#m858cd87e5d" x="347.769489" y="528.56875" style="stroke: #000000; stroke-width: 0.8"/>
      </g>
     </g>
     <g id="text_4">
      <!-- 60 -->
      <g transform="translate(341.406989 543.167187) scale(0.1 -0.1)">
       <defs>
        <path id="DejaVuSans-36" d="M 2113 2584 
Q 1688 2584 1439 2293 
Q 1191 2003 1191 1497 
Q 1191 994 1439 701 
Q 1688 409 2113 409 
Q 2538 409 2786 701 
Q 3034 994 3034 1497 
Q 3034 2003 2786 2293 
Q 2538 2584 2113 2584 
z
M 3366 4563 
L 3366 3988 
Q 3128 4100 2886 4159 
Q 2644 4219 2406 4219 
Q 1781 4219 1451 3797 
Q 1122 3375 1075 2522 
Q 1259 2794 1537 2939 
Q 1816 3084 2150 3084 
Q 2853 3084 3261 2657 
Q 3669 2231 3669 1497 
Q 3669 778 3244 343 
Q 2819 -91 2113 -91 
Q 1303 -91 875 529 
Q 447 1150 447 2328 
Q 447 3434 972 4092 
Q 1497 4750 2381 4750 
Q 2619 4750 2861 4703 
Q 3103 4656 3366 4563 
z
" transform="scale(0.015625)"/>
       </defs>
       <use xlink:href="#DejaVuSans-36"/>
       <use xlink:href="#DejaVuSans-30" x="63.623047"/>
      </g>
     </g>
    </g>
    <g id="xtick_5">
     <g id="line2d_5">
      <g>
       <use xlink:href="#m858cd87e5d" x="442.282216" y="528.56875" style="stroke: #000000; stroke-width: 0.8"/>
      </g>
     </g>
     <g id="text_5">
      <!-- 80 -->
      <g transform="translate(435.919716 543.167187) scale(0.1 -0.1)">
       <defs>
        <path id="DejaVuSans-38" d="M 2034 2216 
Q 1584 2216 1326 1975 
Q 1069 1734 1069 1313 
Q 1069 891 1326 650 
Q 1584 409 2034 409 
Q 2484 409 2743 651 
Q 3003 894 3003 1313 
Q 3003 1734 2745 1975 
Q 2488 2216 2034 2216 
z
M 1403 2484 
Q 997 2584 770 2862 
Q 544 3141 544 3541 
Q 544 4100 942 4425 
Q 1341 4750 2034 4750 
Q 2731 4750 3128 4425 
Q 3525 4100 3525 3541 
Q 3525 3141 3298 2862 
Q 3072 2584 2669 2484 
Q 3125 2378 3379 2068 
Q 3634 1759 3634 1313 
Q 3634 634 3220 271 
Q 2806 -91 2034 -91 
Q 1263 -91 848 271 
Q 434 634 434 1313 
Q 434 1759 690 2068 
Q 947 2378 1403 2484 
z
M 1172 3481 
Q 1172 3119 1398 2916 
Q 1625 2713 2034 2713 
Q 2441 2713 2670 2916 
Q 2900 3119 2900 3481 
Q 2900 3844 2670 4047 
Q 2441 4250 2034 4250 
Q 1625 4250 1398 4047 
Q 1172 3844 1172 3481 
z
" transform="scale(0.015625)"/>
       </defs>
       <use xlink:href="#DejaVuSans-38"/>
       <use xlink:href="#DejaVuSans-30" x="63.623047"/>
      </g>
     </g>
    </g>
    <g id="xtick_6">
     <g id="line2d_6">
      <g>
       <use xlink:href="#m858cd87e5d" x="536.794943" y="528.56875" style="stroke: #000000; stroke-width: 0.8"/>
      </g>
     </g>
     <g id="text_6">
      <!-- 100 -->
      <g transform="translate(527.251193 543.167187) scale(0.1 -0.1)">
       <defs>
        <path id="DejaVuSans-31" d="M 794 531 
L 1825 531 
L 1825 4091 
L 703 3866 
L 703 4441 
L 1819 4666 
L 2450 4666 
L 2450 531 
L 3481 531 
L 3481 0 
L 794 0 
L 794 531 
z
" transform="scale(0.015625)"/>
       </defs>
       <use xlink:href="#DejaVuSans-31"/>
       <use xlink:href="#DejaVuSans-30" x="63.623047"/>
       <use xlink:href="#DejaVuSans-30" x="127.246094"/>
      </g>
     </g>
    </g>
    <g id="text_7">
     <!-- Distance -->
     <g transform="translate(278.650625 556.845312) scale(0.1 -0.1)">
      <defs>
       <path id="DejaVuSans-44" d="M 1259 4147 
L 1259 519 
L 2022 519 
Q 2988 519 3436 956 
Q 3884 1394 3884 2338 
Q 3884 3275 3436 3711 
Q 2988 4147 2022 4147 
L 1259 4147 
z
M 628 4666 
L 1925 4666 
Q 3281 4666 3915 4102 
Q 4550 3538 4550 2338 
Q 4550 1131 3912 565 
Q 3275 0 1925 0 
L 628 0 
L 628 4666 
z
" transform="scale(0.015625)"/>
       <path id="DejaVuSans-69" d="M 603 3500 
L 1178 3500 
L 1178 0 
L 603 0 
L 603 3500 
z
M 603 4863 
L 1178 4863 
L 1178 4134 
L 603 4134 
L 603 4863 
z
" transform="scale(0.015625)"/>
       <path id="DejaVuSans-73" d="M 2834 3397 
L 2834 2853 
Q 2591 2978 2328 3040 
Q 2066 3103 1784 3103 
Q 1356 3103 1142 2972 
Q 928 2841 928 2578 
Q 928 2378 1081 2264 
Q 1234 2150 1697 2047 
L 1894 2003 
Q 2506 1872 2764 1633 
Q 3022 1394 3022 966 
Q 3022 478 2636 193 
Q 2250 -91 1575 -91 
Q 1294 -91 989 -36 
Q 684 19 347 128 
L 347 722 
Q 666 556 975 473 
Q 1284 391 1588 391 
Q 1994 391 2212 530 
Q 2431 669 2431 922 
Q 2431 1156 2273 1281 
Q 2116 1406 1581 1522 
L 1381 1569 
Q 847 1681 609 1914 
Q 372 2147 372 2553 
Q 372 3047 722 3315 
Q 1072 3584 1716 3584 
Q 2034 3584 2315 3537 
Q 2597 3491 2834 3397 
z
" transform="scale(0.015625)"/>
       <path id="DejaVuSans-74" d="M 1172 4494 
L 1172 3500 
L 2356 3500 
L 2356 3053 
L 1172 3053 
L 1172 1153 
Q 1172 725 1289 603 
Q 1406 481 1766 481 
L 2356 481 
L 2356 0 
L 1766 0 
Q 1100 0 847 248 
Q 594 497 594 1153 
L 594 3053 
L 172 3053 
L 172 3500 
L 594 3500 
L 594 4494 
L 1172 4494 
z
" transform="scale(0.015625)"/>
       <path id="DejaVuSans-61" d="M 2194 1759 
Q 1497 1759 1228 1600 
Q 959 1441 959 1056 
Q 959 750 1161 570 
Q 1363 391 1709 391 
Q 2188 391 2477 730 
Q 2766 1069 2766 1631 
L 2766 1759 
L 2194 1759 
z
M 3341 1997 
L 3341 0 
L 2766 0 
L 2766 531 
Q 2569 213 2275 61 
Q 1981 -91 1556 -91 
Q 1019 -91 701 211 
Q 384 513 384 1019 
Q 384 1609 779 1909 
Q 1175 2209 1959 2209 
L 2766 2209 
L 2766 2266 
Q 2766 2663 2505 2880 
Q 2244 3097 1772 3097 
Q 1472 3097 1187 3025 
Q 903 2953 641 2809 
L 641 3341 
Q 956 3463 1253 3523 
Q 1550 3584 1831 3584 
Q 2591 3584 2966 3190 
Q 3341 2797 3341 1997 
z
" transform="scale(0.015625)"/>
       <path id="DejaVuSans-6e" d="M 3513 2113 
L 3513 0 
L 2938 0 
L 2938 2094 
Q 2938 2591 2744 2837 
Q 2550 3084 2163 3084 
Q 1697 3084 1428 2787 
Q 1159 2491 1159 1978 
L 1159 0 
L 581 0 
L 581 3500 
L 1159 3500 
L 1159 2956 
Q 1366 3272 1645 3428 
Q 1925 3584 2291 3584 
Q 2894 3584 3203 3211 
Q 3513 2838 3513 2113 
z
" transform="scale(0.015625)"/>
       <path id="DejaVuSans-63" d="M 3122 3366 
L 3122 2828 
Q 2878 2963 2633 3030 
Q 2388 3097 2138 3097 
Q 1578 3097 1268 2742 
Q 959 2388 959 1747 
Q 959 1106 1268 751 
Q 1578 397 2138 397 
Q 2388 397 2633 464 
Q 2878 531 3122 666 
L 3122 134 
Q 2881 22 2623 -34 
Q 2366 -91 2075 -91 
Q 1284 -91 818 406 
Q 353 903 353 1747 
Q 353 2603 823 3093 
Q 1294 3584 2113 3584 
Q 2378 3584 2631 3529 
Q 2884 3475 3122 3366 
z
" transform="scale(0.015625)"/>
       <path id="DejaVuSans-65" d="M 3597 1894 
L 3597 1613 
L 953 1613 
Q 991 1019 1311 708 
Q 1631 397 2203 397 
Q 2534 397 2845 478 
Q 3156 559 3463 722 
L 3463 178 
Q 3153 47 2828 -22 
Q 2503 -91 2169 -91 
Q 1331 -91 842 396 
Q 353 884 353 1716 
Q 353 2575 817 3079 
Q 1281 3584 2069 3584 
Q 2775 3584 3186 3129 
Q 3597 2675 3597 1894 
z
M 3022 2063 
Q 3016 2534 2758 2815 
Q 2500 3097 2075 3097 
Q 1594 3097 1305 2825 
Q 1016 2553 972 2059 
L 3022 2063 
z
" transform="scale(0.015625)"/>
      </defs>
      <use xlink:href="#DejaVuSans-44"/>
      <use xlink:href="#DejaVuSans-69" x="77.001953"/>
      <use xlink:href="#DejaVuSans-73" x="104.785156"/>
      <use xlink:href="#DejaVuSans-74" x="156.884766"/>
      <use xlink:href="#DejaVuSans-61" x="196.09375"/>
      <use xlink:href="#DejaVuSans-6e" x="257.373047"/>
      <use xlink:href="#DejaVuSans-63" x="320.751953"/>
      <use xlink:href="#DejaVuSans-65" x="375.732422"/>
     </g>
    </g>
   </g>
   <g id="matplotlib.axis_2">
    <g id="ytick_1">
     <g id="line2d_7">
      <defs>
       <path id="mbff713c2ec" d="M 0 0 
L -3.5 0 
" style="stroke: #000000; stroke-width: 0.8"/>
      </defs>
      <g>
       <use xlink:href="#mbff713c2ec" x="40.603125" y="505.557443" style="stroke: #000000; stroke-width: 0.8"/>
      </g>
     </g>
     <g id="text_8">
      <!-- 0 -->
      <g transform="translate(27.240625 509.356662) scale(0.1 -0.1)">
       <use xlink:href="#DejaVuSans-30"/>
      </g>
     </g>
    </g>
    <g id="ytick_2">
     <g id="line2d_8">
      <g>
       <use xlink:href="#mbff713c2ec" x="40.603125" y="448.200683" style="stroke: #000000; stroke-width: 0.8"/>
      </g>
     </g>
     <g id="text_9">
      <!-- 2 -->
      <g transform="translate(27.240625 451.999902) scale(0.1 -0.1)">
       <use xlink:href="#DejaVuSans-32"/>
      </g>
     </g>
    </g>
    <g id="ytick_3">
     <g id="line2d_9">
      <g>
       <use xlink:href="#mbff713c2ec" x="40.603125" y="390.843923" style="stroke: #000000; stroke-width: 0.8"/>
      </g>
     </g>
     <g id="text_10">
      <!-- 4 -->
      <g transform="translate(27.240625 394.643142) scale(0.1 -0.1)">
       <use xlink:href="#DejaVuSans-34"/>
      </g>
     </g>
    </g>
    <g id="ytick_4">
     <g id="line2d_10">
      <g>
       <use xlink:href="#mbff713c2ec" x="40.603125" y="333.487163" style="stroke: #000000; stroke-width: 0.8"/>
      </g>
     </g>
     <g id="text_11">
      <!-- 6 -->
      <g transform="translate(27.240625 337.286382) scale(0.1 -0.1)">
       <use xlink:href="#DejaVuSans-36"/>
      </g>
     </g>
    </g>
    <g id="ytick_5">
     <g id="line2d_11">
      <g>
       <use xlink:href="#mbff713c2ec" x="40.603125" y="276.130403" style="stroke: #000000; stroke-width: 0.8"/>
      </g>
     </g>
     <g id="text_12">
      <!-- 8 -->
      <g transform="translate(27.240625 279.929622) scale(0.1 -0.1)">
       <use xlink:href="#DejaVuSans-38"/>
      </g>
     </g>
    </g>
    <g id="ytick_6">
     <g id="line2d_12">
      <g>
       <use xlink:href="#mbff713c2ec" x="40.603125" y="218.773643" style="stroke: #000000; stroke-width: 0.8"/>
      </g>
     </g>
     <g id="text_13">
      <!-- 10 -->
      <g transform="translate(20.878125 222.572862) scale(0.1 -0.1)">
       <use xlink:href="#DejaVuSans-31"/>
       <use xlink:href="#DejaVuSans-30" x="63.623047"/>
      </g>
     </g>
    </g>
    <g id="ytick_7">
     <g id="line2d_13">
      <g>
       <use xlink:href="#mbff713c2ec" x="40.603125" y="161.416883" style="stroke: #000000; stroke-width: 0.8"/>
      </g>
     </g>
     <g id="text_14">
      <!-- 12 -->
      <g transform="translate(20.878125 165.216102) scale(0.1 -0.1)">
       <use xlink:href="#DejaVuSans-31"/>
       <use xlink:href="#DejaVuSans-32" x="63.623047"/>
      </g>
     </g>
    </g>
    <g id="ytick_8">
     <g id="line2d_14">
      <g>
       <use xlink:href="#mbff713c2ec" x="40.603125" y="104.060123" style="stroke: #000000; stroke-width: 0.8"/>
      </g>
     </g>
     <g id="text_15">
      <!-- 14 -->
      <g transform="translate(20.878125 107.859342) scale(0.1 -0.1)">
       <use xlink:href="#DejaVuSans-31"/>
       <use xlink:href="#DejaVuSans-34" x="63.623047"/>
      </g>
     </g>
    </g>
    <g id="ytick_9">
     <g id="line2d_15">
      <g>
       <use xlink:href="#mbff713c2ec" x="40.603125" y="46.703363" style="stroke: #000000; stroke-width: 0.8"/>
      </g>
     </g>
     <g id="text_16">
      <!-- 16 -->
      <g transform="translate(20.878125 50.502582) scale(0.1 -0.1)">
       <use xlink:href="#DejaVuSans-31"/>
       <use xlink:href="#DejaVuSans-36" x="63.623047"/>
      </g>
     </g>
    </g>
    <g id="text_17">
     <!-- $\gamma$ -->
     <g transform="translate(14.778125 278.444375) rotate(-90) scale(0.1 -0.1)">
      <defs>
       <path id="DejaVuSans-Oblique-3b3" d="M 1491 2950 
L 1838 788 
L 3456 3500 
L 4066 3500 
L 1972 0 
L 1713 -1331 
L 1138 -1331 
L 1397 0 
L 988 2613 
Q 925 3006 628 3006 
L 475 3006 
L 569 3500 
L 788 3500 
Q 1403 3500 1491 2950 
z
" transform="scale(0.015625)"/>
      </defs>
      <use xlink:href="#DejaVuSans-Oblique-3b3" transform="translate(0 0.3125)"/>
     </g>
    </g>
   </g>
   <g id="line2d_16">
    <defs>
     <path id="maa423672c0" d="M 0 2 
C 0.530406 2 1.03916 1.789267 1.414214 1.414214 
C 1.789267 1.03916 2 0.530406 2 0 
C 2 -0.530406 1.789267 -1.03916 1.414214 -1.414214 
C 1.03916 -1.789267 0.530406 -2 0 -2 
C -0.530406 -2 -1.03916 -1.789267 -1.414214 -1.414214 
C -1.789267 -1.03916 -2 -0.530406 -2 0 
C -2 0.530406 -1.789267 1.03916 -1.414214 1.414214 
C -1.03916 1.789267 -0.530406 2 0 2 
z
" style="stroke: #000000"/>
    </defs>
    <g clip-path="url(#p9ceef471a5)">
     <use xlink:href="#maa423672c0" x="66.617992" y="505.557443" style="stroke: #000000"/>
     <use xlink:href="#maa423672c0" x="71.391362" y="505.557443" style="stroke: #000000"/>
     <use xlink:href="#maa423672c0" x="76.164732" y="505.557443" style="stroke: #000000"/>
     <use xlink:href="#maa423672c0" x="80.938102" y="502.295427" style="stroke: #000000"/>
     <use xlink:href="#maa423672c0" x="85.711472" y="491.160666" style="stroke: #000000"/>
     <use xlink:href="#maa423672c0" x="90.484842" y="505.557443" style="stroke: #000000"/>
     <use xlink:href="#maa423672c0" x="95.258212" y="505.557443" style="stroke: #000000"/>
     <use xlink:href="#maa423672c0" x="100.031582" y="486.929129" style="stroke: #000000"/>
     <use xlink:href="#maa423672c0" x="104.804952" y="45.331307" style="stroke: #000000"/>
     <use xlink:href="#maa423672c0" x="109.578322" y="499.775208" style="stroke: #000000"/>
     <use xlink:href="#maa423672c0" x="114.351692" y="447.671973" style="stroke: #000000"/>
     <use xlink:href="#maa423672c0" x="119.125063" y="500.347288" style="stroke: #000000"/>
     <use xlink:href="#maa423672c0" x="123.898433" y="502.41098" style="stroke: #000000"/>
     <use xlink:href="#maa423672c0" x="128.671803" y="495.003539" style="stroke: #000000"/>
     <use xlink:href="#maa423672c0" x="133.445173" y="473.27325" style="stroke: #000000"/>
     <use xlink:href="#maa423672c0" x="138.218543" y="491.515178" style="stroke: #000000"/>
     <use xlink:href="#maa423672c0" x="142.991913" y="487.74291" style="stroke: #000000"/>
     <use xlink:href="#maa423672c0" x="147.765283" y="470.332566" style="stroke: #000000"/>
     <use xlink:href="#maa423672c0" x="152.538653" y="465.393005" style="stroke: #000000"/>
     <use xlink:href="#maa423672c0" x="157.312023" y="492.16017" style="stroke: #000000"/>
     <use xlink:href="#maa423672c0" x="162.085393" y="491.73418" style="stroke: #000000"/>
     <use xlink:href="#maa423672c0" x="166.858763" y="483.62152" style="stroke: #000000"/>
     <use xlink:href="#maa423672c0" x="171.632133" y="479.523993" style="stroke: #000000"/>
     <use xlink:href="#maa423672c0" x="176.405503" y="498.801988" style="stroke: #000000"/>
     <use xlink:href="#maa423672c0" x="181.178873" y="493.149454" style="stroke: #000000"/>
     <use xlink:href="#maa423672c0" x="185.952243" y="482.923781" style="stroke: #000000"/>
     <use xlink:href="#maa423672c0" x="190.725614" y="489.406594" style="stroke: #000000"/>
     <use xlink:href="#maa423672c0" x="195.498984" y="486.450919" style="stroke: #000000"/>
     <use xlink:href="#maa423672c0" x="200.272354" y="497.132809" style="stroke: #000000"/>
     <use xlink:href="#maa423672c0" x="205.045724" y="486.652445" style="stroke: #000000"/>
     <use xlink:href="#maa423672c0" x="209.819094" y="487.60776" style="stroke: #000000"/>
     <use xlink:href="#maa423672c0" x="214.592464" y="492.722566" style="stroke: #000000"/>
     <use xlink:href="#maa423672c0" x="219.365834" y="494.83926" style="stroke: #000000"/>
     <use xlink:href="#maa423672c0" x="224.139204" y="484.91267" style="stroke: #000000"/>
     <use xlink:href="#maa423672c0" x="228.912574" y="486.510654" style="stroke: #000000"/>
     <use xlink:href="#maa423672c0" x="233.685944" y="488.614667" style="stroke: #000000"/>
     <use xlink:href="#maa423672c0" x="238.459314" y="491.022001" style="stroke: #000000"/>
     <use xlink:href="#maa423672c0" x="243.232684" y="477.916649" style="stroke: #000000"/>
     <use xlink:href="#maa423672c0" x="248.006054" y="483.120915" style="stroke: #000000"/>
     <use xlink:href="#maa423672c0" x="252.779424" y="489.335777" style="stroke: #000000"/>
     <use xlink:href="#maa423672c0" x="257.552794" y="487.337943" style="stroke: #000000"/>
     <use xlink:href="#maa423672c0" x="262.326164" y="484.709826" style="stroke: #000000"/>
     <use xlink:href="#maa423672c0" x="267.099535" y="476.41843" style="stroke: #000000"/>
     <use xlink:href="#maa423672c0" x="271.872905" y="481.557626" style="stroke: #000000"/>
     <use xlink:href="#maa423672c0" x="276.646275" y="479.460395" style="stroke: #000000"/>
     <use xlink:href="#maa423672c0" x="281.419645" y="475.430588" style="stroke: #000000"/>
     <use xlink:href="#maa423672c0" x="286.193015" y="481.70898" style="stroke: #000000"/>
     <use xlink:href="#maa423672c0" x="290.966385" y="478.523677" style="stroke: #000000"/>
     <use xlink:href="#maa423672c0" x="295.739755" y="483.396357" style="stroke: #000000"/>
     <use xlink:href="#maa423672c0" x="300.513125" y="469.66786" style="stroke: #000000"/>
     <use xlink:href="#maa423672c0" x="305.286495" y="471.247632" style="stroke: #000000"/>
     <use xlink:href="#maa423672c0" x="310.059865" y="474.063994" style="stroke: #000000"/>
     <use xlink:href="#maa423672c0" x="314.833235" y="467.86485" style="stroke: #000000"/>
     <use xlink:href="#maa423672c0" x="319.606605" y="474.43344" style="stroke: #000000"/>
     <use xlink:href="#maa423672c0" x="324.379975" y="478.406954" style="stroke: #000000"/>
     <use xlink:href="#maa423672c0" x="329.153345" y="472.484901" style="stroke: #000000"/>
     <use xlink:href="#maa423672c0" x="333.926715" y="469.210312" style="stroke: #000000"/>
     <use xlink:href="#maa423672c0" x="338.700086" y="467.462395" style="stroke: #000000"/>
     <use xlink:href="#maa423672c0" x="343.473456" y="469.111449" style="stroke: #000000"/>
     <use xlink:href="#maa423672c0" x="348.246826" y="472.527835" style="stroke: #000000"/>
     <use xlink:href="#maa423672c0" x="353.020196" y="469.720585" style="stroke: #000000"/>
     <use xlink:href="#maa423672c0" x="357.793566" y="473.625545" style="stroke: #000000"/>
     <use xlink:href="#maa423672c0" x="362.566936" y="466.949732" style="stroke: #000000"/>
     <use xlink:href="#maa423672c0" x="367.340306" y="474.226578" style="stroke: #000000"/>
     <use xlink:href="#maa423672c0" x="372.113676" y="473.53718" style="stroke: #000000"/>
     <use xlink:href="#maa423672c0" x="376.887046" y="471.190777" style="stroke: #000000"/>
     <use xlink:href="#maa423672c0" x="381.660416" y="470.97417" style="stroke: #000000"/>
     <use xlink:href="#maa423672c0" x="386.433786" y="464.818219" style="stroke: #000000"/>
     <use xlink:href="#maa423672c0" x="391.207156" y="471.478189" style="stroke: #000000"/>
     <use xlink:href="#maa423672c0" x="395.980526" y="476.443908" style="stroke: #000000"/>
     <use xlink:href="#maa423672c0" x="400.753896" y="464.309333" style="stroke: #000000"/>
     <use xlink:href="#maa423672c0" x="405.527266" y="474.031202" style="stroke: #000000"/>
     <use xlink:href="#maa423672c0" x="410.300636" y="472.757969" style="stroke: #000000"/>
     <use xlink:href="#maa423672c0" x="415.074007" y="468.118374" style="stroke: #000000"/>
     <use xlink:href="#maa423672c0" x="419.847377" y="475.208926" style="stroke: #000000"/>
     <use xlink:href="#maa423672c0" x="424.620747" y="454.555157" style="stroke: #000000"/>
     <use xlink:href="#maa423672c0" x="429.394117" y="466.717287" style="stroke: #000000"/>
     <use xlink:href="#maa423672c0" x="434.167487" y="471.179108" style="stroke: #000000"/>
     <use xlink:href="#maa423672c0" x="438.940857" y="453.088107" style="stroke: #000000"/>
     <use xlink:href="#maa423672c0" x="443.714227" y="461.508797" style="stroke: #000000"/>
     <use xlink:href="#maa423672c0" x="448.487597" y="465.049813" style="stroke: #000000"/>
     <use xlink:href="#maa423672c0" x="453.260967" y="469.226395" style="stroke: #000000"/>
     <use xlink:href="#maa423672c0" x="458.034337" y="468.409639" style="stroke: #000000"/>
     <use xlink:href="#maa423672c0" x="462.807707" y="460.434826" style="stroke: #000000"/>
     <use xlink:href="#maa423672c0" x="467.581077" y="468.607953" style="stroke: #000000"/>
     <use xlink:href="#maa423672c0" x="472.354447" y="461.685291" style="stroke: #000000"/>
     <use xlink:href="#maa423672c0" x="477.127817" y="461.011728" style="stroke: #000000"/>
     <use xlink:href="#maa423672c0" x="481.901187" y="464.284724" style="stroke: #000000"/>
     <use xlink:href="#maa423672c0" x="486.674558" y="467.877154" style="stroke: #000000"/>
     <use xlink:href="#maa423672c0" x="491.447928" y="462.914183" style="stroke: #000000"/>
     <use xlink:href="#maa423672c0" x="496.221298" y="464.922647" style="stroke: #000000"/>
     <use xlink:href="#maa423672c0" x="500.994668" y="465.01121" style="stroke: #000000"/>
     <use xlink:href="#maa423672c0" x="505.768038" y="462.071227" style="stroke: #000000"/>
     <use xlink:href="#maa423672c0" x="510.541408" y="457.781575" style="stroke: #000000"/>
     <use xlink:href="#maa423672c0" x="515.314778" y="469.463332" style="stroke: #000000"/>
     <use xlink:href="#maa423672c0" x="520.088148" y="462.081186" style="stroke: #000000"/>
     <use xlink:href="#maa423672c0" x="524.861518" y="455.197007" style="stroke: #000000"/>
     <use xlink:href="#maa423672c0" x="529.634888" y="462.697221" style="stroke: #000000"/>
     <use xlink:href="#maa423672c0" x="534.408258" y="461.596104" style="stroke: #000000"/>
    </g>
   </g>
   <g id="line2d_17">
    <path d="M 64.231307 493.757855 
L 73.875463 493.720983 
L 83.519619 493.610589 
L 93.163774 493.427334 
L 102.80793 493.172314 
L 112.452086 492.847049 
L 122.096242 492.453472 
L 131.740398 491.993905 
L 141.384554 491.471045 
L 151.028709 490.887937 
L 160.672865 490.247947 
L 170.317021 489.554732 
L 179.961177 488.812208 
L 189.605333 488.024518 
L 199.249489 487.195993 
L 208.893644 486.331121 
L 218.5378 485.434503 
L 228.181956 484.510818 
L 237.826112 483.564789 
L 247.470268 482.601141 
L 257.114424 481.624565 
L 266.75858 480.639686 
L 276.402735 479.651025 
L 286.046891 478.662974 
L 295.691047 477.679757 
L 305.335203 476.70541 
L 314.979359 475.743755 
L 324.623515 474.798375 
L 334.26767 473.8726 
L 343.911826 472.969487 
L 353.555982 472.091808 
L 363.200138 471.242042 
L 372.844294 470.422369 
L 382.48845 469.634665 
L 392.132606 468.8805 
L 401.776761 468.161145 
L 411.420917 467.477575 
L 421.065073 466.830477 
L 430.709229 466.220257 
L 440.353385 465.64706 
L 449.997541 465.110778 
L 459.641696 464.611066 
L 469.285852 464.147364 
L 478.930008 463.718911 
L 488.574164 463.324766 
L 498.21832 462.96383 
L 507.862476 462.634861 
L 517.506631 462.336502 
L 527.150787 462.067295 
L 536.794943 461.825703 
" clip-path="url(#p9ceef471a5)" style="fill: none; stroke-dasharray: 5.55,2.4; stroke-dashoffset: 0; stroke: #440154; stroke-width: 1.5"/>
   </g>
   <g id="patch_3">
    <path d="M 40.603125 528.56875 
L 40.603125 22.32 
" style="fill: none; stroke: #000000; stroke-width: 0.8; stroke-linejoin: miter; stroke-linecap: square"/>
   </g>
   <g id="patch_4">
    <path d="M 560.423125 528.56875 
L 560.423125 22.32 
" style="fill: none; stroke: #000000; stroke-width: 0.8; stroke-linejoin: miter; stroke-linecap: square"/>
   </g>
   <g id="patch_5">
    <path d="M 40.603125 528.56875 
L 560.423125 528.56875 
" style="fill: none; stroke: #000000; stroke-width: 0.8; stroke-linejoin: miter; stroke-linecap: square"/>
   </g>
   <g id="patch_6">
    <path d="M 40.603125 22.32 
L 560.423125 22.32 
" style="fill: none; stroke: #000000; stroke-width: 0.8; stroke-linejoin: miter; stroke-linecap: square"/>
   </g>
   <g id="text_18">
    <!-- Variogram: Diagonal\_XZ $[1,0,1]$ -->
    <g transform="translate(201.273125 16.32) scale(0.12 -0.12)">
     <defs>
      <path id="DejaVuSans-56" d="M 1831 0 
L 50 4666 
L 709 4666 
L 2188 738 
L 3669 4666 
L 4325 4666 
L 2547 0 
L 1831 0 
z
" transform="scale(0.015625)"/>
      <path id="DejaVuSans-72" d="M 2631 2963 
Q 2534 3019 2420 3045 
Q 2306 3072 2169 3072 
Q 1681 3072 1420 2755 
Q 1159 2438 1159 1844 
L 1159 0 
L 581 0 
L 581 3500 
L 1159 3500 
L 1159 2956 
Q 1341 3275 1631 3429 
Q 1922 3584 2338 3584 
Q 2397 3584 2469 3576 
Q 2541 3569 2628 3553 
L 2631 2963 
z
" transform="scale(0.015625)"/>
      <path id="DejaVuSans-6f" d="M 1959 3097 
Q 1497 3097 1228 2736 
Q 959 2375 959 1747 
Q 959 1119 1226 758 
Q 1494 397 1959 397 
Q 2419 397 2687 759 
Q 2956 1122 2956 1747 
Q 2956 2369 2687 2733 
Q 2419 3097 1959 3097 
z
M 1959 3584 
Q 2709 3584 3137 3096 
Q 3566 2609 3566 1747 
Q 3566 888 3137 398 
Q 2709 -91 1959 -91 
Q 1206 -91 779 398 
Q 353 888 353 1747 
Q 353 2609 779 3096 
Q 1206 3584 1959 3584 
z
" transform="scale(0.015625)"/>
      <path id="DejaVuSans-67" d="M 2906 1791 
Q 2906 2416 2648 2759 
Q 2391 3103 1925 3103 
Q 1463 3103 1205 2759 
Q 947 2416 947 1791 
Q 947 1169 1205 825 
Q 1463 481 1925 481 
Q 2391 481 2648 825 
Q 2906 1169 2906 1791 
z
M 3481 434 
Q 3481 -459 3084 -895 
Q 2688 -1331 1869 -1331 
Q 1566 -1331 1297 -1286 
Q 1028 -1241 775 -1147 
L 775 -588 
Q 1028 -725 1275 -790 
Q 1522 -856 1778 -856 
Q 2344 -856 2625 -561 
Q 2906 -266 2906 331 
L 2906 616 
Q 2728 306 2450 153 
Q 2172 0 1784 0 
Q 1141 0 747 490 
Q 353 981 353 1791 
Q 353 2603 747 3093 
Q 1141 3584 1784 3584 
Q 2172 3584 2450 3431 
Q 2728 3278 2906 2969 
L 2906 3500 
L 3481 3500 
L 3481 434 
z
" transform="scale(0.015625)"/>
      <path id="DejaVuSans-6d" d="M 3328 2828 
Q 3544 3216 3844 3400 
Q 4144 3584 4550 3584 
Q 5097 3584 5394 3201 
Q 5691 2819 5691 2113 
L 5691 0 
L 5113 0 
L 5113 2094 
Q 5113 2597 4934 2840 
Q 4756 3084 4391 3084 
Q 3944 3084 3684 2787 
Q 3425 2491 3425 1978 
L 3425 0 
L 2847 0 
L 2847 2094 
Q 2847 2600 2669 2842 
Q 2491 3084 2119 3084 
Q 1678 3084 1418 2786 
Q 1159 2488 1159 1978 
L 1159 0 
L 581 0 
L 581 3500 
L 1159 3500 
L 1159 2956 
Q 1356 3278 1631 3431 
Q 1906 3584 2284 3584 
Q 2666 3584 2933 3390 
Q 3200 3197 3328 2828 
z
" transform="scale(0.015625)"/>
      <path id="DejaVuSans-3a" d="M 750 794 
L 1409 794 
L 1409 0 
L 750 0 
L 750 794 
z
M 750 3309 
L 1409 3309 
L 1409 2516 
L 750 2516 
L 750 3309 
z
" transform="scale(0.015625)"/>
      <path id="DejaVuSans-20" transform="scale(0.015625)"/>
      <path id="DejaVuSans-6c" d="M 603 4863 
L 1178 4863 
L 1178 0 
L 603 0 
L 603 4863 
z
" transform="scale(0.015625)"/>
      <path id="DejaVuSans-5c" d="M 531 4666 
L 2156 -594 
L 1625 -594 
L 0 4666 
L 531 4666 
z
" transform="scale(0.015625)"/>
      <path id="DejaVuSans-5f" d="M 3263 -1063 
L 3263 -1509 
L -63 -1509 
L -63 -1063 
L 3263 -1063 
z
" transform="scale(0.015625)"/>
      <path id="DejaVuSans-58" d="M 403 4666 
L 1081 4666 
L 2241 2931 
L 3406 4666 
L 4084 4666 
L 2584 2425 
L 4184 0 
L 3506 0 
L 2194 1984 
L 872 0 
L 191 0 
L 1856 2491 
L 403 4666 
z
" transform="scale(0.015625)"/>
      <path id="DejaVuSans-5a" d="M 359 4666 
L 4025 4666 
L 4025 4184 
L 1075 531 
L 4097 531 
L 4097 0 
L 288 0 
L 288 481 
L 3238 4134 
L 359 4134 
L 359 4666 
z
" transform="scale(0.015625)"/>
      <path id="DejaVuSans-5b" d="M 550 4863 
L 1875 4863 
L 1875 4416 
L 1125 4416 
L 1125 -397 
L 1875 -397 
L 1875 -844 
L 550 -844 
L 550 4863 
z
" transform="scale(0.015625)"/>
      <path id="DejaVuSans-2c" d="M 750 794 
L 1409 794 
L 1409 256 
L 897 -744 
L 494 -744 
L 750 256 
L 750 794 
z
" transform="scale(0.015625)"/>
      <path id="DejaVuSans-5d" d="M 1947 4863 
L 1947 -844 
L 622 -844 
L 622 -397 
L 1369 -397 
L 1369 4416 
L 622 4416 
L 622 4863 
L 1947 4863 
z
" transform="scale(0.015625)"/>
     </defs>
     <use xlink:href="#DejaVuSans-56" transform="translate(0 0.015625)"/>
     <use xlink:href="#DejaVuSans-61" transform="translate(68.408203 0.015625)"/>
     <use xlink:href="#DejaVuSans-72" transform="translate(129.6875 0.015625)"/>
     <use xlink:href="#DejaVuSans-69" transform="translate(170.800781 0.015625)"/>
     <use xlink:href="#DejaVuSans-6f" transform="translate(198.583984 0.015625)"/>
     <use xlink:href="#DejaVuSans-67" transform="translate(259.765625 0.015625)"/>
     <use xlink:href="#DejaVuSans-72" transform="translate(323.242188 0.015625)"/>
     <use xlink:href="#DejaVuSans-61" transform="translate(364.355469 0.015625)"/>
     <use xlink:href="#DejaVuSans-6d" transform="translate(425.634766 0.015625)"/>
     <use xlink:href="#DejaVuSans-3a" transform="translate(521.296875 0.015625)"/>
     <use xlink:href="#DejaVuSans-20" transform="translate(554.988281 0.015625)"/>
     <use xlink:href="#DejaVuSans-44" transform="translate(586.775391 0.015625)"/>
     <use xlink:href="#DejaVuSans-69" transform="translate(663.777344 0.015625)"/>
     <use xlink:href="#DejaVuSans-61" transform="translate(691.560547 0.015625)"/>
     <use xlink:href="#DejaVuSans-67" transform="translate(752.839844 0.015625)"/>
     <use xlink:href="#DejaVuSans-6f" transform="translate(816.316406 0.015625)"/>
     <use xlink:href="#DejaVuSans-6e" transform="translate(877.498047 0.015625)"/>
     <use xlink:href="#DejaVuSans-61" transform="translate(940.876953 0.015625)"/>
     <use xlink:href="#DejaVuSans-6c" transform="translate(1002.15625 0.015625)"/>
     <use xlink:href="#DejaVuSans-5c" transform="translate(1029.939453 0.015625)"/>
     <use xlink:href="#DejaVuSans-5f" transform="translate(1063.630859 0.015625)"/>
     <use xlink:href="#DejaVuSans-58" transform="translate(1113.630859 0.015625)"/>
     <use xlink:href="#DejaVuSans-5a" transform="translate(1182.136719 0.015625)"/>
     <use xlink:href="#DejaVuSans-20" transform="translate(1250.642578 0.015625)"/>
     <use xlink:href="#DejaVuSans-5b" transform="translate(1282.429688 0.015625)"/>
     <use xlink:href="#DejaVuSans-31" transform="translate(1321.443359 0.015625)"/>
     <use xlink:href="#DejaVuSans-2c" transform="translate(1385.066406 0.015625)"/>
     <use xlink:href="#DejaVuSans-30" transform="translate(1436.335938 0.015625)"/>
     <use xlink:href="#DejaVuSans-2c" transform="translate(1499.958984 0.015625)"/>
     <use xlink:href="#DejaVuSans-31" transform="translate(1551.228516 0.015625)"/>
     <use xlink:href="#DejaVuSans-5d" transform="translate(1614.851562 0.015625)"/>
    </g>
   </g>
   <g id="legend_1">
    <g id="patch_7">
     <path d="M 485.855308 62.765534 
L 554.592125 62.765534 
Q 556.258125 62.765534 556.258125 61.099534 
L 556.258125 28.151 
Q 556.258125 26.485 554.592125 26.485 
L 485.855308 26.485 
Q 484.189308 26.485 484.189308 28.151 
L 484.189308 61.099534 
Q 484.189308 62.765534 485.855308 62.765534 
z
" style="fill: #ffffff; opacity: 0.8; stroke: #cccccc; stroke-linejoin: miter"/>
    </g>
    <g id="line2d_18">
     <g>
      <use xlink:href="#maa423672c0" x="495.851308" y="33.230998" style="stroke: #000000"/>
     </g>
    </g>
    <g id="text_19">
     <!-- Estimated -->
     <g transform="translate(510.845308 36.146498) scale(0.0833 -0.0833)">
      <defs>
       <path id="DejaVuSans-45" d="M 628 4666 
L 3578 4666 
L 3578 4134 
L 1259 4134 
L 1259 2753 
L 3481 2753 
L 3481 2222 
L 1259 2222 
L 1259 531 
L 3634 531 
L 3634 0 
L 628 0 
L 628 4666 
z
" transform="scale(0.015625)"/>
       <path id="DejaVuSans-64" d="M 2906 2969 
L 2906 4863 
L 3481 4863 
L 3481 0 
L 2906 0 
L 2906 525 
Q 2725 213 2448 61 
Q 2172 -91 1784 -91 
Q 1150 -91 751 415 
Q 353 922 353 1747 
Q 353 2572 751 3078 
Q 1150 3584 1784 3584 
Q 2172 3584 2448 3432 
Q 2725 3281 2906 2969 
z
M 947 1747 
Q 947 1113 1208 752 
Q 1469 391 1925 391 
Q 2381 391 2643 752 
Q 2906 1113 2906 1747 
Q 2906 2381 2643 2742 
Q 2381 3103 1925 3103 
Q 1469 3103 1208 2742 
Q 947 2381 947 1747 
z
" transform="scale(0.015625)"/>
      </defs>
      <use xlink:href="#DejaVuSans-45"/>
      <use xlink:href="#DejaVuSans-73" x="63.183594"/>
      <use xlink:href="#DejaVuSans-74" x="115.283203"/>
      <use xlink:href="#DejaVuSans-69" x="154.492188"/>
      <use xlink:href="#DejaVuSans-6d" x="182.275391"/>
      <use xlink:href="#DejaVuSans-61" x="279.6875"/>
      <use xlink:href="#DejaVuSans-74" x="340.966797"/>
      <use xlink:href="#DejaVuSans-65" x="380.175781"/>
      <use xlink:href="#DejaVuSans-64" x="441.699219"/>
     </g>
    </g>
    <g id="line2d_19">
     <path d="M 487.521308 50.987955 
L 495.851308 50.987955 
L 504.181308 50.987955 
" style="fill: none; stroke-dasharray: 5.55,2.4; stroke-dashoffset: 0; stroke: #440154; stroke-width: 1.5"/>
    </g>
    <g id="text_20">
     <!-- JBessel -->
     <g transform="translate(510.845308 48.373377) scale(0.0833 -0.0833)">
      <defs>
       <path id="DejaVuSans-4a" d="M 628 4666 
L 1259 4666 
L 1259 325 
Q 1259 -519 939 -900 
Q 619 -1281 -91 -1281 
L -331 -1281 
L -331 -750 
L -134 -750 
Q 284 -750 456 -515 
Q 628 -281 628 325 
L 628 4666 
z
" transform="scale(0.015625)"/>
       <path id="DejaVuSans-42" d="M 1259 2228 
L 1259 519 
L 2272 519 
Q 2781 519 3026 730 
Q 3272 941 3272 1375 
Q 3272 1813 3026 2020 
Q 2781 2228 2272 2228 
L 1259 2228 
z
M 1259 4147 
L 1259 2741 
L 2194 2741 
Q 2656 2741 2882 2914 
Q 3109 3088 3109 3444 
Q 3109 3797 2882 3972 
Q 2656 4147 2194 4147 
L 1259 4147 
z
M 628 4666 
L 2241 4666 
Q 2963 4666 3353 4366 
Q 3744 4066 3744 3513 
Q 3744 3084 3544 2831 
Q 3344 2578 2956 2516 
Q 3422 2416 3680 2098 
Q 3938 1781 3938 1306 
Q 3938 681 3513 340 
Q 3088 0 2303 0 
L 628 0 
L 628 4666 
z
" transform="scale(0.015625)"/>
      </defs>
      <use xlink:href="#DejaVuSans-4a"/>
      <use xlink:href="#DejaVuSans-42" x="29.492188"/>
      <use xlink:href="#DejaVuSans-65" x="98.095703"/>
      <use xlink:href="#DejaVuSans-73" x="159.619141"/>
      <use xlink:href="#DejaVuSans-73" x="211.71875"/>
      <use xlink:href="#DejaVuSans-65" x="263.818359"/>
      <use xlink:href="#DejaVuSans-6c" x="325.341797"/>
     </g>
     <!-- $r^2$ = -0.02 -->
     <g transform="translate(510.845308 57.701154) scale(0.0833 -0.0833)">
      <defs>
       <path id="DejaVuSans-Oblique-72" d="M 2853 2969 
Q 2766 3016 2653 3041 
Q 2541 3066 2413 3066 
Q 1953 3066 1609 2717 
Q 1266 2369 1153 1784 
L 800 0 
L 225 0 
L 909 3500 
L 1484 3500 
L 1375 2956 
Q 1603 3259 1920 3421 
Q 2238 3584 2597 3584 
Q 2691 3584 2781 3573 
Q 2872 3563 2963 3538 
L 2853 2969 
z
" transform="scale(0.015625)"/>
       <path id="DejaVuSans-3d" d="M 678 2906 
L 4684 2906 
L 4684 2381 
L 678 2381 
L 678 2906 
z
M 678 1631 
L 4684 1631 
L 4684 1100 
L 678 1100 
L 678 1631 
z
" transform="scale(0.015625)"/>
       <path id="DejaVuSans-2d" d="M 313 2009 
L 1997 2009 
L 1997 1497 
L 313 1497 
L 313 2009 
z
" transform="scale(0.015625)"/>
       <path id="DejaVuSans-2e" d="M 684 794 
L 1344 794 
L 1344 0 
L 684 0 
L 684 794 
z
" transform="scale(0.015625)"/>
      </defs>
      <use xlink:href="#DejaVuSans-Oblique-72" transform="translate(0 0.765625)"/>
      <use xlink:href="#DejaVuSans-32" transform="translate(45.763177 39.046875) scale(0.7)"/>
      <use xlink:href="#DejaVuSans-20" transform="translate(93.033685 0.765625)"/>
      <use xlink:href="#DejaVuSans-3d" transform="translate(124.820794 0.765625)"/>
      <use xlink:href="#DejaVuSans-20" transform="translate(208.609857 0.765625)"/>
      <use xlink:href="#DejaVuSans-2d" transform="translate(240.396966 0.765625)"/>
      <use xlink:href="#DejaVuSans-30" transform="translate(276.480951 0.765625)"/>
      <use xlink:href="#DejaVuSans-2e" transform="translate(340.103997 0.765625)"/>
      <use xlink:href="#DejaVuSans-30" transform="translate(371.891107 0.765625)"/>
      <use xlink:href="#DejaVuSans-32" transform="translate(435.514154 0.765625)"/>
     </g>
    </g>
   </g>
  </g>
 </g>
 <defs>
  <clipPath id="p9ceef471a5">
   <rect x="40.603125" y="22.32" width="519.82" height="506.24875"/>
  </clipPath>
 </defs>
</svg>
