<?xml version="1.0" encoding="utf-8" standalone="no"?>
<!DOCTYPE svg PUBLIC "-//W3C//DTD SVG 1.1//EN"
  "http://www.w3.org/Graphics/SVG/1.1/DTD/svg11.dtd">
<svg xmlns:xlink="http://www.w3.org/1999/xlink" width="567.74125pt" height="565.59625pt" viewBox="0 0 567.74125 565.59625" xmlns="http://www.w3.org/2000/svg" version="1.1">
 <metadata>
  <rdf:RDF xmlns:dc="http://purl.org/dc/elements/1.1/" xmlns:cc="http://creativecommons.org/ns#" xmlns:rdf="http://www.w3.org/1999/02/22-rdf-syntax-ns#">
   <cc:Work>
    <dc:type rdf:resource="http://purl.org/dc/dcmitype/StillImage"/>
    <dc:date>2025-02-08T13:32:34.475500</dc:date>
    <dc:format>image/svg+xml</dc:format>
    <dc:creator>
     <cc:Agent>
      <dc:title>Matplotlib v3.9.3, https://matplotlib.org/</dc:title>
     </cc:Agent>
    </dc:creator>
   </cc:Work>
  </rdf:RDF>
 </metadata>
 <defs>
  <style type="text/css">*{stroke-linejoin: round; stroke-linecap: butt}</style>
 </defs>
 <g id="figure_1">
  <g id="patch_1">
   <path d="M 0 565.59625 
L 567.74125 565.59625 
L 567.74125 0 
L 0 0 
z
" style="fill: #ffffff"/>
  </g>
  <g id="axes_1">
   <g id="patch_2">
    <path d="M 43.78125 528.04 
L 560.54125 528.04 
L 560.54125 22.32 
L 43.78125 22.32 
z
" style="fill: #ffffff"/>
   </g>
   <g id="matplotlib.axis_1">
    <g id="xtick_1">
     <g id="line2d_1">
      <defs>
       <path id="mb0764123e1" d="M 0 0 
L 0 3.5 
" style="stroke: #000000; stroke-width: 0.8"/>
      </defs>
      <g>
       <use xlink:href="#mb0764123e1" x="67.270341" y="528.04" style="stroke: #000000; stroke-width: 0.8"/>
      </g>
     </g>
     <g id="text_1">
      <!-- 0 -->
      <g transform="translate(64.089091 542.638437) scale(0.1 -0.1)">
       <defs>
        <path id="DejaVuSans-30" d="M 2034 4250 
Q 1547 4250 1301 3770 
Q 1056 3291 1056 2328 
Q 1056 1369 1301 889 
Q 1547 409 2034 409 
Q 2525 409 2770 889 
Q 3016 1369 3016 2328 
Q 3016 3291 2770 3770 
Q 2525 4250 2034 4250 
z
M 2034 4750 
Q 2819 4750 3233 4129 
Q 3647 3509 3647 2328 
Q 3647 1150 3233 529 
Q 2819 -91 2034 -91 
Q 1250 -91 836 529 
Q 422 1150 422 2328 
Q 422 3509 836 4129 
Q 1250 4750 2034 4750 
z
" transform="scale(0.015625)"/>
       </defs>
       <use xlink:href="#DejaVuSans-30"/>
      </g>
     </g>
    </g>
    <g id="xtick_2">
     <g id="line2d_2">
      <g>
       <use xlink:href="#mb0764123e1" x="161.226705" y="528.04" style="stroke: #000000; stroke-width: 0.8"/>
      </g>
     </g>
     <g id="text_2">
      <!-- 20 -->
      <g transform="translate(154.864205 542.638437) scale(0.1 -0.1)">
       <defs>
        <path id="DejaVuSans-32" d="M 1228 531 
L 3431 531 
L 3431 0 
L 469 0 
L 469 531 
Q 828 903 1448 1529 
Q 2069 2156 2228 2338 
Q 2531 2678 2651 2914 
Q 2772 3150 2772 3378 
Q 2772 3750 2511 3984 
Q 2250 4219 1831 4219 
Q 1534 4219 1204 4116 
Q 875 4013 500 3803 
L 500 4441 
Q 881 4594 1212 4672 
Q 1544 4750 1819 4750 
Q 2544 4750 2975 4387 
Q 3406 4025 3406 3419 
Q 3406 3131 3298 2873 
Q 3191 2616 2906 2266 
Q 2828 2175 2409 1742 
Q 1991 1309 1228 531 
z
" transform="scale(0.015625)"/>
       </defs>
       <use xlink:href="#DejaVuSans-32"/>
       <use xlink:href="#DejaVuSans-30" x="63.623047"/>
      </g>
     </g>
    </g>
    <g id="xtick_3">
     <g id="line2d_3">
      <g>
       <use xlink:href="#mb0764123e1" x="255.183068" y="528.04" style="stroke: #000000; stroke-width: 0.8"/>
      </g>
     </g>
     <g id="text_3">
      <!-- 40 -->
      <g transform="translate(248.820568 542.638437) scale(0.1 -0.1)">
       <defs>
        <path id="DejaVuSans-34" d="M 2419 4116 
L 825 1625 
L 2419 1625 
L 2419 4116 
z
M 2253 4666 
L 3047 4666 
L 3047 1625 
L 3713 1625 
L 3713 1100 
L 3047 1100 
L 3047 0 
L 2419 0 
L 2419 1100 
L 313 1100 
L 313 1709 
L 2253 4666 
z
" transform="scale(0.015625)"/>
       </defs>
       <use xlink:href="#DejaVuSans-34"/>
       <use xlink:href="#DejaVuSans-30" x="63.623047"/>
      </g>
     </g>
    </g>
    <g id="xtick_4">
     <g id="line2d_4">
      <g>
       <use xlink:href="#mb0764123e1" x="349.139432" y="528.04" style="stroke: #000000; stroke-width: 0.8"/>
      </g>
     </g>
     <g id="text_4">
      <!-- 60 -->
      <g transform="translate(342.776932 542.638437) scale(0.1 -0.1)">
       <defs>
        <path id="DejaVuSans-36" d="M 2113 2584 
Q 1688 2584 1439 2293 
Q 1191 2003 1191 1497 
Q 1191 994 1439 701 
Q 1688 409 2113 409 
Q 2538 409 2786 701 
Q 3034 994 3034 1497 
Q 3034 2003 2786 2293 
Q 2538 2584 2113 2584 
z
M 3366 4563 
L 3366 3988 
Q 3128 4100 2886 4159 
Q 2644 4219 2406 4219 
Q 1781 4219 1451 3797 
Q 1122 3375 1075 2522 
Q 1259 2794 1537 2939 
Q 1816 3084 2150 3084 
Q 2853 3084 3261 2657 
Q 3669 2231 3669 1497 
Q 3669 778 3244 343 
Q 2819 -91 2113 -91 
Q 1303 -91 875 529 
Q 447 1150 447 2328 
Q 447 3434 972 4092 
Q 1497 4750 2381 4750 
Q 2619 4750 2861 4703 
Q 3103 4656 3366 4563 
z
" transform="scale(0.015625)"/>
       </defs>
       <use xlink:href="#DejaVuSans-36"/>
       <use xlink:href="#DejaVuSans-30" x="63.623047"/>
      </g>
     </g>
    </g>
    <g id="xtick_5">
     <g id="line2d_5">
      <g>
       <use xlink:href="#mb0764123e1" x="443.095795" y="528.04" style="stroke: #000000; stroke-width: 0.8"/>
      </g>
     </g>
     <g id="text_5">
      <!-- 80 -->
      <g transform="translate(436.733295 542.638437) scale(0.1 -0.1)">
       <defs>
        <path id="DejaVuSans-38" d="M 2034 2216 
Q 1584 2216 1326 1975 
Q 1069 1734 1069 1313 
Q 1069 891 1326 650 
Q 1584 409 2034 409 
Q 2484 409 2743 651 
Q 3003 894 3003 1313 
Q 3003 1734 2745 1975 
Q 2488 2216 2034 2216 
z
M 1403 2484 
Q 997 2584 770 2862 
Q 544 3141 544 3541 
Q 544 4100 942 4425 
Q 1341 4750 2034 4750 
Q 2731 4750 3128 4425 
Q 3525 4100 3525 3541 
Q 3525 3141 3298 2862 
Q 3072 2584 2669 2484 
Q 3125 2378 3379 2068 
Q 3634 1759 3634 1313 
Q 3634 634 3220 271 
Q 2806 -91 2034 -91 
Q 1263 -91 848 271 
Q 434 634 434 1313 
Q 434 1759 690 2068 
Q 947 2378 1403 2484 
z
M 1172 3481 
Q 1172 3119 1398 2916 
Q 1625 2713 2034 2713 
Q 2441 2713 2670 2916 
Q 2900 3119 2900 3481 
Q 2900 3844 2670 4047 
Q 2441 4250 2034 4250 
Q 1625 4250 1398 4047 
Q 1172 3844 1172 3481 
z
" transform="scale(0.015625)"/>
       </defs>
       <use xlink:href="#DejaVuSans-38"/>
       <use xlink:href="#DejaVuSans-30" x="63.623047"/>
      </g>
     </g>
    </g>
    <g id="xtick_6">
     <g id="line2d_6">
      <g>
       <use xlink:href="#mb0764123e1" x="537.052159" y="528.04" style="stroke: #000000; stroke-width: 0.8"/>
      </g>
     </g>
     <g id="text_6">
      <!-- 100 -->
      <g transform="translate(527.508409 542.638437) scale(0.1 -0.1)">
       <defs>
        <path id="DejaVuSans-31" d="M 794 531 
L 1825 531 
L 1825 4091 
L 703 3866 
L 703 4441 
L 1819 4666 
L 2450 4666 
L 2450 531 
L 3481 531 
L 3481 0 
L 794 0 
L 794 531 
z
" transform="scale(0.015625)"/>
       </defs>
       <use xlink:href="#DejaVuSans-31"/>
       <use xlink:href="#DejaVuSans-30" x="63.623047"/>
       <use xlink:href="#DejaVuSans-30" x="127.246094"/>
      </g>
     </g>
    </g>
    <g id="text_7">
     <!-- Distance -->
     <g transform="translate(280.29875 556.316562) scale(0.1 -0.1)">
      <defs>
       <path id="DejaVuSans-44" d="M 1259 4147 
L 1259 519 
L 2022 519 
Q 2988 519 3436 956 
Q 3884 1394 3884 2338 
Q 3884 3275 3436 3711 
Q 2988 4147 2022 4147 
L 1259 4147 
z
M 628 4666 
L 1925 4666 
Q 3281 4666 3915 4102 
Q 4550 3538 4550 2338 
Q 4550 1131 3912 565 
Q 3275 0 1925 0 
L 628 0 
L 628 4666 
z
" transform="scale(0.015625)"/>
       <path id="DejaVuSans-69" d="M 603 3500 
L 1178 3500 
L 1178 0 
L 603 0 
L 603 3500 
z
M 603 4863 
L 1178 4863 
L 1178 4134 
L 603 4134 
L 603 4863 
z
" transform="scale(0.015625)"/>
       <path id="DejaVuSans-73" d="M 2834 3397 
L 2834 2853 
Q 2591 2978 2328 3040 
Q 2066 3103 1784 3103 
Q 1356 3103 1142 2972 
Q 928 2841 928 2578 
Q 928 2378 1081 2264 
Q 1234 2150 1697 2047 
L 1894 2003 
Q 2506 1872 2764 1633 
Q 3022 1394 3022 966 
Q 3022 478 2636 193 
Q 2250 -91 1575 -91 
Q 1294 -91 989 -36 
Q 684 19 347 128 
L 347 722 
Q 666 556 975 473 
Q 1284 391 1588 391 
Q 1994 391 2212 530 
Q 2431 669 2431 922 
Q 2431 1156 2273 1281 
Q 2116 1406 1581 1522 
L 1381 1569 
Q 847 1681 609 1914 
Q 372 2147 372 2553 
Q 372 3047 722 3315 
Q 1072 3584 1716 3584 
Q 2034 3584 2315 3537 
Q 2597 3491 2834 3397 
z
" transform="scale(0.015625)"/>
       <path id="DejaVuSans-74" d="M 1172 4494 
L 1172 3500 
L 2356 3500 
L 2356 3053 
L 1172 3053 
L 1172 1153 
Q 1172 725 1289 603 
Q 1406 481 1766 481 
L 2356 481 
L 2356 0 
L 1766 0 
Q 1100 0 847 248 
Q 594 497 594 1153 
L 594 3053 
L 172 3053 
L 172 3500 
L 594 3500 
L 594 4494 
L 1172 4494 
z
" transform="scale(0.015625)"/>
       <path id="DejaVuSans-61" d="M 2194 1759 
Q 1497 1759 1228 1600 
Q 959 1441 959 1056 
Q 959 750 1161 570 
Q 1363 391 1709 391 
Q 2188 391 2477 730 
Q 2766 1069 2766 1631 
L 2766 1759 
L 2194 1759 
z
M 3341 1997 
L 3341 0 
L 2766 0 
L 2766 531 
Q 2569 213 2275 61 
Q 1981 -91 1556 -91 
Q 1019 -91 701 211 
Q 384 513 384 1019 
Q 384 1609 779 1909 
Q 1175 2209 1959 2209 
L 2766 2209 
L 2766 2266 
Q 2766 2663 2505 2880 
Q 2244 3097 1772 3097 
Q 1472 3097 1187 3025 
Q 903 2953 641 2809 
L 641 3341 
Q 956 3463 1253 3523 
Q 1550 3584 1831 3584 
Q 2591 3584 2966 3190 
Q 3341 2797 3341 1997 
z
" transform="scale(0.015625)"/>
       <path id="DejaVuSans-6e" d="M 3513 2113 
L 3513 0 
L 2938 0 
L 2938 2094 
Q 2938 2591 2744 2837 
Q 2550 3084 2163 3084 
Q 1697 3084 1428 2787 
Q 1159 2491 1159 1978 
L 1159 0 
L 581 0 
L 581 3500 
L 1159 3500 
L 1159 2956 
Q 1366 3272 1645 3428 
Q 1925 3584 2291 3584 
Q 2894 3584 3203 3211 
Q 3513 2838 3513 2113 
z
" transform="scale(0.015625)"/>
       <path id="DejaVuSans-63" d="M 3122 3366 
L 3122 2828 
Q 2878 2963 2633 3030 
Q 2388 3097 2138 3097 
Q 1578 3097 1268 2742 
Q 959 2388 959 1747 
Q 959 1106 1268 751 
Q 1578 397 2138 397 
Q 2388 397 2633 464 
Q 2878 531 3122 666 
L 3122 134 
Q 2881 22 2623 -34 
Q 2366 -91 2075 -91 
Q 1284 -91 818 406 
Q 353 903 353 1747 
Q 353 2603 823 3093 
Q 1294 3584 2113 3584 
Q 2378 3584 2631 3529 
Q 2884 3475 3122 3366 
z
" transform="scale(0.015625)"/>
       <path id="DejaVuSans-65" d="M 3597 1894 
L 3597 1613 
L 953 1613 
Q 991 1019 1311 708 
Q 1631 397 2203 397 
Q 2534 397 2845 478 
Q 3156 559 3463 722 
L 3463 178 
Q 3153 47 2828 -22 
Q 2503 -91 2169 -91 
Q 1331 -91 842 396 
Q 353 884 353 1716 
Q 353 2575 817 3079 
Q 1281 3584 2069 3584 
Q 2775 3584 3186 3129 
Q 3597 2675 3597 1894 
z
M 3022 2063 
Q 3016 2534 2758 2815 
Q 2500 3097 2075 3097 
Q 1594 3097 1305 2825 
Q 1016 2553 972 2059 
L 3022 2063 
z
" transform="scale(0.015625)"/>
      </defs>
      <use xlink:href="#DejaVuSans-44"/>
      <use xlink:href="#DejaVuSans-69" x="77.001953"/>
      <use xlink:href="#DejaVuSans-73" x="104.785156"/>
      <use xlink:href="#DejaVuSans-74" x="156.884766"/>
      <use xlink:href="#DejaVuSans-61" x="196.09375"/>
      <use xlink:href="#DejaVuSans-6e" x="257.373047"/>
      <use xlink:href="#DejaVuSans-63" x="320.751953"/>
      <use xlink:href="#DejaVuSans-65" x="375.732422"/>
     </g>
    </g>
   </g>
   <g id="matplotlib.axis_2">
    <g id="ytick_1">
     <g id="line2d_7">
      <defs>
       <path id="me1ffcd1fdd" d="M 0 0 
L -3.5 0 
" style="stroke: #000000; stroke-width: 0.8"/>
      </defs>
      <g>
       <use xlink:href="#me1ffcd1fdd" x="43.78125" y="505.052727" style="stroke: #000000; stroke-width: 0.8"/>
      </g>
     </g>
     <g id="text_8">
      <!-- 0.0 -->
      <g transform="translate(20.878125 508.851946) scale(0.1 -0.1)">
       <defs>
        <path id="DejaVuSans-2e" d="M 684 794 
L 1344 794 
L 1344 0 
L 684 0 
L 684 794 
z
" transform="scale(0.015625)"/>
       </defs>
       <use xlink:href="#DejaVuSans-30"/>
       <use xlink:href="#DejaVuSans-2e" x="63.623047"/>
       <use xlink:href="#DejaVuSans-30" x="95.410156"/>
      </g>
     </g>
    </g>
    <g id="ytick_2">
     <g id="line2d_8">
      <g>
       <use xlink:href="#me1ffcd1fdd" x="43.78125" y="443.792748" style="stroke: #000000; stroke-width: 0.8"/>
      </g>
     </g>
     <g id="text_9">
      <!-- 0.1 -->
      <g transform="translate(20.878125 447.591967) scale(0.1 -0.1)">
       <use xlink:href="#DejaVuSans-30"/>
       <use xlink:href="#DejaVuSans-2e" x="63.623047"/>
       <use xlink:href="#DejaVuSans-31" x="95.410156"/>
      </g>
     </g>
    </g>
    <g id="ytick_3">
     <g id="line2d_9">
      <g>
       <use xlink:href="#me1ffcd1fdd" x="43.78125" y="382.532769" style="stroke: #000000; stroke-width: 0.8"/>
      </g>
     </g>
     <g id="text_10">
      <!-- 0.2 -->
      <g transform="translate(20.878125 386.331988) scale(0.1 -0.1)">
       <use xlink:href="#DejaVuSans-30"/>
       <use xlink:href="#DejaVuSans-2e" x="63.623047"/>
       <use xlink:href="#DejaVuSans-32" x="95.410156"/>
      </g>
     </g>
    </g>
    <g id="ytick_4">
     <g id="line2d_10">
      <g>
       <use xlink:href="#me1ffcd1fdd" x="43.78125" y="321.27279" style="stroke: #000000; stroke-width: 0.8"/>
      </g>
     </g>
     <g id="text_11">
      <!-- 0.3 -->
      <g transform="translate(20.878125 325.072009) scale(0.1 -0.1)">
       <defs>
        <path id="DejaVuSans-33" d="M 2597 2516 
Q 3050 2419 3304 2112 
Q 3559 1806 3559 1356 
Q 3559 666 3084 287 
Q 2609 -91 1734 -91 
Q 1441 -91 1130 -33 
Q 819 25 488 141 
L 488 750 
Q 750 597 1062 519 
Q 1375 441 1716 441 
Q 2309 441 2620 675 
Q 2931 909 2931 1356 
Q 2931 1769 2642 2001 
Q 2353 2234 1838 2234 
L 1294 2234 
L 1294 2753 
L 1863 2753 
Q 2328 2753 2575 2939 
Q 2822 3125 2822 3475 
Q 2822 3834 2567 4026 
Q 2313 4219 1838 4219 
Q 1578 4219 1281 4162 
Q 984 4106 628 3988 
L 628 4550 
Q 988 4650 1302 4700 
Q 1616 4750 1894 4750 
Q 2613 4750 3031 4423 
Q 3450 4097 3450 3541 
Q 3450 3153 3228 2886 
Q 3006 2619 2597 2516 
z
" transform="scale(0.015625)"/>
       </defs>
       <use xlink:href="#DejaVuSans-30"/>
       <use xlink:href="#DejaVuSans-2e" x="63.623047"/>
       <use xlink:href="#DejaVuSans-33" x="95.410156"/>
      </g>
     </g>
    </g>
    <g id="ytick_5">
     <g id="line2d_11">
      <g>
       <use xlink:href="#me1ffcd1fdd" x="43.78125" y="260.012811" style="stroke: #000000; stroke-width: 0.8"/>
      </g>
     </g>
     <g id="text_12">
      <!-- 0.4 -->
      <g transform="translate(20.878125 263.81203) scale(0.1 -0.1)">
       <use xlink:href="#DejaVuSans-30"/>
       <use xlink:href="#DejaVuSans-2e" x="63.623047"/>
       <use xlink:href="#DejaVuSans-34" x="95.410156"/>
      </g>
     </g>
    </g>
    <g id="ytick_6">
     <g id="line2d_12">
      <g>
       <use xlink:href="#me1ffcd1fdd" x="43.78125" y="198.752832" style="stroke: #000000; stroke-width: 0.8"/>
      </g>
     </g>
     <g id="text_13">
      <!-- 0.5 -->
      <g transform="translate(20.878125 202.552051) scale(0.1 -0.1)">
       <defs>
        <path id="DejaVuSans-35" d="M 691 4666 
L 3169 4666 
L 3169 4134 
L 1269 4134 
L 1269 2991 
Q 1406 3038 1543 3061 
Q 1681 3084 1819 3084 
Q 2600 3084 3056 2656 
Q 3513 2228 3513 1497 
Q 3513 744 3044 326 
Q 2575 -91 1722 -91 
Q 1428 -91 1123 -41 
Q 819 9 494 109 
L 494 744 
Q 775 591 1075 516 
Q 1375 441 1709 441 
Q 2250 441 2565 725 
Q 2881 1009 2881 1497 
Q 2881 1984 2565 2268 
Q 2250 2553 1709 2553 
Q 1456 2553 1204 2497 
Q 953 2441 691 2322 
L 691 4666 
z
" transform="scale(0.015625)"/>
       </defs>
       <use xlink:href="#DejaVuSans-30"/>
       <use xlink:href="#DejaVuSans-2e" x="63.623047"/>
       <use xlink:href="#DejaVuSans-35" x="95.410156"/>
      </g>
     </g>
    </g>
    <g id="ytick_7">
     <g id="line2d_13">
      <g>
       <use xlink:href="#me1ffcd1fdd" x="43.78125" y="137.492853" style="stroke: #000000; stroke-width: 0.8"/>
      </g>
     </g>
     <g id="text_14">
      <!-- 0.6 -->
      <g transform="translate(20.878125 141.292072) scale(0.1 -0.1)">
       <use xlink:href="#DejaVuSans-30"/>
       <use xlink:href="#DejaVuSans-2e" x="63.623047"/>
       <use xlink:href="#DejaVuSans-36" x="95.410156"/>
      </g>
     </g>
    </g>
    <g id="ytick_8">
     <g id="line2d_14">
      <g>
       <use xlink:href="#me1ffcd1fdd" x="43.78125" y="76.232874" style="stroke: #000000; stroke-width: 0.8"/>
      </g>
     </g>
     <g id="text_15">
      <!-- 0.7 -->
      <g transform="translate(20.878125 80.032093) scale(0.1 -0.1)">
       <defs>
        <path id="DejaVuSans-37" d="M 525 4666 
L 3525 4666 
L 3525 4397 
L 1831 0 
L 1172 0 
L 2766 4134 
L 525 4134 
L 525 4666 
z
" transform="scale(0.015625)"/>
       </defs>
       <use xlink:href="#DejaVuSans-30"/>
       <use xlink:href="#DejaVuSans-2e" x="63.623047"/>
       <use xlink:href="#DejaVuSans-37" x="95.410156"/>
      </g>
     </g>
    </g>
    <g id="text_16">
     <!-- $\gamma$ -->
     <g transform="translate(14.778125 278.18) rotate(-90) scale(0.1 -0.1)">
      <defs>
       <path id="DejaVuSans-Oblique-3b3" d="M 1491 2950 
L 1838 788 
L 3456 3500 
L 4066 3500 
L 1972 0 
L 1713 -1331 
L 1138 -1331 
L 1397 0 
L 988 2613 
Q 925 3006 628 3006 
L 475 3006 
L 569 3500 
L 788 3500 
Q 1403 3500 1491 2950 
z
" transform="scale(0.015625)"/>
      </defs>
      <use xlink:href="#DejaVuSans-Oblique-3b3" transform="translate(0 0.3125)"/>
     </g>
    </g>
   </g>
   <g id="line2d_15">
    <defs>
     <path id="m00c2e71707" d="M 0 2 
C 0.530406 2 1.03916 1.789267 1.414214 1.414214 
C 1.789267 1.03916 2 0.530406 2 0 
C 2 -0.530406 1.789267 -1.03916 1.414214 -1.414214 
C 1.03916 -1.789267 0.530406 -2 0 -2 
C -0.530406 -2 -1.03916 -1.789267 -1.414214 -1.414214 
C -1.789267 -1.03916 -2 -0.530406 -2 0 
C -2 0.530406 -1.789267 1.03916 -1.414214 1.414214 
C -1.03916 1.789267 -0.530406 2 0 2 
z
" style="stroke: #000000"/>
    </defs>
    <g clip-path="url(#p8160643256)">
     <use xlink:href="#m00c2e71707" x="69.642976" y="505.052727" style="stroke: #000000"/>
     <use xlink:href="#m00c2e71707" x="74.388247" y="505.052727" style="stroke: #000000"/>
     <use xlink:href="#m00c2e71707" x="79.133518" y="505.052727" style="stroke: #000000"/>
     <use xlink:href="#m00c2e71707" x="83.878789" y="505.052727" style="stroke: #000000"/>
     <use xlink:href="#m00c2e71707" x="88.62406" y="505.052727" style="stroke: #000000"/>
     <use xlink:href="#m00c2e71707" x="93.369331" y="435.372695" style="stroke: #000000"/>
     <use xlink:href="#m00c2e71707" x="98.114602" y="499.01845" style="stroke: #000000"/>
     <use xlink:href="#m00c2e71707" x="102.859873" y="245.292878" style="stroke: #000000"/>
     <use xlink:href="#m00c2e71707" x="107.605143" y="92.739513" style="stroke: #000000"/>
     <use xlink:href="#m00c2e71707" x="112.350414" y="45.307273" style="stroke: #000000"/>
     <use xlink:href="#m00c2e71707" x="117.095685" y="438.092453" style="stroke: #000000"/>
     <use xlink:href="#m00c2e71707" x="121.840956" y="201.816395" style="stroke: #000000"/>
     <use xlink:href="#m00c2e71707" x="126.586227" y="429.831903" style="stroke: #000000"/>
     <use xlink:href="#m00c2e71707" x="131.331498" y="444.548181" style="stroke: #000000"/>
     <use xlink:href="#m00c2e71707" x="136.076769" y="291.300136" style="stroke: #000000"/>
     <use xlink:href="#m00c2e71707" x="140.82204" y="402.964307" style="stroke: #000000"/>
     <use xlink:href="#m00c2e71707" x="145.567311" y="169.73509" style="stroke: #000000"/>
     <use xlink:href="#m00c2e71707" x="150.312581" y="374.027625" style="stroke: #000000"/>
     <use xlink:href="#m00c2e71707" x="155.057852" y="195.078467" style="stroke: #000000"/>
     <use xlink:href="#m00c2e71707" x="159.803123" y="404.186227" style="stroke: #000000"/>
     <use xlink:href="#m00c2e71707" x="164.548394" y="318.17899" style="stroke: #000000"/>
     <use xlink:href="#m00c2e71707" x="169.293665" y="323.679312" style="stroke: #000000"/>
     <use xlink:href="#m00c2e71707" x="174.038936" y="345.242667" style="stroke: #000000"/>
     <use xlink:href="#m00c2e71707" x="178.784207" y="436.295533" style="stroke: #000000"/>
     <use xlink:href="#m00c2e71707" x="183.529478" y="449.310236" style="stroke: #000000"/>
     <use xlink:href="#m00c2e71707" x="188.274749" y="387.856107" style="stroke: #000000"/>
     <use xlink:href="#m00c2e71707" x="193.02002" y="328.472066" style="stroke: #000000"/>
     <use xlink:href="#m00c2e71707" x="197.76529" y="129.619708" style="stroke: #000000"/>
     <use xlink:href="#m00c2e71707" x="202.510561" y="312.78194" style="stroke: #000000"/>
     <use xlink:href="#m00c2e71707" x="207.255832" y="358.269331" style="stroke: #000000"/>
     <use xlink:href="#m00c2e71707" x="212.001103" y="307.394383" style="stroke: #000000"/>
     <use xlink:href="#m00c2e71707" x="216.746374" y="361.19579" style="stroke: #000000"/>
     <use xlink:href="#m00c2e71707" x="221.491645" y="478.073912" style="stroke: #000000"/>
     <use xlink:href="#m00c2e71707" x="226.236916" y="413.568982" style="stroke: #000000"/>
     <use xlink:href="#m00c2e71707" x="230.982187" y="232.459241" style="stroke: #000000"/>
     <use xlink:href="#m00c2e71707" x="235.727458" y="310.270955" style="stroke: #000000"/>
     <use xlink:href="#m00c2e71707" x="240.472728" y="401.731489" style="stroke: #000000"/>
     <use xlink:href="#m00c2e71707" x="245.217999" y="340.83417" style="stroke: #000000"/>
     <use xlink:href="#m00c2e71707" x="249.96327" y="234.167245" style="stroke: #000000"/>
     <use xlink:href="#m00c2e71707" x="254.708541" y="347.447509" style="stroke: #000000"/>
     <use xlink:href="#m00c2e71707" x="259.453812" y="245.300969" style="stroke: #000000"/>
     <use xlink:href="#m00c2e71707" x="264.199083" y="206.701314" style="stroke: #000000"/>
     <use xlink:href="#m00c2e71707" x="268.944354" y="319.459597" style="stroke: #000000"/>
     <use xlink:href="#m00c2e71707" x="273.689625" y="375.49295" style="stroke: #000000"/>
     <use xlink:href="#m00c2e71707" x="278.434896" y="333.379613" style="stroke: #000000"/>
     <use xlink:href="#m00c2e71707" x="283.180166" y="307.375869" style="stroke: #000000"/>
     <use xlink:href="#m00c2e71707" x="287.925437" y="375.997952" style="stroke: #000000"/>
     <use xlink:href="#m00c2e71707" x="292.670708" y="310.374721" style="stroke: #000000"/>
     <use xlink:href="#m00c2e71707" x="297.415979" y="309.166615" style="stroke: #000000"/>
     <use xlink:href="#m00c2e71707" x="302.16125" y="306.543913" style="stroke: #000000"/>
     <use xlink:href="#m00c2e71707" x="306.906521" y="250.734542" style="stroke: #000000"/>
     <use xlink:href="#m00c2e71707" x="311.651792" y="199.175527" style="stroke: #000000"/>
     <use xlink:href="#m00c2e71707" x="316.397063" y="408.274182" style="stroke: #000000"/>
     <use xlink:href="#m00c2e71707" x="321.142334" y="324.677152" style="stroke: #000000"/>
     <use xlink:href="#m00c2e71707" x="325.887604" y="314.9254" style="stroke: #000000"/>
     <use xlink:href="#m00c2e71707" x="330.632875" y="300.247468" style="stroke: #000000"/>
     <use xlink:href="#m00c2e71707" x="335.378146" y="235.628667" style="stroke: #000000"/>
     <use xlink:href="#m00c2e71707" x="340.123417" y="288.101611" style="stroke: #000000"/>
     <use xlink:href="#m00c2e71707" x="344.868688" y="296.239658" style="stroke: #000000"/>
     <use xlink:href="#m00c2e71707" x="349.613959" y="107.172455" style="stroke: #000000"/>
     <use xlink:href="#m00c2e71707" x="354.35923" y="228.620067" style="stroke: #000000"/>
     <use xlink:href="#m00c2e71707" x="359.104501" y="259.085321" style="stroke: #000000"/>
     <use xlink:href="#m00c2e71707" x="363.849772" y="262.463748" style="stroke: #000000"/>
     <use xlink:href="#m00c2e71707" x="368.595042" y="270.638659" style="stroke: #000000"/>
     <use xlink:href="#m00c2e71707" x="373.340313" y="274.950955" style="stroke: #000000"/>
     <use xlink:href="#m00c2e71707" x="378.085584" y="267.105474" style="stroke: #000000"/>
     <use xlink:href="#m00c2e71707" x="382.830855" y="230.344273" style="stroke: #000000"/>
     <use xlink:href="#m00c2e71707" x="387.576126" y="255.64205" style="stroke: #000000"/>
     <use xlink:href="#m00c2e71707" x="392.321397" y="301.462605" style="stroke: #000000"/>
     <use xlink:href="#m00c2e71707" x="397.066668" y="202.097194" style="stroke: #000000"/>
     <use xlink:href="#m00c2e71707" x="401.811939" y="254.946126" style="stroke: #000000"/>
     <use xlink:href="#m00c2e71707" x="406.55721" y="275.15638" style="stroke: #000000"/>
     <use xlink:href="#m00c2e71707" x="411.30248" y="240.999072" style="stroke: #000000"/>
     <use xlink:href="#m00c2e71707" x="416.047751" y="242.789867" style="stroke: #000000"/>
     <use xlink:href="#m00c2e71707" x="420.793022" y="160.758013" style="stroke: #000000"/>
     <use xlink:href="#m00c2e71707" x="425.538293" y="243.068599" style="stroke: #000000"/>
     <use xlink:href="#m00c2e71707" x="430.283564" y="221.122602" style="stroke: #000000"/>
     <use xlink:href="#m00c2e71707" x="435.028835" y="230.579663" style="stroke: #000000"/>
     <use xlink:href="#m00c2e71707" x="439.774106" y="172.491505" style="stroke: #000000"/>
     <use xlink:href="#m00c2e71707" x="444.519377" y="198.363325" style="stroke: #000000"/>
     <use xlink:href="#m00c2e71707" x="449.264648" y="236.327046" style="stroke: #000000"/>
     <use xlink:href="#m00c2e71707" x="454.009919" y="281.609451" style="stroke: #000000"/>
     <use xlink:href="#m00c2e71707" x="458.755189" y="263.460223" style="stroke: #000000"/>
     <use xlink:href="#m00c2e71707" x="463.50046" y="186.888222" style="stroke: #000000"/>
     <use xlink:href="#m00c2e71707" x="468.245731" y="184.993733" style="stroke: #000000"/>
     <use xlink:href="#m00c2e71707" x="472.991002" y="230.789486" style="stroke: #000000"/>
     <use xlink:href="#m00c2e71707" x="477.736273" y="164.973505" style="stroke: #000000"/>
     <use xlink:href="#m00c2e71707" x="482.481544" y="294.457819" style="stroke: #000000"/>
     <use xlink:href="#m00c2e71707" x="487.226815" y="184.626869" style="stroke: #000000"/>
     <use xlink:href="#m00c2e71707" x="491.972086" y="215.380593" style="stroke: #000000"/>
     <use xlink:href="#m00c2e71707" x="496.717357" y="176.696084" style="stroke: #000000"/>
     <use xlink:href="#m00c2e71707" x="501.462627" y="279.090409" style="stroke: #000000"/>
     <use xlink:href="#m00c2e71707" x="506.207898" y="130.603395" style="stroke: #000000"/>
     <use xlink:href="#m00c2e71707" x="510.953169" y="220.036834" style="stroke: #000000"/>
     <use xlink:href="#m00c2e71707" x="515.69844" y="247.53778" style="stroke: #000000"/>
     <use xlink:href="#m00c2e71707" x="520.443711" y="148.217923" style="stroke: #000000"/>
     <use xlink:href="#m00c2e71707" x="525.188982" y="245.441844" style="stroke: #000000"/>
     <use xlink:href="#m00c2e71707" x="529.934253" y="155.596637" style="stroke: #000000"/>
     <use xlink:href="#m00c2e71707" x="534.679524" y="219.743733" style="stroke: #000000"/>
    </g>
   </g>
   <g id="line2d_16">
    <path d="M 67.270341 505.052727 
L 76.857725 448.953777 
L 86.445109 423.064142 
L 96.032493 405.483545 
L 105.619877 391.773988 
L 115.207261 380.372283 
L 124.794645 370.526123 
L 134.382029 361.80982 
L 143.969413 353.956792 
L 153.556797 346.787975 
L 163.144181 340.176731 
L 172.731565 334.029886 
L 182.318949 328.276701 
L 191.906333 322.862085 
L 201.493718 317.742217 
L 211.081102 312.88161 
L 220.668486 308.251088 
L 230.25587 303.826346 
L 239.843254 299.586899 
L 249.430638 295.515308 
L 259.018022 291.596594 
L 268.605406 287.817785 
L 278.19279 284.167565 
L 287.780174 280.635999 
L 297.367558 277.214315 
L 306.954942 273.894721 
L 316.542326 270.670264 
L 326.12971 267.534709 
L 335.717094 264.482446 
L 345.304478 261.508401 
L 354.891862 258.607975 
L 364.479246 255.776978 
L 374.06663 253.011587 
L 383.654014 250.308302 
L 393.241398 247.663908 
L 402.828782 245.075444 
L 412.416167 242.540179 
L 422.003551 240.055586 
L 431.590935 237.619324 
L 441.178319 235.229217 
L 450.765703 232.883239 
L 460.353087 230.579503 
L 469.940471 228.316246 
L 479.527855 226.091816 
L 489.115239 223.904668 
L 498.702623 221.753351 
L 508.290007 219.6365 
L 517.877391 217.552833 
L 527.464775 215.501138 
L 537.052159 213.480275 
" clip-path="url(#p8160643256)" style="fill: none; stroke-dasharray: 5.55,2.4; stroke-dashoffset: 0; stroke: #440154; stroke-width: 1.5"/>
   </g>
   <g id="patch_3">
    <path d="M 43.78125 528.04 
L 43.78125 22.32 
" style="fill: none; stroke: #000000; stroke-width: 0.8; stroke-linejoin: miter; stroke-linecap: square"/>
   </g>
   <g id="patch_4">
    <path d="M 560.54125 528.04 
L 560.54125 22.32 
" style="fill: none; stroke: #000000; stroke-width: 0.8; stroke-linejoin: miter; stroke-linecap: square"/>
   </g>
   <g id="patch_5">
    <path d="M 43.78125 528.04 
L 560.54125 528.04 
" style="fill: none; stroke: #000000; stroke-width: 0.8; stroke-linejoin: miter; stroke-linecap: square"/>
   </g>
   <g id="patch_6">
    <path d="M 43.78125 22.32 
L 560.54125 22.32 
" style="fill: none; stroke: #000000; stroke-width: 0.8; stroke-linejoin: miter; stroke-linecap: square"/>
   </g>
   <g id="text_17">
    <!-- Variogram: Z-axis $[0,0,1]$ -->
    <g transform="translate(224.46125 16.32) scale(0.12 -0.12)">
     <defs>
      <path id="DejaVuSans-56" d="M 1831 0 
L 50 4666 
L 709 4666 
L 2188 738 
L 3669 4666 
L 4325 4666 
L 2547 0 
L 1831 0 
z
" transform="scale(0.015625)"/>
      <path id="DejaVuSans-72" d="M 2631 2963 
Q 2534 3019 2420 3045 
Q 2306 3072 2169 3072 
Q 1681 3072 1420 2755 
Q 1159 2438 1159 1844 
L 1159 0 
L 581 0 
L 581 3500 
L 1159 3500 
L 1159 2956 
Q 1341 3275 1631 3429 
Q 1922 3584 2338 3584 
Q 2397 3584 2469 3576 
Q 2541 3569 2628 3553 
L 2631 2963 
z
" transform="scale(0.015625)"/>
      <path id="DejaVuSans-6f" d="M 1959 3097 
Q 1497 3097 1228 2736 
Q 959 2375 959 1747 
Q 959 1119 1226 758 
Q 1494 397 1959 397 
Q 2419 397 2687 759 
Q 2956 1122 2956 1747 
Q 2956 2369 2687 2733 
Q 2419 3097 1959 3097 
z
M 1959 3584 
Q 2709 3584 3137 3096 
Q 3566 2609 3566 1747 
Q 3566 888 3137 398 
Q 2709 -91 1959 -91 
Q 1206 -91 779 398 
Q 353 888 353 1747 
Q 353 2609 779 3096 
Q 1206 3584 1959 3584 
z
" transform="scale(0.015625)"/>
      <path id="DejaVuSans-67" d="M 2906 1791 
Q 2906 2416 2648 2759 
Q 2391 3103 1925 3103 
Q 1463 3103 1205 2759 
Q 947 2416 947 1791 
Q 947 1169 1205 825 
Q 1463 481 1925 481 
Q 2391 481 2648 825 
Q 2906 1169 2906 1791 
z
M 3481 434 
Q 3481 -459 3084 -895 
Q 2688 -1331 1869 -1331 
Q 1566 -1331 1297 -1286 
Q 1028 -1241 775 -1147 
L 775 -588 
Q 1028 -725 1275 -790 
Q 1522 -856 1778 -856 
Q 2344 -856 2625 -561 
Q 2906 -266 2906 331 
L 2906 616 
Q 2728 306 2450 153 
Q 2172 0 1784 0 
Q 1141 0 747 490 
Q 353 981 353 1791 
Q 353 2603 747 3093 
Q 1141 3584 1784 3584 
Q 2172 3584 2450 3431 
Q 2728 3278 2906 2969 
L 2906 3500 
L 3481 3500 
L 3481 434 
z
" transform="scale(0.015625)"/>
      <path id="DejaVuSans-6d" d="M 3328 2828 
Q 3544 3216 3844 3400 
Q 4144 3584 4550 3584 
Q 5097 3584 5394 3201 
Q 5691 2819 5691 2113 
L 5691 0 
L 5113 0 
L 5113 2094 
Q 5113 2597 4934 2840 
Q 4756 3084 4391 3084 
Q 3944 3084 3684 2787 
Q 3425 2491 3425 1978 
L 3425 0 
L 2847 0 
L 2847 2094 
Q 2847 2600 2669 2842 
Q 2491 3084 2119 3084 
Q 1678 3084 1418 2786 
Q 1159 2488 1159 1978 
L 1159 0 
L 581 0 
L 581 3500 
L 1159 3500 
L 1159 2956 
Q 1356 3278 1631 3431 
Q 1906 3584 2284 3584 
Q 2666 3584 2933 3390 
Q 3200 3197 3328 2828 
z
" transform="scale(0.015625)"/>
      <path id="DejaVuSans-3a" d="M 750 794 
L 1409 794 
L 1409 0 
L 750 0 
L 750 794 
z
M 750 3309 
L 1409 3309 
L 1409 2516 
L 750 2516 
L 750 3309 
z
" transform="scale(0.015625)"/>
      <path id="DejaVuSans-20" transform="scale(0.015625)"/>
      <path id="DejaVuSans-5a" d="M 359 4666 
L 4025 4666 
L 4025 4184 
L 1075 531 
L 4097 531 
L 4097 0 
L 288 0 
L 288 481 
L 3238 4134 
L 359 4134 
L 359 4666 
z
" transform="scale(0.015625)"/>
      <path id="DejaVuSans-2d" d="M 313 2009 
L 1997 2009 
L 1997 1497 
L 313 1497 
L 313 2009 
z
" transform="scale(0.015625)"/>
      <path id="DejaVuSans-78" d="M 3513 3500 
L 2247 1797 
L 3578 0 
L 2900 0 
L 1881 1375 
L 863 0 
L 184 0 
L 1544 1831 
L 300 3500 
L 978 3500 
L 1906 2253 
L 2834 3500 
L 3513 3500 
z
" transform="scale(0.015625)"/>
      <path id="DejaVuSans-5b" d="M 550 4863 
L 1875 4863 
L 1875 4416 
L 1125 4416 
L 1125 -397 
L 1875 -397 
L 1875 -844 
L 550 -844 
L 550 4863 
z
" transform="scale(0.015625)"/>
      <path id="DejaVuSans-2c" d="M 750 794 
L 1409 794 
L 1409 256 
L 897 -744 
L 494 -744 
L 750 256 
L 750 794 
z
" transform="scale(0.015625)"/>
      <path id="DejaVuSans-5d" d="M 1947 4863 
L 1947 -844 
L 622 -844 
L 622 -397 
L 1369 -397 
L 1369 4416 
L 622 4416 
L 622 4863 
L 1947 4863 
z
" transform="scale(0.015625)"/>
     </defs>
     <use xlink:href="#DejaVuSans-56" transform="translate(0 0.015625)"/>
     <use xlink:href="#DejaVuSans-61" transform="translate(68.408203 0.015625)"/>
     <use xlink:href="#DejaVuSans-72" transform="translate(129.6875 0.015625)"/>
     <use xlink:href="#DejaVuSans-69" transform="translate(170.800781 0.015625)"/>
     <use xlink:href="#DejaVuSans-6f" transform="translate(198.583984 0.015625)"/>
     <use xlink:href="#DejaVuSans-67" transform="translate(259.765625 0.015625)"/>
     <use xlink:href="#DejaVuSans-72" transform="translate(323.242188 0.015625)"/>
     <use xlink:href="#DejaVuSans-61" transform="translate(364.355469 0.015625)"/>
     <use xlink:href="#DejaVuSans-6d" transform="translate(425.634766 0.015625)"/>
     <use xlink:href="#DejaVuSans-3a" transform="translate(521.296875 0.015625)"/>
     <use xlink:href="#DejaVuSans-20" transform="translate(554.988281 0.015625)"/>
     <use xlink:href="#DejaVuSans-5a" transform="translate(586.775391 0.015625)"/>
     <use xlink:href="#DejaVuSans-2d" transform="translate(655.28125 0.015625)"/>
     <use xlink:href="#DejaVuSans-61" transform="translate(691.365234 0.015625)"/>
     <use xlink:href="#DejaVuSans-78" transform="translate(752.644531 0.015625)"/>
     <use xlink:href="#DejaVuSans-69" transform="translate(811.824219 0.015625)"/>
     <use xlink:href="#DejaVuSans-73" transform="translate(839.607422 0.015625)"/>
     <use xlink:href="#DejaVuSans-20" transform="translate(891.707031 0.015625)"/>
     <use xlink:href="#DejaVuSans-5b" transform="translate(923.494141 0.015625)"/>
     <use xlink:href="#DejaVuSans-30" transform="translate(962.507812 0.015625)"/>
     <use xlink:href="#DejaVuSans-2c" transform="translate(1026.130859 0.015625)"/>
     <use xlink:href="#DejaVuSans-30" transform="translate(1077.400391 0.015625)"/>
     <use xlink:href="#DejaVuSans-2c" transform="translate(1141.023438 0.015625)"/>
     <use xlink:href="#DejaVuSans-31" transform="translate(1192.292969 0.015625)"/>
     <use xlink:href="#DejaVuSans-5d" transform="translate(1255.916016 0.015625)"/>
    </g>
   </g>
   <g id="legend_1">
    <g id="patch_7">
     <path d="M 475.087164 62.765534 
L 554.71025 62.765534 
Q 556.37625 62.765534 556.37625 61.099534 
L 556.37625 28.151 
Q 556.37625 26.485 554.71025 26.485 
L 475.087164 26.485 
Q 473.421164 26.485 473.421164 28.151 
L 473.421164 61.099534 
Q 473.421164 62.765534 475.087164 62.765534 
z
" style="fill: #ffffff; opacity: 0.8; stroke: #cccccc; stroke-linejoin: miter"/>
    </g>
    <g id="line2d_17">
     <g>
      <use xlink:href="#m00c2e71707" x="485.083164" y="33.230998" style="stroke: #000000"/>
     </g>
    </g>
    <g id="text_18">
     <!-- Estimated -->
     <g transform="translate(500.077164 36.146498) scale(0.0833 -0.0833)">
      <defs>
       <path id="DejaVuSans-45" d="M 628 4666 
L 3578 4666 
L 3578 4134 
L 1259 4134 
L 1259 2753 
L 3481 2753 
L 3481 2222 
L 1259 2222 
L 1259 531 
L 3634 531 
L 3634 0 
L 628 0 
L 628 4666 
z
" transform="scale(0.015625)"/>
       <path id="DejaVuSans-64" d="M 2906 2969 
L 2906 4863 
L 3481 4863 
L 3481 0 
L 2906 0 
L 2906 525 
Q 2725 213 2448 61 
Q 2172 -91 1784 -91 
Q 1150 -91 751 415 
Q 353 922 353 1747 
Q 353 2572 751 3078 
Q 1150 3584 1784 3584 
Q 2172 3584 2448 3432 
Q 2725 3281 2906 2969 
z
M 947 1747 
Q 947 1113 1208 752 
Q 1469 391 1925 391 
Q 2381 391 2643 752 
Q 2906 1113 2906 1747 
Q 2906 2381 2643 2742 
Q 2381 3103 1925 3103 
Q 1469 3103 1208 2742 
Q 947 2381 947 1747 
z
" transform="scale(0.015625)"/>
      </defs>
      <use xlink:href="#DejaVuSans-45"/>
      <use xlink:href="#DejaVuSans-73" x="63.183594"/>
      <use xlink:href="#DejaVuSans-74" x="115.283203"/>
      <use xlink:href="#DejaVuSans-69" x="154.492188"/>
      <use xlink:href="#DejaVuSans-6d" x="182.275391"/>
      <use xlink:href="#DejaVuSans-61" x="279.6875"/>
      <use xlink:href="#DejaVuSans-74" x="340.966797"/>
      <use xlink:href="#DejaVuSans-65" x="380.175781"/>
      <use xlink:href="#DejaVuSans-64" x="441.699219"/>
     </g>
    </g>
    <g id="line2d_18">
     <path d="M 476.753164 50.987955 
L 485.083164 50.987955 
L 493.413164 50.987955 
" style="fill: none; stroke-dasharray: 5.55,2.4; stroke-dashoffset: 0; stroke: #440154; stroke-width: 1.5"/>
    </g>
    <g id="text_19">
     <!-- TLPGaussian -->
     <g transform="translate(500.077164 48.373377) scale(0.0833 -0.0833)">
      <defs>
       <path id="DejaVuSans-54" d="M -19 4666 
L 3928 4666 
L 3928 4134 
L 2272 4134 
L 2272 0 
L 1638 0 
L 1638 4134 
L -19 4134 
L -19 4666 
z
" transform="scale(0.015625)"/>
       <path id="DejaVuSans-4c" d="M 628 4666 
L 1259 4666 
L 1259 531 
L 3531 531 
L 3531 0 
L 628 0 
L 628 4666 
z
" transform="scale(0.015625)"/>
       <path id="DejaVuSans-50" d="M 1259 4147 
L 1259 2394 
L 2053 2394 
Q 2494 2394 2734 2622 
Q 2975 2850 2975 3272 
Q 2975 3691 2734 3919 
Q 2494 4147 2053 4147 
L 1259 4147 
z
M 628 4666 
L 2053 4666 
Q 2838 4666 3239 4311 
Q 3641 3956 3641 3272 
Q 3641 2581 3239 2228 
Q 2838 1875 2053 1875 
L 1259 1875 
L 1259 0 
L 628 0 
L 628 4666 
z
" transform="scale(0.015625)"/>
       <path id="DejaVuSans-47" d="M 3809 666 
L 3809 1919 
L 2778 1919 
L 2778 2438 
L 4434 2438 
L 4434 434 
Q 4069 175 3628 42 
Q 3188 -91 2688 -91 
Q 1594 -91 976 548 
Q 359 1188 359 2328 
Q 359 3472 976 4111 
Q 1594 4750 2688 4750 
Q 3144 4750 3555 4637 
Q 3966 4525 4313 4306 
L 4313 3634 
Q 3963 3931 3569 4081 
Q 3175 4231 2741 4231 
Q 1884 4231 1454 3753 
Q 1025 3275 1025 2328 
Q 1025 1384 1454 906 
Q 1884 428 2741 428 
Q 3075 428 3337 486 
Q 3600 544 3809 666 
z
" transform="scale(0.015625)"/>
       <path id="DejaVuSans-75" d="M 544 1381 
L 544 3500 
L 1119 3500 
L 1119 1403 
Q 1119 906 1312 657 
Q 1506 409 1894 409 
Q 2359 409 2629 706 
Q 2900 1003 2900 1516 
L 2900 3500 
L 3475 3500 
L 3475 0 
L 2900 0 
L 2900 538 
Q 2691 219 2414 64 
Q 2138 -91 1772 -91 
Q 1169 -91 856 284 
Q 544 659 544 1381 
z
M 1991 3584 
L 1991 3584 
z
" transform="scale(0.015625)"/>
      </defs>
      <use xlink:href="#DejaVuSans-54"/>
      <use xlink:href="#DejaVuSans-4c" x="61.083984"/>
      <use xlink:href="#DejaVuSans-50" x="116.796875"/>
      <use xlink:href="#DejaVuSans-47" x="177.099609"/>
      <use xlink:href="#DejaVuSans-61" x="254.589844"/>
      <use xlink:href="#DejaVuSans-75" x="315.869141"/>
      <use xlink:href="#DejaVuSans-73" x="379.248047"/>
      <use xlink:href="#DejaVuSans-73" x="431.347656"/>
      <use xlink:href="#DejaVuSans-69" x="483.447266"/>
      <use xlink:href="#DejaVuSans-61" x="511.230469"/>
      <use xlink:href="#DejaVuSans-6e" x="572.509766"/>
     </g>
     <!-- $r^2$ = 0.36 -->
     <g transform="translate(500.077164 57.701154) scale(0.0833 -0.0833)">
      <defs>
       <path id="DejaVuSans-Oblique-72" d="M 2853 2969 
Q 2766 3016 2653 3041 
Q 2541 3066 2413 3066 
Q 1953 3066 1609 2717 
Q 1266 2369 1153 1784 
L 800 0 
L 225 0 
L 909 3500 
L 1484 3500 
L 1375 2956 
Q 1603 3259 1920 3421 
Q 2238 3584 2597 3584 
Q 2691 3584 2781 3573 
Q 2872 3563 2963 3538 
L 2853 2969 
z
" transform="scale(0.015625)"/>
       <path id="DejaVuSans-3d" d="M 678 2906 
L 4684 2906 
L 4684 2381 
L 678 2381 
L 678 2906 
z
M 678 1631 
L 4684 1631 
L 4684 1100 
L 678 1100 
L 678 1631 
z
" transform="scale(0.015625)"/>
      </defs>
      <use xlink:href="#DejaVuSans-Oblique-72" transform="translate(0 0.765625)"/>
      <use xlink:href="#DejaVuSans-32" transform="translate(45.763177 39.046875) scale(0.7)"/>
      <use xlink:href="#DejaVuSans-20" transform="translate(93.033685 0.765625)"/>
      <use xlink:href="#DejaVuSans-3d" transform="translate(124.820794 0.765625)"/>
      <use xlink:href="#DejaVuSans-20" transform="translate(208.609857 0.765625)"/>
      <use xlink:href="#DejaVuSans-30" transform="translate(240.396966 0.765625)"/>
      <use xlink:href="#DejaVuSans-2e" transform="translate(304.020013 0.765625)"/>
      <use xlink:href="#DejaVuSans-33" transform="translate(335.807122 0.765625)"/>
      <use xlink:href="#DejaVuSans-36" transform="translate(399.430169 0.765625)"/>
     </g>
    </g>
   </g>
  </g>
 </g>
 <defs>
  <clipPath id="p8160643256">
   <rect x="43.78125" y="22.32" width="516.76" height="505.72"/>
  </clipPath>
 </defs>
</svg>
