<?xml version="1.0" encoding="utf-8" standalone="no"?>
<!DOCTYPE svg PUBLIC "-//W3C//DTD SVG 1.1//EN"
  "http://www.w3.org/Graphics/SVG/1.1/DTD/svg11.dtd">
<svg xmlns:xlink="http://www.w3.org/1999/xlink" width="227.676687pt" height="171.122813pt" viewBox="0 0 227.676687 171.122813" xmlns="http://www.w3.org/2000/svg" version="1.1">
 <metadata>
  <rdf:RDF xmlns:dc="http://purl.org/dc/elements/1.1/" xmlns:cc="http://creativecommons.org/ns#" xmlns:rdf="http://www.w3.org/1999/02/22-rdf-syntax-ns#">
   <cc:Work>
    <dc:type rdf:resource="http://purl.org/dc/dcmitype/StillImage"/>
    <dc:date>2025-02-05T17:03:23.538364</dc:date>
    <dc:format>image/svg+xml</dc:format>
    <dc:creator>
     <cc:Agent>
      <dc:title>Matplotlib v3.9.3, https://matplotlib.org/</dc:title>
     </cc:Agent>
    </dc:creator>
   </cc:Work>
  </rdf:RDF>
 </metadata>
 <defs>
  <style type="text/css">*{stroke-linejoin: round; stroke-linecap: butt}</style>
 </defs>
 <g id="figure_1">
  <g id="patch_1">
   <path d="M 0 171.122813 
L 227.676687 171.122813 
L 227.676687 0 
L 0 0 
z
" style="fill: #ffffff"/>
  </g>
  <g id="axes_1">
   <g id="patch_2">
    <path d="M 39.936687 142.2 
L 224.076687 142.2 
L 224.076687 3.6 
L 39.936687 3.6 
z
" style="fill: #ffffff"/>
   </g>
   <g id="matplotlib.axis_1">
    <g id="xtick_1">
     <g id="line2d_1">
      <defs>
       <path id="m8fa04ab901" d="M 0 0 
L 0 -3 
" style="stroke: #000000; stroke-width: 0.5"/>
      </defs>
      <g>
       <use xlink:href="#m8fa04ab901" x="48.306687" y="142.2" style="stroke: #000000; stroke-width: 0.5"/>
      </g>
     </g>
     <g id="line2d_2">
      <defs>
       <path id="m954bb79b87" d="M 0 0 
L 0 3 
" style="stroke: #000000; stroke-width: 0.5"/>
      </defs>
      <g>
       <use xlink:href="#m954bb79b87" x="48.306687" y="3.6" style="stroke: #000000; stroke-width: 0.5"/>
      </g>
     </g>
     <g id="text_1">
      <!-- $\mathdefault{0}$ -->
      <g transform="translate(45.816027 152.454578) scale(0.1 -0.1)">
       <defs>
        <path id="NimbusRomNo9L-Regu-30" d="M 1626 4352 
C 1274 4352 1005 4244 768 4020 
C 397 3661 154 2925 154 2176 
C 154 1479 365 730 666 372 
C 902 90 1229 -64 1600 -64 
C 1926 -64 2202 45 2432 269 
C 2803 621 3046 1364 3046 2138 
C 3046 3450 2464 4352 1626 4352 
z
M 1606 4186 
C 2144 4186 2432 3463 2432 2125 
C 2432 788 2150 103 1600 103 
C 1050 103 768 788 768 2119 
C 768 3476 1056 4186 1606 4186 
z
" transform="scale(0.015625)"/>
       </defs>
       <use xlink:href="#NimbusRomNo9L-Regu-30" transform="scale(0.996264)"/>
      </g>
     </g>
    </g>
    <g id="xtick_2">
     <g id="line2d_3">
      <g>
       <use xlink:href="#m8fa04ab901" x="90.156687" y="142.2" style="stroke: #000000; stroke-width: 0.5"/>
      </g>
     </g>
     <g id="line2d_4">
      <g>
       <use xlink:href="#m954bb79b87" x="90.156687" y="3.6" style="stroke: #000000; stroke-width: 0.5"/>
      </g>
     </g>
     <g id="text_2">
      <!-- $\mathdefault{5}$ -->
      <g transform="translate(87.666027 152.454578) scale(0.1 -0.1)">
       <defs>
        <path id="NimbusRomNo9L-Regu-35" d="M 1158 3776 
L 2413 3776 
C 2515 3776 2541 3789 2560 3834 
L 2803 4403 
L 2746 4448 
C 2650 4314 2586 4282 2451 4282 
L 1114 4282 
L 416 2759 
C 410 2746 410 2740 410 2727 
C 410 2695 435 2676 486 2676 
C 691 2676 947 2631 1210 2547 
C 1946 2309 2285 1910 2285 1274 
C 2285 656 1894 173 1395 173 
C 1267 173 1158 218 966 360 
C 762 508 614 572 480 572 
C 294 572 205 495 205 334 
C 205 90 506 -64 986 -64 
C 1523 -64 1984 110 2304 438 
C 2598 728 2733 1094 2733 1583 
C 2733 2046 2611 2342 2291 2663 
C 2010 2947 1645 3094 890 3229 
L 1158 3776 
z
" transform="scale(0.015625)"/>
       </defs>
       <use xlink:href="#NimbusRomNo9L-Regu-35" transform="scale(0.996264)"/>
      </g>
     </g>
    </g>
    <g id="xtick_3">
     <g id="line2d_5">
      <g>
       <use xlink:href="#m8fa04ab901" x="132.006687" y="142.2" style="stroke: #000000; stroke-width: 0.5"/>
      </g>
     </g>
     <g id="line2d_6">
      <g>
       <use xlink:href="#m954bb79b87" x="132.006687" y="3.6" style="stroke: #000000; stroke-width: 0.5"/>
      </g>
     </g>
     <g id="text_3">
      <!-- $\mathdefault{10}$ -->
      <g transform="translate(127.025367 152.454578) scale(0.1 -0.1)">
       <defs>
        <path id="NimbusRomNo9L-Regu-31" d="M 1862 4339 
L 710 3757 
L 710 3667 
C 787 3699 858 3725 883 3738 
C 998 3783 1107 3808 1171 3808 
C 1306 3808 1363 3711 1363 3505 
L 1363 592 
C 1363 379 1312 232 1210 173 
C 1114 116 1024 96 755 96 
L 755 0 
L 2522 0 
L 2522 96 
C 2016 96 1914 160 1914 470 
L 1914 4327 
L 1862 4339 
z
" transform="scale(0.015625)"/>
       </defs>
       <use xlink:href="#NimbusRomNo9L-Regu-31" transform="scale(0.996264)"/>
       <use xlink:href="#NimbusRomNo9L-Regu-30" transform="translate(49.8132 0) scale(0.996264)"/>
      </g>
     </g>
    </g>
    <g id="xtick_4">
     <g id="line2d_7">
      <g>
       <use xlink:href="#m8fa04ab901" x="173.856687" y="142.2" style="stroke: #000000; stroke-width: 0.5"/>
      </g>
     </g>
     <g id="line2d_8">
      <g>
       <use xlink:href="#m954bb79b87" x="173.856687" y="3.6" style="stroke: #000000; stroke-width: 0.5"/>
      </g>
     </g>
     <g id="text_4">
      <!-- $\mathdefault{15}$ -->
      <g transform="translate(168.875367 152.454578) scale(0.1 -0.1)">
       <use xlink:href="#NimbusRomNo9L-Regu-31" transform="scale(0.996264)"/>
       <use xlink:href="#NimbusRomNo9L-Regu-35" transform="translate(49.8132 0) scale(0.996264)"/>
      </g>
     </g>
    </g>
    <g id="xtick_5">
     <g id="line2d_9">
      <g>
       <use xlink:href="#m8fa04ab901" x="215.706687" y="142.2" style="stroke: #000000; stroke-width: 0.5"/>
      </g>
     </g>
     <g id="line2d_10">
      <g>
       <use xlink:href="#m954bb79b87" x="215.706687" y="3.6" style="stroke: #000000; stroke-width: 0.5"/>
      </g>
     </g>
     <g id="text_5">
      <!-- $\mathdefault{20}$ -->
      <g transform="translate(210.725367 152.454578) scale(0.1 -0.1)">
       <defs>
        <path id="NimbusRomNo9L-Regu-32" d="M 3040 875 
L 2957 907 
C 2720 544 2637 486 2349 486 
L 819 486 
L 1894 1609 
C 2464 2202 2714 2687 2714 3185 
C 2714 3823 2195 4313 1530 4313 
C 1178 4313 845 4173 608 3918 
C 403 3700 307 3496 198 3043 
L 333 3011 
C 589 3636 819 3840 1261 3840 
C 1798 3840 2163 3476 2163 2940 
C 2163 2443 1869 1850 1331 1282 
L 192 77 
L 192 0 
L 2688 0 
L 3040 875 
z
" transform="scale(0.015625)"/>
       </defs>
       <use xlink:href="#NimbusRomNo9L-Regu-32" transform="scale(0.996264)"/>
       <use xlink:href="#NimbusRomNo9L-Regu-30" transform="translate(49.8132 0) scale(0.996264)"/>
      </g>
     </g>
    </g>
    <g id="xtick_6">
     <g id="line2d_11">
      <defs>
       <path id="m40f79899ec" d="M 0 0 
L 0 -1.5 
" style="stroke: #000000; stroke-width: 0.5"/>
      </defs>
      <g>
       <use xlink:href="#m40f79899ec" x="39.936687" y="142.2" style="stroke: #000000; stroke-width: 0.5"/>
      </g>
     </g>
     <g id="line2d_12">
      <defs>
       <path id="m639f6d3219" d="M 0 0 
L 0 1.5 
" style="stroke: #000000; stroke-width: 0.5"/>
      </defs>
      <g>
       <use xlink:href="#m639f6d3219" x="39.936687" y="3.6" style="stroke: #000000; stroke-width: 0.5"/>
      </g>
     </g>
    </g>
    <g id="xtick_7">
     <g id="line2d_13">
      <g>
       <use xlink:href="#m40f79899ec" x="56.676687" y="142.2" style="stroke: #000000; stroke-width: 0.5"/>
      </g>
     </g>
     <g id="line2d_14">
      <g>
       <use xlink:href="#m639f6d3219" x="56.676687" y="3.6" style="stroke: #000000; stroke-width: 0.5"/>
      </g>
     </g>
    </g>
    <g id="xtick_8">
     <g id="line2d_15">
      <g>
       <use xlink:href="#m40f79899ec" x="65.046687" y="142.2" style="stroke: #000000; stroke-width: 0.5"/>
      </g>
     </g>
     <g id="line2d_16">
      <g>
       <use xlink:href="#m639f6d3219" x="65.046687" y="3.6" style="stroke: #000000; stroke-width: 0.5"/>
      </g>
     </g>
    </g>
    <g id="xtick_9">
     <g id="line2d_17">
      <g>
       <use xlink:href="#m40f79899ec" x="73.416687" y="142.2" style="stroke: #000000; stroke-width: 0.5"/>
      </g>
     </g>
     <g id="line2d_18">
      <g>
       <use xlink:href="#m639f6d3219" x="73.416687" y="3.6" style="stroke: #000000; stroke-width: 0.5"/>
      </g>
     </g>
    </g>
    <g id="xtick_10">
     <g id="line2d_19">
      <g>
       <use xlink:href="#m40f79899ec" x="81.786687" y="142.2" style="stroke: #000000; stroke-width: 0.5"/>
      </g>
     </g>
     <g id="line2d_20">
      <g>
       <use xlink:href="#m639f6d3219" x="81.786687" y="3.6" style="stroke: #000000; stroke-width: 0.5"/>
      </g>
     </g>
    </g>
    <g id="xtick_11">
     <g id="line2d_21">
      <g>
       <use xlink:href="#m40f79899ec" x="98.526687" y="142.2" style="stroke: #000000; stroke-width: 0.5"/>
      </g>
     </g>
     <g id="line2d_22">
      <g>
       <use xlink:href="#m639f6d3219" x="98.526687" y="3.6" style="stroke: #000000; stroke-width: 0.5"/>
      </g>
     </g>
    </g>
    <g id="xtick_12">
     <g id="line2d_23">
      <g>
       <use xlink:href="#m40f79899ec" x="106.896687" y="142.2" style="stroke: #000000; stroke-width: 0.5"/>
      </g>
     </g>
     <g id="line2d_24">
      <g>
       <use xlink:href="#m639f6d3219" x="106.896687" y="3.6" style="stroke: #000000; stroke-width: 0.5"/>
      </g>
     </g>
    </g>
    <g id="xtick_13">
     <g id="line2d_25">
      <g>
       <use xlink:href="#m40f79899ec" x="115.266687" y="142.2" style="stroke: #000000; stroke-width: 0.5"/>
      </g>
     </g>
     <g id="line2d_26">
      <g>
       <use xlink:href="#m639f6d3219" x="115.266687" y="3.6" style="stroke: #000000; stroke-width: 0.5"/>
      </g>
     </g>
    </g>
    <g id="xtick_14">
     <g id="line2d_27">
      <g>
       <use xlink:href="#m40f79899ec" x="123.636687" y="142.2" style="stroke: #000000; stroke-width: 0.5"/>
      </g>
     </g>
     <g id="line2d_28">
      <g>
       <use xlink:href="#m639f6d3219" x="123.636687" y="3.6" style="stroke: #000000; stroke-width: 0.5"/>
      </g>
     </g>
    </g>
    <g id="xtick_15">
     <g id="line2d_29">
      <g>
       <use xlink:href="#m40f79899ec" x="140.376687" y="142.2" style="stroke: #000000; stroke-width: 0.5"/>
      </g>
     </g>
     <g id="line2d_30">
      <g>
       <use xlink:href="#m639f6d3219" x="140.376687" y="3.6" style="stroke: #000000; stroke-width: 0.5"/>
      </g>
     </g>
    </g>
    <g id="xtick_16">
     <g id="line2d_31">
      <g>
       <use xlink:href="#m40f79899ec" x="148.746687" y="142.2" style="stroke: #000000; stroke-width: 0.5"/>
      </g>
     </g>
     <g id="line2d_32">
      <g>
       <use xlink:href="#m639f6d3219" x="148.746687" y="3.6" style="stroke: #000000; stroke-width: 0.5"/>
      </g>
     </g>
    </g>
    <g id="xtick_17">
     <g id="line2d_33">
      <g>
       <use xlink:href="#m40f79899ec" x="157.116687" y="142.2" style="stroke: #000000; stroke-width: 0.5"/>
      </g>
     </g>
     <g id="line2d_34">
      <g>
       <use xlink:href="#m639f6d3219" x="157.116687" y="3.6" style="stroke: #000000; stroke-width: 0.5"/>
      </g>
     </g>
    </g>
    <g id="xtick_18">
     <g id="line2d_35">
      <g>
       <use xlink:href="#m40f79899ec" x="165.486687" y="142.2" style="stroke: #000000; stroke-width: 0.5"/>
      </g>
     </g>
     <g id="line2d_36">
      <g>
       <use xlink:href="#m639f6d3219" x="165.486687" y="3.6" style="stroke: #000000; stroke-width: 0.5"/>
      </g>
     </g>
    </g>
    <g id="xtick_19">
     <g id="line2d_37">
      <g>
       <use xlink:href="#m40f79899ec" x="182.226687" y="142.2" style="stroke: #000000; stroke-width: 0.5"/>
      </g>
     </g>
     <g id="line2d_38">
      <g>
       <use xlink:href="#m639f6d3219" x="182.226687" y="3.6" style="stroke: #000000; stroke-width: 0.5"/>
      </g>
     </g>
    </g>
    <g id="xtick_20">
     <g id="line2d_39">
      <g>
       <use xlink:href="#m40f79899ec" x="190.596687" y="142.2" style="stroke: #000000; stroke-width: 0.5"/>
      </g>
     </g>
     <g id="line2d_40">
      <g>
       <use xlink:href="#m639f6d3219" x="190.596687" y="3.6" style="stroke: #000000; stroke-width: 0.5"/>
      </g>
     </g>
    </g>
    <g id="xtick_21">
     <g id="line2d_41">
      <g>
       <use xlink:href="#m40f79899ec" x="198.966687" y="142.2" style="stroke: #000000; stroke-width: 0.5"/>
      </g>
     </g>
     <g id="line2d_42">
      <g>
       <use xlink:href="#m639f6d3219" x="198.966687" y="3.6" style="stroke: #000000; stroke-width: 0.5"/>
      </g>
     </g>
    </g>
    <g id="xtick_22">
     <g id="line2d_43">
      <g>
       <use xlink:href="#m40f79899ec" x="207.336687" y="142.2" style="stroke: #000000; stroke-width: 0.5"/>
      </g>
     </g>
     <g id="line2d_44">
      <g>
       <use xlink:href="#m639f6d3219" x="207.336687" y="3.6" style="stroke: #000000; stroke-width: 0.5"/>
      </g>
     </g>
    </g>
    <g id="xtick_23">
     <g id="line2d_45">
      <g>
       <use xlink:href="#m40f79899ec" x="224.076687" y="142.2" style="stroke: #000000; stroke-width: 0.5"/>
      </g>
     </g>
     <g id="line2d_46">
      <g>
       <use xlink:href="#m639f6d3219" x="224.076687" y="3.6" style="stroke: #000000; stroke-width: 0.5"/>
      </g>
     </g>
    </g>
    <g id="text_6">
     <!-- Distance -->
     <g transform="translate(114.577311 165.365984) scale(0.1 -0.1)">
      <defs>
       <path id="NimbusRomNo9L-Regu-44" d="M 666 679 
C 666 217 589 134 102 134 
L 102 0 
L 1920 0 
C 2662 0 3334 210 3731 568 
C 4147 944 4384 1512 4384 2131 
C 4384 2706 4192 3203 3840 3554 
C 3405 3994 2707 4224 1830 4224 
L 102 4224 
L 102 4102 
C 608 4057 666 4000 666 3525 
L 666 679 
z
M 1318 3738 
C 1318 3936 1389 3987 1651 3987 
C 2202 3987 2618 3885 2925 3668 
C 3424 3323 3686 2775 3686 2087 
C 3686 1334 3424 798 2906 498 
C 2579 314 2208 237 1651 237 
C 1395 237 1318 294 1318 498 
L 1318 3738 
z
" transform="scale(0.015625)"/>
       <path id="NimbusRomNo9L-Regu-69" d="M 1120 2929 
L 128 2579 
L 128 2484 
L 179 2490 
C 256 2502 339 2509 397 2509 
C 550 2509 608 2406 608 2125 
L 608 640 
C 608 179 544 109 102 109 
L 102 0 
L 1619 0 
L 1619 96 
C 1197 128 1146 191 1146 650 
L 1146 2910 
L 1120 2929 
z
M 819 4352 
C 646 4352 499 4205 499 4026 
C 499 3847 640 3699 819 3699 
C 1005 3699 1152 3840 1152 4026 
C 1152 4205 1005 4352 819 4352 
z
" transform="scale(0.015625)"/>
       <path id="NimbusRomNo9L-Regu-73" d="M 2016 2010 
L 1990 2880 
L 1920 2880 
L 1907 2867 
C 1850 2822 1843 2816 1818 2816 
C 1779 2816 1715 2829 1645 2861 
C 1504 2915 1363 2944 1197 2944 
C 691 2944 326 2616 326 2154 
C 326 1796 531 1539 1075 1231 
L 1446 1020 
C 1670 892 1779 737 1779 539 
C 1779 256 1574 77 1248 77 
C 1030 77 832 159 710 298 
C 576 455 518 600 435 960 
L 333 960 
L 333 -39 
L 416 -39 
C 461 33 486 48 563 48 
C 621 48 710 35 858 -2 
C 1037 -39 1210 -64 1325 -64 
C 1818 -64 2227 308 2227 757 
C 2227 1077 2074 1289 1690 1520 
L 998 1930 
C 819 2033 723 2194 723 2367 
C 723 2624 922 2803 1216 2803 
C 1581 2803 1773 2583 1920 2010 
L 2016 2010 
z
" transform="scale(0.015625)"/>
       <path id="NimbusRomNo9L-Regu-74" d="M 1632 2880 
L 986 2880 
L 986 3622 
C 986 3686 979 3706 941 3706 
C 896 3648 858 3590 813 3526 
C 570 3174 294 2867 192 2841 
C 122 2794 83 2748 83 2715 
C 83 2695 90 2682 109 2682 
L 448 2682 
L 448 751 
C 448 212 640 -64 1018 -64 
C 1331 -64 1574 90 1786 423 
L 1702 493 
C 1568 333 1459 269 1318 269 
C 1082 269 986 443 986 847 
L 986 2682 
L 1632 2682 
L 1632 2880 
z
" transform="scale(0.015625)"/>
       <path id="NimbusRomNo9L-Regu-61" d="M 2829 423 
C 2720 333 2643 301 2547 301 
C 2400 301 2355 390 2355 672 
L 2355 1920 
C 2355 2253 2323 2438 2227 2592 
C 2086 2822 1811 2944 1434 2944 
C 832 2944 358 2630 358 2227 
C 358 2080 486 1952 634 1952 
C 787 1952 922 2080 922 2221 
C 922 2246 915 2278 909 2323 
C 896 2381 890 2432 890 2477 
C 890 2650 1094 2790 1350 2790 
C 1664 2790 1837 2605 1837 2259 
L 1837 1869 
C 851 1472 742 1421 467 1178 
C 326 1050 237 832 237 621 
C 237 218 518 -64 909 -64 
C 1190 -64 1453 70 1843 403 
C 1875 70 1990 -64 2253 -64 
C 2470 -64 2605 13 2829 256 
L 2829 423 
z
M 1837 783 
C 1837 584 1805 526 1670 449 
C 1517 359 1338 301 1203 301 
C 979 301 800 520 800 796 
L 800 822 
C 800 1201 1062 1433 1837 1715 
L 1837 783 
z
" transform="scale(0.015625)"/>
       <path id="NimbusRomNo9L-Regu-6e" d="M 102 2579 
C 141 2598 205 2605 275 2605 
C 454 2605 512 2509 512 2195 
L 512 608 
C 512 243 442 154 115 128 
L 115 32 
L 1472 32 
L 1472 128 
C 1146 154 1050 230 1050 461 
L 1050 2259 
C 1357 2547 1498 2624 1709 2624 
C 2022 2624 2176 2426 2176 2003 
L 2176 666 
C 2176 262 2093 154 1773 128 
L 1773 32 
L 3104 32 
L 3104 128 
C 2790 160 2714 237 2714 550 
L 2714 2016 
C 2714 2618 2432 2976 1958 2976 
C 1664 2976 1466 2867 1030 2458 
L 1030 2963 
L 986 2976 
C 672 2861 454 2790 102 2688 
L 102 2579 
z
" transform="scale(0.015625)"/>
       <path id="NimbusRomNo9L-Regu-63" d="M 2547 998 
C 2240 550 2010 397 1645 397 
C 1062 397 653 909 653 1645 
C 653 2304 1005 2758 1523 2758 
C 1754 2758 1837 2688 1901 2451 
L 1939 2310 
C 1990 2131 2106 2016 2240 2016 
C 2406 2016 2547 2138 2547 2285 
C 2547 2643 2099 2944 1562 2944 
C 1248 2944 922 2816 659 2586 
C 339 2304 160 1869 160 1363 
C 160 531 666 -64 1376 -64 
C 1664 -64 1920 38 2150 237 
C 2323 390 2445 563 2637 941 
L 2547 998 
z
" transform="scale(0.015625)"/>
       <path id="NimbusRomNo9L-Regu-65" d="M 2611 1053 
C 2304 564 2029 378 1619 378 
C 1254 378 979 564 794 930 
C 678 1174 634 1386 621 1779 
L 2592 1779 
C 2541 2193 2477 2377 2317 2581 
C 2125 2811 1830 2944 1498 2944 
C 1178 2944 877 2829 634 2611 
C 333 2349 160 1894 160 1370 
C 160 486 621 -64 1357 -64 
C 1965 -64 2445 315 2714 1008 
L 2611 1053 
z
M 634 1984 
C 704 2479 922 2714 1312 2714 
C 1702 2714 1856 2535 1939 1984 
L 634 1984 
z
" transform="scale(0.015625)"/>
      </defs>
      <use xlink:href="#NimbusRomNo9L-Regu-44" transform="scale(0.996264)"/>
      <use xlink:href="#NimbusRomNo9L-Regu-69" transform="translate(71.929985 0) scale(0.996264)"/>
      <use xlink:href="#NimbusRomNo9L-Regu-73" transform="translate(99.625154 0) scale(0.996264)"/>
      <use xlink:href="#NimbusRomNo9L-Regu-74" transform="translate(138.378861 0) scale(0.996264)"/>
      <use xlink:href="#NimbusRomNo9L-Regu-61" transform="translate(166.07403 0) scale(0.996264)"/>
      <use xlink:href="#NimbusRomNo9L-Regu-6e" transform="translate(210.307599 0) scale(0.996264)"/>
      <use xlink:href="#NimbusRomNo9L-Regu-63" transform="translate(260.120799 0) scale(0.996264)"/>
      <use xlink:href="#NimbusRomNo9L-Regu-65" transform="translate(304.354368 0) scale(0.996264)"/>
     </g>
    </g>
   </g>
   <g id="matplotlib.axis_2">
    <g id="ytick_1">
     <g id="line2d_47">
      <defs>
       <path id="m08e89e671b" d="M 0 0 
L 3 0 
" style="stroke: #000000; stroke-width: 0.5"/>
      </defs>
      <g>
       <use xlink:href="#m08e89e671b" x="39.936687" y="135.9" style="stroke: #000000; stroke-width: 0.5"/>
      </g>
     </g>
     <g id="line2d_48">
      <defs>
       <path id="m83e08539df" d="M 0 0 
L -3 0 
" style="stroke: #000000; stroke-width: 0.5"/>
      </defs>
      <g>
       <use xlink:href="#m83e08539df" x="224.076687" y="135.9" style="stroke: #000000; stroke-width: 0.5"/>
      </g>
     </g>
     <g id="text_7">
      <!-- $\mathdefault{0}$ -->
      <g transform="translate(31.455367 139.277289) scale(0.1 -0.1)">
       <use xlink:href="#NimbusRomNo9L-Regu-30" transform="scale(0.996264)"/>
      </g>
     </g>
    </g>
    <g id="ytick_2">
     <g id="line2d_49">
      <g>
       <use xlink:href="#m08e89e671b" x="39.936687" y="90.93215" style="stroke: #000000; stroke-width: 0.5"/>
      </g>
     </g>
     <g id="line2d_50">
      <g>
       <use xlink:href="#m83e08539df" x="224.076687" y="90.93215" style="stroke: #000000; stroke-width: 0.5"/>
      </g>
     </g>
     <g id="text_8">
      <!-- $\mathdefault{500}$ -->
      <g transform="translate(21.492726 94.309439) scale(0.1 -0.1)">
       <use xlink:href="#NimbusRomNo9L-Regu-35" transform="scale(0.996264)"/>
       <use xlink:href="#NimbusRomNo9L-Regu-30" transform="translate(49.8132 0) scale(0.996264)"/>
       <use xlink:href="#NimbusRomNo9L-Regu-30" transform="translate(99.626401 0) scale(0.996264)"/>
      </g>
     </g>
    </g>
    <g id="ytick_3">
     <g id="line2d_51">
      <g>
       <use xlink:href="#m08e89e671b" x="39.936687" y="45.9643" style="stroke: #000000; stroke-width: 0.5"/>
      </g>
     </g>
     <g id="line2d_52">
      <g>
       <use xlink:href="#m83e08539df" x="224.076687" y="45.9643" style="stroke: #000000; stroke-width: 0.5"/>
      </g>
     </g>
     <g id="text_9">
      <!-- $\mathdefault{1000}$ -->
      <g transform="translate(16.511406 49.341589) scale(0.1 -0.1)">
       <use xlink:href="#NimbusRomNo9L-Regu-31" transform="scale(0.996264)"/>
       <use xlink:href="#NimbusRomNo9L-Regu-30" transform="translate(49.8132 0) scale(0.996264)"/>
       <use xlink:href="#NimbusRomNo9L-Regu-30" transform="translate(99.626401 0) scale(0.996264)"/>
       <use xlink:href="#NimbusRomNo9L-Regu-30" transform="translate(149.439601 0) scale(0.996264)"/>
      </g>
     </g>
    </g>
    <g id="ytick_4">
     <g id="line2d_53">
      <defs>
       <path id="m0fec0df355" d="M 0 0 
L 1.5 0 
" style="stroke: #000000; stroke-width: 0.5"/>
      </defs>
      <g>
       <use xlink:href="#m0fec0df355" x="39.936687" y="126.90643" style="stroke: #000000; stroke-width: 0.5"/>
      </g>
     </g>
     <g id="line2d_54">
      <defs>
       <path id="m54372f8b27" d="M 0 0 
L -1.5 0 
" style="stroke: #000000; stroke-width: 0.5"/>
      </defs>
      <g>
       <use xlink:href="#m54372f8b27" x="224.076687" y="126.90643" style="stroke: #000000; stroke-width: 0.5"/>
      </g>
     </g>
    </g>
    <g id="ytick_5">
     <g id="line2d_55">
      <g>
       <use xlink:href="#m0fec0df355" x="39.936687" y="117.91286" style="stroke: #000000; stroke-width: 0.5"/>
      </g>
     </g>
     <g id="line2d_56">
      <g>
       <use xlink:href="#m54372f8b27" x="224.076687" y="117.91286" style="stroke: #000000; stroke-width: 0.5"/>
      </g>
     </g>
    </g>
    <g id="ytick_6">
     <g id="line2d_57">
      <g>
       <use xlink:href="#m0fec0df355" x="39.936687" y="108.91929" style="stroke: #000000; stroke-width: 0.5"/>
      </g>
     </g>
     <g id="line2d_58">
      <g>
       <use xlink:href="#m54372f8b27" x="224.076687" y="108.91929" style="stroke: #000000; stroke-width: 0.5"/>
      </g>
     </g>
    </g>
    <g id="ytick_7">
     <g id="line2d_59">
      <g>
       <use xlink:href="#m0fec0df355" x="39.936687" y="99.92572" style="stroke: #000000; stroke-width: 0.5"/>
      </g>
     </g>
     <g id="line2d_60">
      <g>
       <use xlink:href="#m54372f8b27" x="224.076687" y="99.92572" style="stroke: #000000; stroke-width: 0.5"/>
      </g>
     </g>
    </g>
    <g id="ytick_8">
     <g id="line2d_61">
      <g>
       <use xlink:href="#m0fec0df355" x="39.936687" y="81.93858" style="stroke: #000000; stroke-width: 0.5"/>
      </g>
     </g>
     <g id="line2d_62">
      <g>
       <use xlink:href="#m54372f8b27" x="224.076687" y="81.93858" style="stroke: #000000; stroke-width: 0.5"/>
      </g>
     </g>
    </g>
    <g id="ytick_9">
     <g id="line2d_63">
      <g>
       <use xlink:href="#m0fec0df355" x="39.936687" y="72.94501" style="stroke: #000000; stroke-width: 0.5"/>
      </g>
     </g>
     <g id="line2d_64">
      <g>
       <use xlink:href="#m54372f8b27" x="224.076687" y="72.94501" style="stroke: #000000; stroke-width: 0.5"/>
      </g>
     </g>
    </g>
    <g id="ytick_10">
     <g id="line2d_65">
      <g>
       <use xlink:href="#m0fec0df355" x="39.936687" y="63.95144" style="stroke: #000000; stroke-width: 0.5"/>
      </g>
     </g>
     <g id="line2d_66">
      <g>
       <use xlink:href="#m54372f8b27" x="224.076687" y="63.95144" style="stroke: #000000; stroke-width: 0.5"/>
      </g>
     </g>
    </g>
    <g id="ytick_11">
     <g id="line2d_67">
      <g>
       <use xlink:href="#m0fec0df355" x="39.936687" y="54.95787" style="stroke: #000000; stroke-width: 0.5"/>
      </g>
     </g>
     <g id="line2d_68">
      <g>
       <use xlink:href="#m54372f8b27" x="224.076687" y="54.95787" style="stroke: #000000; stroke-width: 0.5"/>
      </g>
     </g>
    </g>
    <g id="ytick_12">
     <g id="line2d_69">
      <g>
       <use xlink:href="#m0fec0df355" x="39.936687" y="36.97073" style="stroke: #000000; stroke-width: 0.5"/>
      </g>
     </g>
     <g id="line2d_70">
      <g>
       <use xlink:href="#m54372f8b27" x="224.076687" y="36.97073" style="stroke: #000000; stroke-width: 0.5"/>
      </g>
     </g>
    </g>
    <g id="ytick_13">
     <g id="line2d_71">
      <g>
       <use xlink:href="#m0fec0df355" x="39.936687" y="27.97716" style="stroke: #000000; stroke-width: 0.5"/>
      </g>
     </g>
     <g id="line2d_72">
      <g>
       <use xlink:href="#m54372f8b27" x="224.076687" y="27.97716" style="stroke: #000000; stroke-width: 0.5"/>
      </g>
     </g>
    </g>
    <g id="ytick_14">
     <g id="line2d_73">
      <g>
       <use xlink:href="#m0fec0df355" x="39.936687" y="18.98359" style="stroke: #000000; stroke-width: 0.5"/>
      </g>
     </g>
     <g id="line2d_74">
      <g>
       <use xlink:href="#m54372f8b27" x="224.076687" y="18.98359" style="stroke: #000000; stroke-width: 0.5"/>
      </g>
     </g>
    </g>
    <g id="ytick_15">
     <g id="line2d_75">
      <g>
       <use xlink:href="#m0fec0df355" x="39.936687" y="9.99002" style="stroke: #000000; stroke-width: 0.5"/>
      </g>
     </g>
     <g id="line2d_76">
      <g>
       <use xlink:href="#m54372f8b27" x="224.076687" y="9.99002" style="stroke: #000000; stroke-width: 0.5"/>
      </g>
     </g>
    </g>
    <g id="text_10">
     <!-- Gamma -->
     <g transform="translate(10.354578 88.670679) rotate(-90) scale(0.1 -0.1)">
      <defs>
       <path id="NimbusRomNo9L-Regu-47" d="M 4538 2304 
L 2906 2304 
L 2906 2176 
C 3181 2176 3258 2157 3334 2105 
C 3430 2047 3469 1898 3469 1621 
L 3469 574 
C 3469 367 3078 192 2618 192 
C 1574 192 934 922 934 2112 
C 934 2714 1114 3296 1395 3610 
C 1677 3924 2074 4096 2509 4096 
C 2867 4096 3181 3975 3430 3744 
C 3622 3565 3725 3392 3885 3002 
L 4032 3002 
L 3981 4352 
L 3840 4352 
C 3802 4231 3686 4141 3552 4141 
C 3488 4141 3386 4160 3270 4205 
C 2982 4301 2688 4352 2400 4352 
C 1120 4352 205 3412 205 2106 
C 205 1479 378 999 736 621 
C 1165 180 1779 -64 2483 -64 
C 3034 -64 3834 160 4090 385 
L 4090 1694 
C 4090 2073 4166 2157 4538 2189 
L 4538 2304 
z
" transform="scale(0.015625)"/>
       <path id="NimbusRomNo9L-Regu-6d" d="M 122 2547 
C 205 2566 256 2573 326 2573 
C 493 2573 550 2470 550 2162 
L 550 539 
C 550 192 461 96 102 96 
L 102 0 
L 1523 0 
L 1523 96 
C 1184 96 1088 166 1088 418 
L 1088 2234 
C 1088 2246 1139 2310 1184 2355 
C 1344 2502 1619 2611 1843 2611 
C 2125 2611 2266 2385 2266 1932 
L 2266 528 
C 2266 167 2195 96 1830 96 
L 1830 0 
L 3264 0 
L 3264 96 
C 2899 96 2803 205 2803 603 
L 2803 2221 
C 2995 2496 3206 2611 3501 2611 
C 3866 2611 3981 2438 3981 1907 
L 3981 557 
C 3981 192 3930 141 3558 96 
L 3558 0 
L 4960 0 
L 4960 96 
L 4794 115 
C 4602 115 4518 230 4518 480 
L 4518 1802 
C 4518 2559 4269 2944 3776 2944 
C 3405 2944 3078 2778 2733 2407 
C 2618 2771 2400 2944 2054 2944 
C 1773 2944 1594 2854 1062 2451 
L 1062 2931 
L 1018 2944 
C 691 2822 474 2752 122 2656 
L 122 2547 
z
" transform="scale(0.015625)"/>
      </defs>
      <use xlink:href="#NimbusRomNo9L-Regu-47" transform="scale(0.996264)"/>
      <use xlink:href="#NimbusRomNo9L-Regu-61" transform="translate(71.929985 0) scale(0.996264)"/>
      <use xlink:href="#NimbusRomNo9L-Regu-6d" transform="translate(116.163554 0) scale(0.996264)"/>
      <use xlink:href="#NimbusRomNo9L-Regu-6d" transform="translate(193.671924 0) scale(0.996264)"/>
      <use xlink:href="#NimbusRomNo9L-Regu-61" transform="translate(271.180294 0) scale(0.996264)"/>
     </g>
    </g>
   </g>
   <g id="line2d_77">
    <defs>
     <path id="m96907bc29a" d="M 0 3 
C 0.795609 3 1.55874 2.683901 2.12132 2.12132 
C 2.683901 1.55874 3 0.795609 3 0 
C 3 -0.795609 2.683901 -1.55874 2.12132 -2.12132 
C 1.55874 -2.683901 0.795609 -3 0 -3 
C -0.795609 -3 -1.55874 -2.683901 -2.12132 -2.12132 
C -2.683901 -1.55874 -3 -0.795609 -3 0 
C -3 0.795609 -2.683901 1.55874 -2.12132 2.12132 
C -1.55874 2.683901 -0.795609 3 0 3 
z
" style="stroke: #000000"/>
    </defs>
    <g clip-path="url(#pca1e11044b)">
     <use xlink:href="#m96907bc29a" x="51.192894" y="135.9" style="stroke: #000000"/>
     <use xlink:href="#m96907bc29a" x="56.965307" y="9.9" style="stroke: #000000"/>
     <use xlink:href="#m96907bc29a" x="62.737721" y="47.283945" style="stroke: #000000"/>
     <use xlink:href="#m96907bc29a" x="68.510135" y="135.9" style="stroke: #000000"/>
     <use xlink:href="#m96907bc29a" x="74.282549" y="36.221062" style="stroke: #000000"/>
     <use xlink:href="#m96907bc29a" x="80.054963" y="40.475139" style="stroke: #000000"/>
     <use xlink:href="#m96907bc29a" x="85.827376" y="135.9" style="stroke: #000000"/>
     <use xlink:href="#m96907bc29a" x="91.59979" y="40.404771" style="stroke: #000000"/>
     <use xlink:href="#m96907bc29a" x="97.372204" y="56.250196" style="stroke: #000000"/>
     <use xlink:href="#m96907bc29a" x="103.144618" y="47.045817" style="stroke: #000000"/>
     <use xlink:href="#m96907bc29a" x="108.917031" y="47.050613" style="stroke: #000000"/>
     <use xlink:href="#m96907bc29a" x="114.689445" y="56.150507" style="stroke: #000000"/>
     <use xlink:href="#m96907bc29a" x="120.461859" y="37.6338" style="stroke: #000000"/>
     <use xlink:href="#m96907bc29a" x="126.234273" y="42.588224" style="stroke: #000000"/>
     <use xlink:href="#m96907bc29a" x="132.006687" y="41.622532" style="stroke: #000000"/>
     <use xlink:href="#m96907bc29a" x="137.7791" y="50.152961" style="stroke: #000000"/>
     <use xlink:href="#m96907bc29a" x="143.551514" y="39.288247" style="stroke: #000000"/>
     <use xlink:href="#m96907bc29a" x="149.323928" y="49.725773" style="stroke: #000000"/>
     <use xlink:href="#m96907bc29a" x="155.096342" y="52.147919" style="stroke: #000000"/>
     <use xlink:href="#m96907bc29a" x="160.868756" y="46.628893" style="stroke: #000000"/>
     <use xlink:href="#m96907bc29a" x="166.641169" y="50.398746" style="stroke: #000000"/>
     <use xlink:href="#m96907bc29a" x="172.413583" y="45.084507" style="stroke: #000000"/>
     <use xlink:href="#m96907bc29a" x="178.185997" y="45.264374" style="stroke: #000000"/>
     <use xlink:href="#m96907bc29a" x="183.958411" y="54.361027" style="stroke: #000000"/>
     <use xlink:href="#m96907bc29a" x="189.730825" y="46.755911" style="stroke: #000000"/>
     <use xlink:href="#m96907bc29a" x="195.503238" y="52.141793" style="stroke: #000000"/>
     <use xlink:href="#m96907bc29a" x="201.275652" y="48.1195" style="stroke: #000000"/>
     <use xlink:href="#m96907bc29a" x="207.048066" y="59.806358" style="stroke: #000000"/>
     <use xlink:href="#m96907bc29a" x="212.82048" y="67.274603" style="stroke: #000000"/>
    </g>
   </g>
   <g id="line2d_78">
    <path d="M 48.306687 48.833334 
L 51.723013 48.833334 
L 55.13934 48.833334 
L 58.555666 48.833334 
L 61.971993 48.833334 
L 65.388319 48.833334 
L 68.804646 48.833334 
L 72.220972 48.833334 
L 75.637299 48.833334 
L 79.053625 48.833334 
L 82.469952 48.833334 
L 85.886278 48.833334 
L 89.302605 48.833334 
L 92.718932 48.833334 
L 96.135258 48.833334 
L 99.551585 48.833334 
L 102.967911 48.833334 
L 106.384238 48.833334 
L 109.800564 48.833334 
L 113.216891 48.833334 
L 116.633217 48.833334 
L 120.049544 48.833334 
L 123.46587 48.833334 
L 126.882197 48.833334 
L 130.298523 48.833334 
L 133.71485 48.833334 
L 137.131176 48.833334 
L 140.547503 48.833334 
L 143.96383 48.833334 
L 147.380156 48.833334 
L 150.796483 48.833334 
L 154.212809 48.833334 
L 157.629136 48.833334 
L 161.045462 48.833334 
L 164.461789 48.833334 
L 167.878115 48.833334 
L 171.294442 48.833334 
L 174.710768 48.833334 
L 178.127095 48.833334 
L 181.543421 48.833334 
L 184.959748 48.833334 
L 188.376074 48.833334 
L 191.792401 48.833334 
L 195.208727 48.833334 
L 198.625054 48.833334 
L 202.041381 48.833334 
L 205.457707 48.833334 
L 208.874034 48.833334 
L 212.29036 48.833334 
L 215.706687 48.833334 
" clip-path="url(#pca1e11044b)" style="fill: none; stroke-dasharray: 3.7,1.6; stroke-dashoffset: 0; stroke: #440154"/>
   </g>
   <g id="line2d_79">
    <path d="M 48.306687 94.671176 
L 51.723013 48.833335 
L 55.13934 48.833335 
L 58.555666 48.833335 
L 61.971993 48.833335 
L 65.388319 48.833335 
L 68.804646 48.833335 
L 72.220972 48.833335 
L 75.637299 48.833335 
L 79.053625 48.833335 
L 82.469952 48.833335 
L 85.886278 48.833335 
L 89.302605 48.833335 
L 92.718932 48.833335 
L 96.135258 48.833335 
L 99.551585 48.833335 
L 102.967911 48.833335 
L 106.384238 48.833335 
L 109.800564 48.833335 
L 113.216891 48.833335 
L 116.633217 48.833335 
L 120.049544 48.833335 
L 123.46587 48.833335 
L 126.882197 48.833335 
L 130.298523 48.833335 
L 133.71485 48.833335 
L 137.131176 48.833335 
L 140.547503 48.833335 
L 143.96383 48.833335 
L 147.380156 48.833335 
L 150.796483 48.833335 
L 154.212809 48.833335 
L 157.629136 48.833335 
L 161.045462 48.833335 
L 164.461789 48.833335 
L 167.878115 48.833335 
L 171.294442 48.833335 
L 174.710768 48.833335 
L 178.127095 48.833335 
L 181.543421 48.833335 
L 184.959748 48.833335 
L 188.376074 48.833335 
L 191.792401 48.833335 
L 195.208727 48.833335 
L 198.625054 48.833335 
L 202.041381 48.833335 
L 205.457707 48.833335 
L 208.874034 48.833335 
L 212.29036 48.833335 
L 215.706687 48.833335 
" clip-path="url(#pca1e11044b)" style="fill: none; stroke-dasharray: 3.7,1.6; stroke-dashoffset: 0; stroke: #482878"/>
   </g>
   <g id="line2d_80">
    <path d="M 48.306687 93.858822 
L 51.723013 48.833335 
L 55.13934 48.833335 
L 58.555666 48.833335 
L 61.971993 48.833335 
L 65.388319 48.833335 
L 68.804646 48.833335 
L 72.220972 48.833335 
L 75.637299 48.833335 
L 79.053625 48.833335 
L 82.469952 48.833335 
L 85.886278 48.833335 
L 89.302605 48.833335 
L 92.718932 48.833335 
L 96.135258 48.833335 
L 99.551585 48.833335 
L 102.967911 48.833335 
L 106.384238 48.833335 
L 109.800564 48.833335 
L 113.216891 48.833335 
L 116.633217 48.833335 
L 120.049544 48.833335 
L 123.46587 48.833335 
L 126.882197 48.833335 
L 130.298523 48.833335 
L 133.71485 48.833335 
L 137.131176 48.833335 
L 140.547503 48.833335 
L 143.96383 48.833335 
L 147.380156 48.833335 
L 150.796483 48.833335 
L 154.212809 48.833335 
L 157.629136 48.833335 
L 161.045462 48.833335 
L 164.461789 48.833335 
L 167.878115 48.833335 
L 171.294442 48.833335 
L 174.710768 48.833335 
L 178.127095 48.833335 
L 181.543421 48.833335 
L 184.959748 48.833335 
L 188.376074 48.833335 
L 191.792401 48.833335 
L 195.208727 48.833335 
L 198.625054 48.833335 
L 202.041381 48.833335 
L 205.457707 48.833335 
L 208.874034 48.833335 
L 212.29036 48.833335 
L 215.706687 48.833335 
" clip-path="url(#pca1e11044b)" style="fill: none; stroke-dasharray: 3.7,1.6; stroke-dashoffset: 0; stroke: #3e4989"/>
   </g>
   <g id="line2d_81">
    <path d="M 48.306687 104.979903 
L 51.723013 48.833335 
L 55.13934 48.833335 
L 58.555666 48.833335 
L 61.971993 48.833335 
L 65.388319 48.833335 
L 68.804646 48.833335 
L 72.220972 48.833335 
L 75.637299 48.833335 
L 79.053625 48.833335 
L 82.469952 48.833335 
L 85.886278 48.833335 
L 89.302605 48.833335 
L 92.718932 48.833335 
L 96.135258 48.833335 
L 99.551585 48.833335 
L 102.967911 48.833335 
L 106.384238 48.833335 
L 109.800564 48.833335 
L 113.216891 48.833335 
L 116.633217 48.833335 
L 120.049544 48.833335 
L 123.46587 48.833335 
L 126.882197 48.833335 
L 130.298523 48.833335 
L 133.71485 48.833335 
L 137.131176 48.833335 
L 140.547503 48.833335 
L 143.96383 48.833335 
L 147.380156 48.833335 
L 150.796483 48.833335 
L 154.212809 48.833335 
L 157.629136 48.833335 
L 161.045462 48.833335 
L 164.461789 48.833335 
L 167.878115 48.833335 
L 171.294442 48.833335 
L 174.710768 48.833335 
L 178.127095 48.833335 
L 181.543421 48.833335 
L 184.959748 48.833335 
L 188.376074 48.833335 
L 191.792401 48.833335 
L 195.208727 48.833335 
L 198.625054 48.833335 
L 202.041381 48.833335 
L 205.457707 48.833335 
L 208.874034 48.833335 
L 212.29036 48.833335 
L 215.706687 48.833335 
" clip-path="url(#pca1e11044b)" style="fill: none; stroke-dasharray: 3.7,1.6; stroke-dashoffset: 0; stroke: #31688e"/>
   </g>
   <g id="line2d_82">
    <path d="M 48.306687 92.249511 
L 51.723013 48.833522 
L 55.13934 48.833522 
L 58.555666 48.833522 
L 61.971993 48.833522 
L 65.388319 48.833522 
L 68.804646 48.833522 
L 72.220972 48.833522 
L 75.637299 48.833522 
L 79.053625 48.833522 
L 82.469952 48.833522 
L 85.886278 48.833522 
L 89.302605 48.833522 
L 92.718932 48.833522 
L 96.135258 48.833522 
L 99.551585 48.833522 
L 102.967911 48.833522 
L 106.384238 48.833522 
L 109.800564 48.833522 
L 113.216891 48.833522 
L 116.633217 48.833522 
L 120.049544 48.833522 
L 123.46587 48.833522 
L 126.882197 48.833522 
L 130.298523 48.833522 
L 133.71485 48.833522 
L 137.131176 48.833522 
L 140.547503 48.833522 
L 143.96383 48.833522 
L 147.380156 48.833522 
L 150.796483 48.833522 
L 154.212809 48.833522 
L 157.629136 48.833522 
L 161.045462 48.833522 
L 164.461789 48.833522 
L 167.878115 48.833522 
L 171.294442 48.833522 
L 174.710768 48.833522 
L 178.127095 48.833522 
L 181.543421 48.833522 
L 184.959748 48.833522 
L 188.376074 48.833522 
L 191.792401 48.833522 
L 195.208727 48.833522 
L 198.625054 48.833522 
L 202.041381 48.833522 
L 205.457707 48.833522 
L 208.874034 48.833522 
L 212.29036 48.833522 
L 215.706687 48.833522 
" clip-path="url(#pca1e11044b)" style="fill: none; stroke-dasharray: 3.7,1.6; stroke-dashoffset: 0; stroke: #26828e"/>
   </g>
   <g id="line2d_83">
    <path d="M 48.306687 48.833335 
L 51.723013 48.833335 
L 55.13934 48.833335 
L 58.555666 48.833335 
L 61.971993 48.833335 
L 65.388319 48.833335 
L 68.804646 48.833335 
L 72.220972 48.833335 
L 75.637299 48.833335 
L 79.053625 48.833335 
L 82.469952 48.833335 
L 85.886278 48.833335 
L 89.302605 48.833335 
L 92.718932 48.833335 
L 96.135258 48.833335 
L 99.551585 48.833335 
L 102.967911 48.833335 
L 106.384238 48.833335 
L 109.800564 48.833335 
L 113.216891 48.833335 
L 116.633217 48.833335 
L 120.049544 48.833335 
L 123.46587 48.833335 
L 126.882197 48.833335 
L 130.298523 48.833335 
L 133.71485 48.833335 
L 137.131176 48.833335 
L 140.547503 48.833335 
L 143.96383 48.833335 
L 147.380156 48.833335 
L 150.796483 48.833335 
L 154.212809 48.833335 
L 157.629136 48.833335 
L 161.045462 48.833335 
L 164.461789 48.833335 
L 167.878115 48.833335 
L 171.294442 48.833335 
L 174.710768 48.833335 
L 178.127095 48.833335 
L 181.543421 48.833335 
L 184.959748 48.833335 
L 188.376074 48.833335 
L 191.792401 48.833335 
L 195.208727 48.833335 
L 198.625054 48.833335 
L 202.041381 48.833335 
L 205.457707 48.833335 
L 208.874034 48.833335 
L 212.29036 48.833335 
L 215.706687 48.833335 
" clip-path="url(#pca1e11044b)" style="fill: none; stroke-dasharray: 3.7,1.6; stroke-dashoffset: 0; stroke: #1f9e89"/>
   </g>
   <g id="line2d_84">
    <path d="M 48.306687 93.165688 
L 51.723013 48.833335 
L 55.13934 48.833335 
L 58.555666 48.833335 
L 61.971993 48.833335 
L 65.388319 48.833335 
L 68.804646 48.833335 
L 72.220972 48.833335 
L 75.637299 48.833335 
L 79.053625 48.833335 
L 82.469952 48.833335 
L 85.886278 48.833335 
L 89.302605 48.833335 
L 92.718932 48.833335 
L 96.135258 48.833335 
L 99.551585 48.833335 
L 102.967911 48.833335 
L 106.384238 48.833335 
L 109.800564 48.833335 
L 113.216891 48.833335 
L 116.633217 48.833335 
L 120.049544 48.833335 
L 123.46587 48.833335 
L 126.882197 48.833335 
L 130.298523 48.833335 
L 133.71485 48.833335 
L 137.131176 48.833335 
L 140.547503 48.833335 
L 143.96383 48.833335 
L 147.380156 48.833335 
L 150.796483 48.833335 
L 154.212809 48.833335 
L 157.629136 48.833335 
L 161.045462 48.833335 
L 164.461789 48.833335 
L 167.878115 48.833335 
L 171.294442 48.833335 
L 174.710768 48.833335 
L 178.127095 48.833335 
L 181.543421 48.833335 
L 184.959748 48.833335 
L 188.376074 48.833335 
L 191.792401 48.833335 
L 195.208727 48.833335 
L 198.625054 48.833335 
L 202.041381 48.833335 
L 205.457707 48.833335 
L 208.874034 48.833335 
L 212.29036 48.833335 
L 215.706687 48.833335 
" clip-path="url(#pca1e11044b)" style="fill: none; stroke-dasharray: 3.7,1.6; stroke-dashoffset: 0; stroke: #35b779"/>
   </g>
   <g id="patch_3">
    <path d="M 39.936687 142.2 
L 39.936687 3.6 
" style="fill: none; stroke: #000000; stroke-width: 0.5; stroke-linejoin: miter; stroke-linecap: square"/>
   </g>
   <g id="patch_4">
    <path d="M 39.936687 142.2 
L 224.076687 142.2 
" style="fill: none; stroke: #000000; stroke-width: 0.5; stroke-linejoin: miter; stroke-linecap: square"/>
   </g>
   <g id="legend_1"/>
  </g>
 </g>
 <defs>
  <clipPath id="pca1e11044b">
   <rect x="39.936687" y="3.6" width="184.14" height="138.6"/>
  </clipPath>
 </defs>
</svg>
